<?xml version="1.0" standalone="no"?>
<!DOCTYPE svg PUBLIC "-//W3C//DTD SVG 1.1//EN" "http://www.w3.org/Graphics/SVG/1.1/DTD/svg11.dtd" >
<svg xmlns="http://www.w3.org/2000/svg">
<metadata></metadata>
<defs>
<font id="alegreya_scregular" horiz-adv-x="1036" >
<font-face units-per-em="2048" ascent="1638" descent="-410" />
<missing-glyph horiz-adv-x="413" />
<glyph horiz-adv-x="0" />
<glyph horiz-adv-x="682" />
<glyph unicode=" "  horiz-adv-x="413" />
<glyph unicode="&#x09;" horiz-adv-x="413" />
<glyph unicode="&#xa0;" horiz-adv-x="413" />
<glyph unicode="!" horiz-adv-x="583" d="M125 92q0 54 35 90.5t92 36.5q55 0 86 -33.5t31 -83.5q0 -54 -35.5 -90.5t-93.5 -36.5q-55 0 -85 34.5t-30 82.5zM201 1364l14 20l170 37l18 -22l-106 -971l-57 -14l-23 16z" />
<glyph unicode="&#x22;" horiz-adv-x="610" d="M121 1300l143 29l15 -16q-29 -225 -72 -434l-51 -29l-23 4q3 117 0.5 216t-7.5 164zM371 1300l143 29l14 -16q-28 -225 -71 -434l-51 -29l-23 4q3 117 0.5 216t-7.5 164z" />
<glyph unicode="#" horiz-adv-x="1019" d="M23 446l30 76l223 -2l27 117l25 106l-224 -2l-6 21l31 76l219 -2l76 327l82 11l16 -13l-80 -327h109l108 -3l76 332l82 11l17 -13l-80 -330h221l8 -18l-39 -74l-213 2l-18 -79l-33 -146h219l8 -18l-39 -74l-209 2l-73 -338l-80 -16l-14 12l75 344l-143 2l-74 -2l-76 -340 l-79 -16l-15 12l76 344l-227 -2zM369 518h106l113 -2l26 121l25 106l-139 2l-78 -2l-21 -81z" />
<glyph unicode="$" horiz-adv-x="940" d="M109 55q22 130 22 277l92 8q0 -149 34 -201.5t136 -58.5l35 358q-19 8 -29 15q-63 31 -101.5 53.5t-83 57.5t-66 77.5t-21.5 93.5q0 121 100 205t256 96l29 303l53 9l13 -19l-29 -291q64 -2 125 -11.5t90 -18.5l29 -9l8 -14q-29 -125 -39 -270l-80 -8l-12 8q4 30 4 73 q0 69 -30.5 102t-104.5 40l-33 -340q2 -2 6 -2q49 -23 63.5 -30t58.5 -30.5t60.5 -36t47 -38t43 -46.5t23.5 -50.5t11 -61.5q0 -127 -102 -212t-268 -99l-27 -293l-53 -6l-11 14l27 283q-71 1 -137.5 14.5t-97.5 27.5l-31 13zM285 791q0 -51 41 -90.5t118 -79.5l29 311 q-82 -3 -135 -42t-53 -99zM459 80q87 6 139.5 48.5t52.5 109.5q0 52 -42 91.5t-120 78.5z" />
<glyph unicode="%" horiz-adv-x="1374" d="M72 987q0 147 87 244.5t222 97.5q133 0 203.5 -90.5t70.5 -214.5q0 -95 -35 -175t-106 -130.5t-166 -50.5q-128 0 -202 89t-74 230zM147 -131q269 408 451 694l524 826l80 -39l10 -29q-356 -531 -536 -819q-82 -132 -192 -306.5t-179 -282.5l-69 -108l-78 39zM168 1016 q0 -108 62.5 -162.5t146.5 -54.5q31 0 60 7.5t58 25.5t46.5 55.5t17.5 89.5q0 94 -57.5 155.5t-155.5 61.5q-82 0 -130 -49.5t-48 -128.5zM766 295q0 147 87 244.5t222 97.5q133 0 204 -90.5t71 -214.5q0 -95 -35 -175t-106.5 -131t-166.5 -51q-128 0 -202 89.5t-74 230.5z M862 324q0 -108 62.5 -163t146.5 -55q31 0 60 8t58 26t46.5 55.5t17.5 89.5q0 94 -57.5 155.5t-155.5 61.5q-82 0 -130 -49.5t-48 -128.5z" />
<glyph unicode="&#x26;" horiz-adv-x="1275" d="M72 508q0 117 48.5 219t130.5 162.5t175 60.5q86 0 135 -44t49 -122q0 -18 -4.5 -36.5t-9.5 -27.5l-4 -9l8 -4q190 140 284 280.5t97 290.5l10 10h39q68 -133 68 -184q0 -34 -80 -133q-93 -135 -262 -264t-541 -351q46 -122 149 -191t244 -69q170 0 274 102t119 285 l-114 17q-17 0 -50 -30t-57 -60l-24 -29h-13l-53 41v10l152 189l30 10q39 0 198.5 -25.5t201.5 -25.5q14 0 45.5 29.5t56.5 58.5l25 30h14l49 -41l2 -10l-149 -188l-31 -15l-166 23q-35 -212 -192 -352t-361 -140q-224 0 -358.5 145.5t-134.5 387.5zM186 553q0 -49 11 -117 q158 101 215 163t57 132q0 44 -25 70t-67 26q-82 0 -136.5 -78.5t-54.5 -195.5z" />
<glyph unicode="'" horiz-adv-x="360" d="M121 1300l143 29l15 -16q-29 -225 -72 -434l-51 -29l-23 4q3 117 0.5 216t-7.5 164z" />
<glyph unicode="(" horiz-adv-x="632" d="M172 334v354q0 81 13 154t35.5 129.5t51.5 106t60.5 85t63.5 64.5t61 47.5t51.5 31t35.5 18.5l13 5h8l27 -59l-2 -8l-16 -8t-39 -25.5t-56 -46.5t-59 -71.5t-55.5 -98.5t-39.5 -129.5t-16 -163.5v-354q0 -73 10 -140.5t27 -119.5t39 -98.5t46.5 -80.5t48.5 -62t46 -46 t39 -30.5t27 -17.5l10 -6v-10l-43 -53h-8q-8 3 -21.5 9t-53 30t-75.5 54t-79.5 83t-75 114.5t-53 151.5t-21.5 191z" />
<glyph unicode=")" horiz-adv-x="632" d="M31 1266v10l43 53h8q8 -3 21.5 -9t53 -30t75.5 -54t79.5 -83t75 -114.5t53 -151.5t21.5 -191v-354q0 -81 -13 -154t-35.5 -129.5t-51.5 -106t-61 -85t-63.5 -64.5t-60.5 -47.5t-51.5 -31t-35.5 -18.5l-13 -5h-8l-27 59l2 9q6 2 16 7.5t39 26t56 46t59 71t55.5 98.5 t39.5 129.5t16 163.5v355q0 93 -16 176.5t-42 142.5t-57 108.5t-62.5 80.5t-57.5 52.5t-42 30.5z" />
<glyph unicode="*" horiz-adv-x="933" d="M139 1217q1 78 19 139l18 8q113 -59 205 -129l-12 -68l-13 -10q-46 16 -100.5 31t-85.5 22zM186 969q91 89 187 155l59 -32l6 -15q-29 -39 -60 -86t-47 -75l-16 -27q-74 24 -127 61zM397 1485q75 24 138 24l14 -14q-23 -124 -60 -233l-69 -11l-12 9q0 49 -3 105.5 t-5 88.5zM475 1081l49 47l17 2q28 -40 63 -84t56 -68l20 -24q-45 -61 -96 -100l-19 2q-57 114 -90 225zM518 1227l2 16q47 15 100 35t82 32l29 13q46 -64 66 -123l-9 -18q-14 -2 -38 -5t-88 -7.5t-115 -2.5z" />
<glyph unicode="+" d="M37 498l22 100q218 -2 396 -2l2 412l104 16l21 -12q-13 -252 -13 -416q73 0 177.5 3t172.5 6l68 3l12 -20l-16 -105l-414 -2l2 -397l-100 -23l-18 13q2 227 2 407l-406 -2z" />
<glyph unicode="," horiz-adv-x="487" d="M31 -270q71 49 116.5 116t45.5 131q0 82 -66 144l4 29q72 53 119 53q45 0 74.5 -42.5t29.5 -117.5q0 -56 -26.5 -112.5t-71 -103.5t-91 -83t-97.5 -66l-37 31v21z" />
<glyph unicode="-" horiz-adv-x="663" d="M74 446l12 107l356 41l133 18l15 -18l-10 -111l-492 -53z" />
<glyph unicode="." horiz-adv-x="487" d="M123 92q0 54 35 90.5t92 36.5q55 0 86 -33.5t31 -83.5q0 -54 -35.5 -90.5t-93.5 -36.5q-55 0 -85 34.5t-30 82.5z" />
<glyph unicode="/" horiz-adv-x="673" d="M70 -209q108 362 188 672l236 919h94l16 -20q-162 -591 -250 -922l-172 -665h-98z" />
<glyph unicode="0" horiz-adv-x="1091" d="M78 481q0 239 141 396t356 157q194 0 316.5 -138t122.5 -357q0 -245 -140.5 -404.5t-355.5 -159.5q-198 0 -319 139.5t-121 366.5zM193 512q0 -169 100.5 -275t261.5 -106q154 0 249 96.5t95 253.5q0 170 -103 278.5t-264 108.5q-154 0 -246.5 -97.5t-92.5 -258.5z" />
<glyph unicode="1" horiz-adv-x="724" d="M72 881l8 86q121 14 225 30q163 27 204 36q2 1 3 1l12 -35q-40 -34 -55.5 -68t-19.5 -104q-13 -353 -13 -598q0 -82 20.5 -110.5t80.5 -28.5l108 6l4 -8l-18 -94q-173 6 -273 6q-46 0 -110.5 -6t-105.5 -12l-42 -7l13 95q114 9 149 53.5t35 179.5v467q0 72 -26 94.5 t-85 22.5q-19 0 -46 -3.5t-44 -6.5l-18 -3z" />
<glyph unicode="2" horiz-adv-x="972" d="M55 12l162 181q334 379 334 548q0 73 -41 114.5t-113 41.5q-69 0 -137.5 -49.5t-114.5 -132.5h-18l-23 92q51 98 150 162.5t197 64.5q127 0 203.5 -67.5t76.5 -178.5q0 -92 -92 -228t-344 -421l8 -14h313q113 0 156 34.5t74 151.5l82 11q-44 -172 -60 -322l-24 -14 q-482 14 -658 14l-110 -25z" />
<glyph unicode="3" horiz-adv-x="849" d="M41 -66l10 13q90 -19 164 -19q154 0 258.5 78t104.5 195q0 104 -90 155t-277 52l-10 10l-11 71l134 33q82 38 134 105.5t52 134.5q0 64 -45.5 103.5t-114.5 39.5q-58 0 -122.5 -29t-110.5 -75h-21l-20 86q8 6 21 16t53.5 35t79.5 44.5t90 35.5t94 16q120 0 193 -62.5 t73 -166.5q0 -81 -61 -159.5t-164 -131.5v-10q276 -64 276 -254q0 -106 -84.5 -215t-215.5 -179.5t-259 -70.5q-69 0 -99 34.5t-32 114.5z" />
<glyph unicode="4" horiz-adv-x="915" d="M8 182l8 76l566 774q1 0 4 1t4 1l65 -20v-721h191l12 -17l-16 -112q-76 2 -187 6q1 -74 4.5 -160.5t6.5 -135.5l4 -50l-11 -14l-145 -25l-12 18q10 211 12 371q-316 8 -506 8zM166 293h348v459h-18z" />
<glyph unicode="5" horiz-adv-x="880" d="M33 -66l10 13q90 -19 166 -19q163 0 272 76.5t109 196.5q0 101 -94 159t-334 99l-19 22l35 500l17 16l387 17q60 3 86 19t43 61l67 8l-49 -242l-12 -12q-211 16 -449 16l-14 -258q89 -20 157 -41t133.5 -51t107.5 -65t67.5 -82.5t25.5 -104.5q0 -72 -36.5 -145 t-98 -131.5t-136.5 -104.5t-157 -71t-155 -25q-63 0 -94 31.5t-35 117.5z" />
<glyph unicode="6" horiz-adv-x="931" d="M82 403q0 99 23.5 190.5t62.5 162t90 134t107.5 110t113 85.5t107.5 64t90 43t62 26l24 7l14 -11l23 -61q-9 -3 -24.5 -9.5t-61.5 -30t-90 -51.5t-101 -75.5t-103 -100.5t-87.5 -128t-63.5 -156l8 -4q19 12 48.5 30t91 47.5t88.5 29.5q85 0 154.5 -30.5t112 -79.5 t65 -107.5t22.5 -118.5q0 -165 -114.5 -279.5t-292.5 -114.5q-167 0 -268 121.5t-101 306.5zM246 416q0 -157 65.5 -249.5t180.5 -92.5q99 0 157 65t58 180q0 106 -71 185.5t-177 79.5q-59 0 -115 -24.5t-92 -51.5q-6 -46 -6 -92z" />
<glyph unicode="7" horiz-adv-x="860" d="M78 653q29 199 39 355l12 10q123 -8 250 -8h432l45 -58q-203 -408 -459 -991l-51 -176h-14l-123 37l-21 45l512 1003l-354 -14q-53 -2 -84 -11t-52 -33t-31 -55t-21 -91z" />
<glyph unicode="8" horiz-adv-x="993" d="M115 254q0 55 19 105t46.5 85t66.5 66t69 48.5t63 33.5q-108 59 -167.5 127t-59.5 172q0 133 105 233.5t263 100.5q82 0 153 -29.5t119 -93.5t48 -152q0 -56 -19 -106t-51.5 -86t-64.5 -61t-68 -44q55 -30 94 -57.5t76.5 -65t56.5 -85.5t19 -105q0 -152 -120.5 -258.5 t-297.5 -106.5q-146 0 -248 75t-102 204zM264 303q0 -96 72 -168t178 -72q92 0 159.5 63t67.5 155q0 47 -20.5 85.5t-63 70.5t-81 53.5t-100.5 52.5q-8 4 -13.5 6.5t-11.5 5.5q-187 -80 -187 -252zM295 952q0 -30 8 -55.5t29 -49.5t38 -40.5t54.5 -39.5t56 -33.5t65.5 -34.5 q5 -3 9 -5l8 -4q123 74 123 217q0 105 -56.5 164t-144.5 59q-85 0 -137.5 -53t-52.5 -125z" />
<glyph unicode="9" horiz-adv-x="931" d="M74 641q0 165 114.5 279t292.5 114q167 0 268 -121.5t101 -306.5q0 -126 -37.5 -239t-97.5 -193.5t-132.5 -148.5t-145 -111t-132.5 -73.5t-97 -42.5l-38 -13l-14 10l-23 62q9 3 24.5 9.5t61.5 30t90 51t100.5 75t102.5 100t87.5 127.5t62.5 156l-7 6q-19 -12 -48 -30 t-90.5 -47.5t-88.5 -29.5q-85 0 -154.5 30.5t-112 79.5t-65 107.5t-22.5 118.5zM225 690q0 -109 69 -186.5t179 -77.5q98 0 207 76q6 44 6 92q0 155 -66.5 248.5t-179.5 93.5q-99 0 -157 -65.5t-58 -180.5z" />
<glyph unicode=":" horiz-adv-x="487" d="M115 92q0 54 35 90.5t92 36.5q55 0 85.5 -33.5t30.5 -83.5q0 -54 -35.5 -90.5t-93.5 -36.5q-55 0 -84.5 34.5t-29.5 82.5zM115 666q0 54 35 90.5t92 36.5q55 0 85.5 -33.5t30.5 -83.5q0 -54 -35.5 -90.5t-93.5 -36.5q-55 0 -84.5 34.5t-29.5 82.5z" />
<glyph unicode=";" horiz-adv-x="487" d="M31 -270q71 49 116.5 116t45.5 131q0 82 -66 144l4 29q72 53 119 53q45 0 74.5 -42.5t29.5 -117.5q0 -56 -26.5 -112.5t-71 -103.5t-91 -83t-97.5 -66l-37 31v21zM115 666q0 54 35 90.5t92 36.5q55 0 85.5 -33.5t30.5 -83.5q0 -54 -35.5 -90.5t-93.5 -36.5 q-55 0 -84.5 34.5t-29.5 82.5z" />
<glyph unicode="&#x3c;" d="M63 512l5 96l415 176q83 36 186 77.5t165 64.5l61 24l18 -10l15 -102q-230 -80 -398 -150l-315 -123v-12l344 -143l371 -162l2 -23l-62 -82q-217 102 -385 174l-405 172z" />
<glyph unicode="=" d="M37 340l22 100q308 -2 490 -2q73 0 182.5 3t182.5 7l73 3l12 -21l-16 -104l-465 -2l-469 -2zM37 662l22 100q308 -2 490 -2q73 0 182.5 3t182.5 6l73 3l12 -20l-16 -105l-465 -2l-469 -2z" />
<glyph unicode="&#x3e;" d="M104 868l62 82q217 -102 385 -174l405 -172l17 -22l-4 -97l-416 -176q-83 -36 -186 -77.5t-165 -65.5l-61 -23l-18 11l-14 102q229 80 397 150l315 122v13l-344 143l-371 162z" />
<glyph unicode="?" horiz-adv-x="737" d="M119 1305l67 108l29 8q191 -6 325 -103t134 -235q0 -55 -15.5 -103t-37 -80.5t-60.5 -67t-69 -55t-80.5 -53t-77.5 -52.5l-6 -19l43 -194l-6 -17l-125 -34l-19 8l-49 246l6 28l244 156q117 80 117 176q0 120 -111 184.5t-305 75.5zM178 92q0 54 35 90.5t92 36.5 q55 0 86 -33.5t31 -83.5q0 -54 -35.5 -90.5t-93.5 -36.5q-55 0 -85 34.5t-30 82.5z" />
<glyph unicode="@" horiz-adv-x="1703" d="M68 385q0 134 39 261.5t115 237.5t180.5 193t244 130.5t295.5 47.5q151 0 281.5 -49t220.5 -134t141 -201t51 -248q0 -101 -26.5 -195t-81 -176.5t-131.5 -144t-185 -97t-235 -35.5q-74 0 -74 60q0 17 22 123.5t44 204.5l22 98l-12 4q-185 -350 -383 -490 q-81 0 -122.5 75.5t-41.5 203.5q0 126 42.5 253.5t109.5 222t151.5 153.5t165.5 59l205 -33l18 52l11 2l63 -31l16 -25q-13 -46 -34.5 -124t-67.5 -286.5t-70 -377.5l9 -8q218 0 331 125t113 337q0 267 -164.5 417.5t-439.5 150.5q-202 0 -358.5 -100t-238 -262.5 t-81.5 -356.5q0 -121 26 -228.5t83 -202t140.5 -164.5t204.5 -114.5t269 -52.5v-14l-53 -74q-195 9 -352 77.5t-257 179t-153 253t-53 303.5zM575 354q0 -87 17 -150t43 -63q56 0 175 178.5t234 444.5q-113 67 -206 67q-64 0 -125 -66t-99.5 -177.5t-38.5 -233.5z" />
<glyph unicode="A" horiz-adv-x="1183" d="M-37 -6l17 96q58 6 92 39.5t67 118.5l400 1046l129 35h16q172 -638 326 -1098q25 -77 66 -107.5t130 -37.5l4 -8l-14 -84q-147 6 -217 6t-146.5 -5t-117.5 -10l-41 -5l-6 14l8 80q105 7 143.5 24t38.5 54q0 40 -18 98l-68 223q-49 2 -213 2q-98 0 -223 -16l-76 -213 q-18 -55 -18 -80q0 -44 29 -64t94 -20h116l4 -8l-12 -88q-150 14 -285 14zM373 559h180q73 0 190 10l-161 537h-15z" />
<glyph unicode="B" horiz-adv-x="1222" d="M119 -25l12 95q95 19 127.5 54.5t32.5 121.5l2 860q0 66 -15 88.5t-61 22.5l-70 -5l-4 9l15 90q149 -6 227 -6l242 8q195 0 299 -80.5t104 -231.5q0 -101 -61.5 -183.5t-175.5 -131.5q149 -32 233 -114.5t84 -196.5q0 -105 -66 -196t-177 -145t-238 -54q-43 0 -133 10 t-144 10q-45 0 -103.5 -6t-94.5 -12zM436 227q0 -78 53 -110.5t181 -32.5q123 0 193.5 68.5t70.5 185.5q0 110 -70.5 180.5t-206.5 95.5l-213 -4zM449 719q192 -17 223 -17q8 2 21 6.5t46 24t58 46.5t46 77t21 111q0 132 -88 195t-272 63q-21 0 -28 -9.5t-9 -37.5 q-12 -197 -18 -459z" />
<glyph unicode="C" horiz-adv-x="1288" d="M82 608q0 205 92 370t255.5 258t367.5 93q76 0 165 -12.5t140 -24.5l51 -12l8 -12q-39 -154 -51 -342l-98 -8q6 55 6 100q0 190 -301 190q-206 0 -328.5 -144t-122.5 -388q0 -270 128.5 -434t340.5 -164q140 0 225 78.5t123 244.5l99 9q-42 -187 -56 -334l-12 -19 q-7 -3 -20.5 -8.5t-57 -20t-89.5 -25t-115.5 -19.5t-137.5 -9q-280 0 -446 171.5t-166 461.5z" />
<glyph unicode="D" horiz-adv-x="1439" d="M119 -25l12 95q95 19 127.5 54.5t32.5 121.5l2 860q0 66 -15 88.5t-61 22.5l-70 -5l-4 9l15 90q137 -6 215 -6l311 8q300 0 487 -170t187 -443q0 -201 -94 -367.5t-256.5 -262t-358.5 -95.5q-191 25 -295 25q-45 0 -104 -6t-95 -12zM438 268q0 -113 51.5 -150.5 t206.5 -37.5q221 0 348 152.5t127 418.5q0 270 -163 415.5t-465 145.5q-43 0 -58 -8.5t-16 -36.5q-31 -815 -31 -899z" />
<glyph unicode="E" horiz-adv-x="1210" d="M119 -20l12 94q92 12 126 48t34 124l2 860q0 66 -15 88.5t-61 22.5l-70 -5l-4 9l15 90q161 -6 284 -6q435 0 615 24l6 -12q-35 -152 -47 -340l-98 -8q4 59 4 88q0 37 -2.5 57.5t-15.5 39t-30 26.5t-57 14t-85 7t-124 1q-100 0 -121 -11.5t-22 -68.5l-16 -397q21 0 99 -1 t111 -1t95.5 5.5t108.5 11.5l46 5l9 -10l-29 -121q-176 7 -287 7q-70 0 -158 -15q-8 -295 -8 -391q0 -45 4 -66.5t22.5 -36t47.5 -17.5t88 -3q88 0 140.5 2.5t98 13t68.5 25t42.5 45.5t28 67t17.5 97l90 10l7 -10q-38 -170 -56 -344l-10 -12q-426 14 -621 14q-69 0 -140 -5 t-107 -10z" />
<glyph unicode="F" horiz-adv-x="1048" d="M119 -25l12 95q95 19 127.5 54.5t32.5 121.5l2 860q0 66 -15 88.5t-61 22.5l-70 -5l-4 9l15 90q161 -6 284 -6q404 0 576 24l6 -12q-35 -158 -47 -346l-98 -8q4 65 4 94q0 36 -2.5 57t-14 39.5t-26.5 26.5t-50 14t-74 7t-108 1q-100 0 -121 -11.5t-22 -68.5l-16 -432 l210 -2q28 0 81.5 6t93.5 12l40 5l9 -11l-29 -122q-156 6 -252 6q-70 0 -158 -15l-8 -340q0 -83 18 -111t72 -28l146 6l4 -8l-19 -96q-194 8 -305 8q-45 0 -103.5 -6t-94.5 -12z" />
<glyph unicode="G" horiz-adv-x="1366" d="M82 608q0 212 90 376t253.5 254.5t375.5 90.5q76 0 175 -12.5t160 -24.5l62 -12l8 -12q-41 -154 -53 -342l-96 -8q6 55 6 110q0 95 -73 137.5t-236 42.5q-234 0 -364 -140t-130 -394q0 -270 127.5 -433t339.5 -163q73 0 143 19.5t104 38.5l34 20v250q0 68 -21.5 89 t-91.5 21h-141l-4 8l18 103q139 -9 260 -9q39 0 83 3t69 5l24 3l8 -45q-37 -31 -50 -97t-13 -219q0 -119 14 -180l-12 -18q-9 -4 -24.5 -10.5t-66 -22.5t-102.5 -28.5t-128.5 -23t-149.5 -10.5q-274 0 -436 171.5t-162 461.5z" />
<glyph unicode="H" horiz-adv-x="1544" d="M119 -25l12 95q95 19 127.5 54.5t32.5 121.5l2 860q0 66 -15 88.5t-61 22.5l-70 -5l-4 9l15 90q149 -6 227 -6q39 0 94 4.5t90 8.5l35 5l-8 -92q-47 -7 -71 -15.5t-38.5 -30.5t-19 -50.5t-6.5 -87.5l-12 -332l344 -2q130 0 303 20l2 373q0 66 -15 88.5t-61 22.5l-70 -5 l-4 9l15 90q0 -1 75 -3.5t125 -2.5q44 0 105.5 4.5t101.5 8.5l39 5l-8 -92q-76 -10 -102 -34t-29 -83q-29 -619 -29 -885q0 -83 18 -111t72 -28l92 6l4 -8l-18 -94q-162 6 -252 6l-235 -4l18 92q67 1 99 19t44.5 62.5t12.5 137.5v309q-218 2 -312 2q-29 0 -114 -5.5 t-156 -10.5l-70 -6l-8 -367q0 -83 18 -111t72 -28l92 6l5 -8l-19 -94q0 6 -174 6q-89 0 -198.5 -9t-112.5 -16z" />
<glyph unicode="I" horiz-adv-x="739" d="M115 -25l12 95q97 19 130.5 54.5t33.5 121.5l2 860q0 65 -15.5 88t-60.5 23l-86 -5l-4 9l14 90q160 -6 244 -6q42 0 101 4.5t97 8.5l38 5l-9 -92q-85 -10 -114.5 -34t-32.5 -83q-29 -615 -29 -885q0 -83 18 -111t72 -28l109 6l4 -8l-18 -94q-173 6 -269 6 q-46 0 -105.5 -6t-95.5 -12z" />
<glyph unicode="J" horiz-adv-x="669" d="M47 -227l6 16q125 75 170 169t45 278l2 870q0 66 -14.5 87t-60.5 21l-97 -8l-4 8l15 91h221q39 0 98.5 4.5t99.5 8.5l39 5l-8 -92q-72 -11 -93 -32t-24 -85q-21 -486 -26 -876q-1 -209 -81 -335.5t-253 -197.5z" />
<glyph unicode="K" horiz-adv-x="1286" d="M117 -2l20 92q95 9 124.5 38.5t29.5 117.5l2 860q0 66 -15 88.5t-61 22.5l-70 -5l-4 9l15 90q149 -6 227 -6q39 0 94 4.5t90 8.5l35 5l-8 -92q-76 -12 -104.5 -38t-30.5 -85l-25 -879v-21q0 -66 16 -90q19 -28 74 -28l92 6l5 -8l-19 -94q-162 6 -252 6zM496 645l2 29 l366 381q64 64 64 106q0 53 -129 62l-4 8l14 88q149 -14 225 -14q36 0 83 2t77 4l29 2l8 -15l-14 -84q-54 -10 -98.5 -43t-137.5 -129l-330 -346l344 -448q74 -96 132.5 -135t129.5 -39l9 -8l-13 -70q-147 -25 -170 -25q-102 0 -229 176z" />
<glyph unicode="L" horiz-adv-x="1038" d="M139 -20l13 94q80 12 109.5 48.5t29.5 123.5l2 860q0 66 -15 88.5t-61 22.5l-70 -5l-4 9l15 90q151 -6 229 -6q39 0 94 4.5t90 8.5l35 5l-8 -92q-47 -6 -72 -15t-38 -29t-16.5 -42.5t-6.5 -68.5q0 -7 -0.5 -11.5t-1 -11.5t-0.5 -13q-25 -356 -25 -790q0 -56 5 -84 t25 -46.5t51 -23t93 -4.5q63 0 104 3.5t76 16t55.5 31t38.5 53.5t29 77.5t23 109.5l90 10l6 -10q-36 -186 -59 -389l-10 -12q-356 18 -551 18q-68 0 -137 -5t-103 -10z" />
<glyph unicode="M" horiz-adv-x="1734" d="M94 -16l10 94q65 8 94 42t38 116q90 844 90 884q0 54 -42.5 80.5t-136.5 32.5l-6 10l17 72q157 -10 223 -10q26 0 61 2t56 4l22 2q82 -265 168.5 -519t131.5 -376l46 -121h11q159 425 354 1012q0 1 24.5 0t59 -2.5t51.5 -1.5l221 12l4 -8l-10 -76q-89 -10 -125.5 -36 t-36.5 -77q0 -46 18.5 -336t35.5 -499q14 -121 32.5 -158t67.5 -37l57 4l4 -8l-18 -92q-121 6 -195 6q-39 0 -92.5 -4t-86.5 -8l-34 -4l9 94q63 7 91.5 31.5t28.5 70.5q0 31 -17.5 252.5t-34.5 427.5l-17 205h-11l-395 -1090l-49 -14l-397 1104h-10q-70 -858 -70 -911 q0 -64 63 -64l84 2l4 -8l-18 -92q-131 8 -199 8q-36 0 -80 -4t-70 -8z" />
<glyph unicode="N" horiz-adv-x="1472" d="M111 1239l16 76q119 -10 176 -10q30 0 64.5 2t53.5 4l19 2q151 -235 323 -489t269 -390l96 -137h11v829q0 88 -68 88l-78 -2l-4 9l19 92q124 -8 194 -8q38 0 89 4t83 8l31 4l-10 -94q-71 -9 -105 -39.5t-35 -89.5l-28 -1151l-60 -29q-177 277 -367.5 559t-291.5 426 l-102 144h-11l-10 -875q0 -46 14.5 -64t49.5 -18l104 2l4 -8l-18 -92q-129 8 -217 8q-36 0 -84 -4t-78 -8l-29 -4l10 94q64 8 95 37.5t32 91.5l27 895q0 63 -37.5 89.5t-140.5 37.5z" />
<glyph unicode="O" horiz-adv-x="1417" d="M82 608q0 200 89 365.5t243.5 260.5t341.5 95q169 0 301 -79.5t205 -223.5t73 -328q0 -151 -53 -285t-144.5 -230t-218.5 -152t-270 -56q-252 0 -409.5 176t-157.5 457zM258 674q0 -262 127 -428t328 -166q195 0 317.5 148t122.5 384q0 263 -130 428.5t-337 165.5 q-190 0 -309 -148t-119 -384z" />
<glyph unicode="P" horiz-adv-x="1128" d="M129 -16l14 94q90 15 119 48t29 120l2 860q0 66 -15.5 88.5t-60.5 22.5l-70 -5l-4 9l15 90q149 -6 227 -6l258 8q212 0 325 -94t113 -271q0 -114 -66 -218t-174.5 -167t-228.5 -63h-172l-4 -201q0 -60 2 -94t6.5 -59.5t15.5 -36t25.5 -15t40.5 -4.5l111 6l4 -8l-18 -94 q0 1 -32.5 2.5t-78 2.5t-78.5 1q-83 0 -192.5 -5.5t-112.5 -10.5zM444 621l218 -31q247 41 247 319q0 157 -93 230t-292 73q-38 0 -46 -3.5t-9 -24.5q-19 -282 -25 -563z" />
<glyph unicode="Q" horiz-adv-x="1427" d="M82 608q0 200 89 365.5t243.5 260.5t341.5 95q169 0 301 -79.5t205 -223.5t73 -328q0 -253 -139.5 -444.5t-361.5 -253.5v-10q218 -147 361.5 -209t266.5 -62q43 0 84 5.5t60 10.5l20 5l8 -6l13 -37q-17 -16 -44 -39t-80 -61.5t-71 -38.5q-102 0 -192.5 32t-224.5 116.5 t-386 268.5q-252 0 -409.5 176t-157.5 457zM258 674q0 -262 127 -428t328 -166q195 0 317.5 148t122.5 384q0 263 -130 428.5t-337 165.5q-190 0 -309 -148t-119 -384z" />
<glyph unicode="R" horiz-adv-x="1251" d="M117 -8l18 92q96 11 126 42t30 120l2 860q0 66 -15.5 88.5t-60.5 22.5l-70 -5l-4 9l15 90q149 -6 227 -6l252 8q191 0 301.5 -86.5t110.5 -235.5q0 -123 -79 -225.5t-222 -167.5l225 -356q60 -97 115.5 -135.5t138.5 -38.5l8 -9l-12 -69l-174 -23q-51 0 -109.5 52.5 t-108.5 142.5l-219 397h-170l-6 -305q0 -111 25 -139.5t123 -28.5l4 -8l-19 -86q0 1 -217 6h-38h-66q-59 -2 -95 -4zM446 674l211 -21q9 2 24 7.5t53.5 29t67.5 54t53 86.5t24 124q0 271 -375 271q-21 0 -28 -9.5t-9 -37.5q-19 -338 -21 -504z" />
<glyph unicode="S" horiz-adv-x="1085" d="M117 66q24 157 24 356l92 10q0 -92 7 -150.5t23 -101.5t48 -64t76 -30.5t113 -9.5q128 0 206 61t78 164q0 37 -16.5 71t-42.5 60t-66.5 53.5t-78.5 48.5t-89 47l-6 3t-5.5 3t-6.5 3q-62 33 -99 54t-87.5 57.5t-78.5 69t-48.5 79.5t-20.5 98q0 161 136 271t335 110 q81 0 159.5 -12.5t116.5 -25.5l38 -13l6 -12q-33 -158 -45 -346l-80 -9l-12 11q6 43 6 106q0 107 -53 149t-191 42q-112 0 -185 -56t-73 -141q0 -44 21 -82.5t66 -73.5t84.5 -59t106.5 -59q162 -84 220 -124q156 -115 159 -249q0 -175 -141.5 -287.5t-363.5 -112.5 q-86 0 -166.5 17.5t-118.5 35.5l-37 17z" />
<glyph unicode="T" horiz-adv-x="1118" d="M18 958q25 181 31 355l19 16l170 -23h634l175 23l18 -16q3 -77 10.5 -163.5t14.5 -134.5l6 -48l-97 -9q-7 44 -11 67.5t-12.5 53t-13 43.5t-18 32t-22 25t-31.5 16.5t-40 12.5t-52.5 7.5t-64.5 6t-81 3.5q-12 -123 -22 -435t-10 -561q0 -75 26.5 -107t89.5 -32 q32 0 60.5 1.5t40.5 2.5l12 2l6 -8l-18 -94q-205 6 -301 6l-281 -8l16 88q52 4 81.5 8.5t55.5 16.5t37 25.5t19.5 44t10 64t1.5 93.5v893q-72 -3 -107 -4.5t-79.5 -8.5t-61 -11t-40.5 -21t-30 -29t-17.5 -45t-15 -59t-11.5 -80z" />
<glyph unicode="U" horiz-adv-x="1394" d="M72 1221l14 90q153 -6 231 -6q39 0 93 4.5t88 8.5l34 5l-8 -92q-76 -10 -102 -34t-29 -83l-16 -602q0 -203 88 -311.5t254 -108.5q167 0 255.5 88.5t88.5 257.5l-12 668q-5 71 -18.5 91t-57.5 20l-88 -5l-4 9l14 90q153 -6 231 -6q39 0 89 4.5t80 8.5l30 5l-8 -92 q-90 -12 -115.5 -33t-25.5 -84v-688q0 -215 -133 -333t-375 -118q-215 0 -332 118t-117 335v678q0 66 -15 88.5t-61 22.5l-69 -5z" />
<glyph unicode="V" horiz-adv-x="1249" d="M-18 1223l14 88q167 -6 237 -6q48 0 125 5.5t130 11.5l53 5l6 -14l-8 -80q-109 -8 -146 -25t-37 -61q0 -29 64.5 -266t129.5 -459l64 -223h19q340 879 340 942q0 43 -33.5 62.5t-108.5 19.5h-106l-4 8l12 88q158 -14 293 -14l225 6l-16 -97q-63 -3 -88 -21t-47 -77 l-441 -1106l-131 -45q-182 599 -354 1133q-19 59 -64 87t-124 29z" />
<glyph unicode="W" horiz-adv-x="1908" d="M-14 1223l12 88q163 -6 231 -6q64 0 138.5 5.5t116.5 11.5l42 5l6 -14l-8 -80q-105 -8 -140.5 -24.5t-35.5 -59.5q0 -36 63 -273.5t126 -457.5l63 -219h12l289 786l-37 113q-20 60 -63.5 86.5t-120.5 29.5l-4 9l14 88q164 -6 232 -6q55 0 129 5.5t121 11.5l47 5l6 -14 l-8 -80q-106 -8 -142.5 -25t-36.5 -61q0 -30 63.5 -267t126.5 -459l64 -222h13q331 896 331 952q0 38 -32.5 55t-106.5 17h-102l-4 8l14 88q154 -14 285 -14l217 6l-15 -97q-61 -3 -85.5 -21t-45.5 -77l-430 -1106l-127 -45q-117 421 -256 869h-12l-291 -824l-131 -45 q-170 602 -342 1133q-19 59 -63.5 87t-120.5 29q0 1 -1 4.5t-1 4.5z" />
<glyph unicode="X" horiz-adv-x="1343" d="M25 6l14 84q84 24 155.5 89t176.5 194l225 278l-268 402q-100 147 -281 170l-4 8l12 80q201 -6 295 -6q72 0 141 4t103 8l33 4l6 -14l-6 -72q-85 -6 -122.5 -23t-37.5 -51q0 -37 231 -389q16 22 102 134.5t126.5 174.5t40.5 88q0 28 -27.5 42t-91.5 20l-4 8l12 80 q149 -14 225 -14l199 8l8 -15l-12 -75q-61 -12 -104.5 -37.5t-77 -60.5t-97.5 -115l-247 -314l299 -436q57 -81 121 -121t159 -49l4 -8l-14 -88q-160 6 -254 6q-51 0 -130.5 -4t-132.5 -8l-54 -4l-7 14l9 80q84 5 121.5 21t37.5 51q0 31 -41 90l-223 335l-188 -249 q-63 -83 -84 -119t-21 -64t28.5 -42t90.5 -19l4 -8l-14 -88q-149 14 -225 14l-203 -8z" />
<glyph unicode="Y" horiz-adv-x="1101" d="M-39 1231l12 80q132 -6 226 -6q51 0 123.5 4t119.5 8l47 4l7 -14l-7 -72q-91 -7 -123 -22.5t-32 -51.5q0 -26 57 -158t113.5 -251t58.5 -119h10l234 434q33 61 33 102q0 53 -129 62l-4 8l12 80q151 -14 227 -14q36 0 83 2t77 4l29 2l8 -15l-13 -75q-93 -18 -132.5 -57 t-113.5 -171q-14 -25 -22 -39l-205 -360q-28 -48 -34.5 -105t-9.5 -217q0 -10 -0.5 -15t-0.5 -14v-16v-14q0 -68 18 -95q19 -30 72 -30l101 6l4 -8l-19 -94q-170 6 -260 6q-45 0 -103.5 -6t-94.5 -12l-35 -7l12 95q56 11 87 24.5t48 41t21 60t4 95.5v90q0 63 -12 111.5 t-47 119.5l-185 375q-60 123 -79 150q-40 57 -108 75q-29 7 -71 11z" />
<glyph unicode="Z" horiz-adv-x="1163" d="M70 59l764 1155l-355 -12q-141 -6 -200 -66.5t-76 -215.5l-97 -9q33 212 37 400l21 18l358 -22l529 -15l22 -59q-385 -512 -790 -1151l415 14q106 2 171.5 84t99.5 256l96 10q-41 -222 -51 -419l-31 -33l-741 12l-144 -12z" />
<glyph unicode="[" horiz-adv-x="632" d="M197 -258q22 565 22 770q0 91 -5.5 285t-11.5 343l-5 148l376 23l9 -13l-13 -63l-233 -49v-1342l237 -49l9 -14l-13 -62z" />
<glyph unicode="\" horiz-adv-x="673" d="M76 1362l16 20h94l236 -919q36 -138 83 -306t76 -267l29 -99l-14 -16h-98q-86 328 -172 665z" />
<glyph unicode="]" horiz-adv-x="632" d="M51 -268l12 63l234 49v1342l-238 49l-8 14l12 62l373 -23q-22 -565 -22 -770q0 -91 5.5 -285t10.5 -343l6 -148l-377 -23z" />
<glyph unicode="^" d="M115 154q86 225 166 411l176 416l96 4l22 -16q107 -256 173 -406q32 -75 75.5 -171t70.5 -155l28 -59l-82 -61l-23 2q-88 202 -162 370l-143 345h-12l-123 -316q-31 -75 -68.5 -174t-59.5 -161l-22 -62l-102 14z" />
<glyph unicode="_" horiz-adv-x="937" d="M-12 -276l22 100q308 -2 490 -2q145 0 280 6q158 4 158 6l12 -20l-16 -105q-195 0 -559.5 -2t-374.5 -2z" />
<glyph unicode="`" horiz-adv-x="815" d="M145 1374l78 84l21 4q160 -192 307 -352l-41 -39l-18 -4q-76 69 -162.5 140.5t-134.5 108.5l-48 36z" />
<glyph unicode="a" d="M-4 -4l12 84q45 6 72 31.5t53 87.5l322 813l145 26l14 -2q143 -517 260 -846q20 -59 52.5 -82.5t101.5 -29.5l4 -8l-10 -74q-125 4 -186 4q-59 0 -123.5 -3.5t-99.5 -6.5l-35 -4l-7 10l7 74q86 6 115.5 18t29.5 41q0 32 -14 70l-50 157q-41 2 -170 2q-59 0 -176 -12 l-57 -151q-14 -47 -14 -58q0 -33 22 -47t74 -14h88l6 -8l-12 -78q-125 10 -236 10zM346 442h139q62 0 150 9l-125 397h-14z" />
<glyph unicode="b" horiz-adv-x="1060" d="M111 -18l10 84q76 13 102.5 41t26.5 94l2 655q0 50 -12 67t-47 17l-58 -2l-6 8l12 78q138 -4 199 -4l213 8q163 0 250.5 -64t87.5 -182q0 -83 -52.5 -147t-138.5 -98q113 -23 183.5 -85.5t70.5 -154.5q0 -131 -118.5 -222t-286.5 -91q-31 1 -110 8.5t-124 7.5 q-38 0 -89 -4.5t-83 -9.5zM395 188q0 -57 41.5 -80.5t141.5 -23.5q96 0 150 49t54 135q0 80 -53.5 131t-157.5 70l-170 -2zM406 569q149 -12 176 -12q6 1 16 4.5t35 18t44.5 34.5t35.5 56.5t16 81.5q0 95 -68 140.5t-212 45.5q-17 0 -22 -7t-7 -28q-10 -129 -14 -334z" />
<glyph unicode="c" horiz-adv-x="1097" d="M84 477q0 247 165 404t423 157q62 0 136.5 -10t118.5 -20l44 -9l8 -12q-33 -122 -43 -278l-102 -7q4 41 4 80q0 144 -230 144q-160 0 -252 -105.5t-92 -290.5q0 -205 97 -325.5t262 -120.5q108 0 172.5 58.5t93.5 183.5l102 8q-33 -152 -43 -273l-12 -16 q-17 -7 -47 -17.5t-121.5 -28t-181.5 -17.5q-231 0 -366.5 133.5t-135.5 361.5z" />
<glyph unicode="d" horiz-adv-x="1220" d="M113 -18l10 86q74 12 100.5 40.5t26.5 94.5l2 651q0 51 -12 68.5t-47 17.5l-58 -4l-4 10l12 78q122 -4 185 -4l258 6q249 0 400 -130.5t151 -346.5q0 -120 -45 -225t-122 -180t-185 -118.5t-230 -43.5q-156 18 -244 18q-38 0 -87.5 -4.5t-79.5 -9.5zM395 217 q0 -82 39 -109.5t156 -27.5q172 0 269 113t97 315q0 207 -122.5 314.5t-356.5 107.5q-33 0 -44 -7.5t-13 -29.5q-25 -600 -25 -676z" />
<glyph unicode="e" horiz-adv-x="1040" d="M111 -16l10 86q75 9 102 37.5t27 97.5l2 649q0 52 -12.5 69t-49.5 17l-55 -2l-4 8l12 78q146 -4 252 -4q343 0 506 18l6 -10q-29 -127 -39 -274l-98 -9q4 45 4 68q0 27 -2 43t-12 30t-24 20t-44.5 11t-66.5 6t-97 1q-76 0 -92 -9t-18 -51l-12 -291q16 0 78.5 -1t88.5 -1 t77 4.5t88 8.5l38 4l8 -10l-24 -107q-142 4 -230 4q-56 0 -129 -10q-6 -156 -6 -281q0 -65 19.5 -80.5t105.5 -15.5q68 0 109 2t76.5 10t53.5 19.5t33.5 35.5t22.5 51.5t14 74.5l91 8l8 -10q-31 -136 -45 -279l-13 -10q-340 10 -512 10q-59 0 -121 -4t-94 -8z" />
<glyph unicode="f" horiz-adv-x="913" d="M111 -18l10 84q77 14 103 42t26 97l2 649q0 52 -12.5 69t-49.5 17l-55 -2l-4 8l12 78q146 -4 252 -4q318 0 471 18l8 -10q-28 -131 -38 -278l-99 -7q4 50 4 70q0 40 -5.5 59.5t-29.5 32.5t-62.5 16t-115.5 3q-76 0 -92 -9t-18 -51l-15 -317l170 -2q23 0 67 4t77 8l33 4 l8 -10l-23 -109q-127 4 -205 4q-56 0 -129 -10l-6 -241q0 -64 15 -85.5t59 -21.5l115 6l6 -10l-15 -90q-163 6 -253 6q-42 0 -94.5 -4.5t-84.5 -9.5z" />
<glyph unicode="g" horiz-adv-x="1159" d="M84 477q0 255 162 408t430 153q63 0 145 -10t133 -20l50 -9l8 -12q-35 -122 -43 -274l-101 -8q4 43 4 86q0 72 -55 103.5t-180 31.5q-182 0 -279.5 -102t-97.5 -294q0 -206 96.5 -326t259.5 -120q56 0 109.5 13t78.5 27l25 13v180q0 52 -17 68t-71 16h-108l-4 9l16 90 q2 0 36.5 -1t86.5 -2t94 -1q34 0 72 2t59 4l21 2l8 -45q-33 -24 -44 -75t-11 -177q0 -91 10 -139l-10 -17q-19 -8 -53 -19.5t-136 -30.5t-200 -19q-226 0 -360 133.5t-134 361.5z" />
<glyph unicode="h" horiz-adv-x="1308" d="M111 -18l10 84q76 13 102.5 41t26.5 96l2 651q0 52 -12.5 69t-49.5 17l-55 -2l-6 8l12 78q125 -4 191 -4q34 0 83.5 3.5t82.5 6.5l32 4l-8 -84q-69 -10 -86 -32.5t-22 -102.5l-11 -248l267 -2q100 0 235 15l2 274q0 52 -12 69t-49 17l-58 -2l-4 8l13 78q0 -4 176 -4 q36 0 89 3.5t88 6.5l36 4l-6 -84q-63 -7 -84 -25.5t-23 -64.5q-22 -398 -22 -670q0 -65 14 -86.5t57 -21.5l72 4l6 -8l-16 -82q-133 4 -215 4l-205 -2l16 82q76 0 100.5 31.5t24.5 130.5v229q-163 2 -235 2l-269 -16l-6 -267q0 -66 14.5 -88t57.5 -22l72 6l4 -8l-15 -82 q-98 4 -159 4q-76 0 -165.5 -6t-92.5 -12z" />
<glyph unicode="i" horiz-adv-x="653" d="M109 -18l10 84q78 13 104.5 41t26.5 96l2 651q0 51 -12.5 68.5t-49.5 17.5l-67 -2l-4 8l10 78q3 0 41 -1t87 -2t81 -1q34 0 85 3.5t85 6.5l35 4l-8 -84q-68 -7 -91 -25.5t-26 -64.5q-23 -420 -23 -670q0 -66 14.5 -88t57.5 -22l84 6l4 -8l-14 -82q-150 4 -228 4 q-39 0 -90 -4.5t-83 -9.5z" />
<glyph unicode="j" horiz-adv-x="598" d="M55 -178l4 14q69 42 105 86t51.5 105t15.5 161l2 666q0 52 -12 68t-49 16l-76 -4l-6 8l12 78h189q37 0 90 3.5t87 6.5l34 4l-8 -84q-59 -9 -75.5 -25t-19.5 -65q-20 -477 -20 -682q-1 -161 -70.5 -259.5t-220.5 -154.5z" />
<glyph unicode="k" horiz-adv-x="1112" d="M111 -2l16 82q77 8 100 31t23 92l2 651q0 52 -12.5 69t-49.5 17l-55 -2l-6 8l12 78q138 -4 197 -4q32 0 80 3.5t80 6.5l32 4l-6 -84q-63 -10 -85.5 -30t-24.5 -64l-19 -666v-20q1 -50 13 -68q16 -22 59 -22l72 6l4 -8l-15 -82q-141 4 -215 4zM440 504l2 26l287 285 q49 46 49 80q0 43 -100 49l-4 8l12 78q128 -10 191 -10l165 6l9 -12l-13 -74q-45 -12 -84 -41.5t-116 -107.5l-246 -244l266 -340q59 -74 105 -105t104 -32l8 -11l-10 -63q-134 -19 -154 -19q-91 0 -188 136z" />
<glyph unicode="l" horiz-adv-x="905" d="M125 -16l12 86q65 9 89 37.5t24 97.5l2 649q0 52 -12.5 69t-49.5 17l-55 -2l-6 8l12 78q3 0 39 -1t83 -2t77 -1q32 0 82 3.5t84 6.5l33 4l-9 -86q-74 -9 -90.5 -29t-21.5 -88q-1 -4 -1 -6.5t-0.5 -6.5t-0.5 -7q-21 -289 -21 -608q0 -74 23.5 -94.5t109.5 -20.5 q59 0 95 5.5t64.5 18.5t45.5 41.5t28.5 66.5t22.5 102l90 10l7 -13q-29 -153 -47 -321l-11 -12q-288 14 -456 14q-58 0 -118.5 -4t-92.5 -8z" />
<glyph unicode="m" horiz-adv-x="1464" d="M92 -12l8 84q53 6 76.5 32t30.5 89q14 113 43 377.5t29 295.5q0 41 -32.5 60t-109.5 24l-6 11l14 67q136 -8 191 -8l133 6q61 -191 127 -378t102 -278l35 -91h10q126 320 273 743q13 1 31 0.5t52.5 -1.5t51.5 -1l178 10l4 -6l-10 -72q-72 -7 -100.5 -27t-28.5 -61 q0 -40 15 -257.5t28 -375.5q11 -91 26.5 -120t55.5 -29l47 2l4 -6l-14 -82q-101 4 -164 4q-19 0 -45.5 -1t-51 -3t-46 -4t-35.5 -3t-15 -1l9 84q52 6 75 24.5t23 55.5q0 25 -13 185.5t-25 308.5l-13 147h-11q-144 -367 -307 -809l-59 -13q-222 602 -309 822h-11 q-51 -621 -51 -662q0 -26 12.5 -37.5t40.5 -11.5h66l4 -6l-14 -82q-117 6 -174 6q-29 0 -66.5 -3t-60.5 -6z" />
<glyph unicode="n" horiz-adv-x="1257" d="M104 958l15 70q100 -8 155 -8l125 6q117 -173 251.5 -359.5t209.5 -286.5l76 -101h10l-2 591q0 68 -55 68h-62l-4 8l15 80q113 -6 174 -6q32 0 75.5 3t70.5 6l28 3l-8 -84q-59 -8 -85.5 -31.5t-27.5 -70.5l-25 -881l-79 -22q-138 203 -286 409.5t-227 311.5l-79 104h-11 l-6 -621q0 -38 12 -52.5t42 -14.5l81 2l7 -6l-17 -82q-114 6 -186 6q-33 0 -75.5 -3t-68.5 -6l-26 -3l10 84q52 6 76.5 29t25.5 71l23 676q0 51 -29.5 71t-113.5 29z" />
<glyph unicode="o" horiz-adv-x="1198" d="M84 477q0 242 158 401.5t395 159.5q215 0 346 -135t131 -358q0 -160 -73 -289t-201 -201.5t-285 -72.5q-212 0 -341.5 136t-129.5 359zM258 532q0 -205 95 -328.5t251 -123.5q150 0 242 107.5t92 285.5q0 205 -98 328t-258 123q-147 0 -235.5 -107t-88.5 -285z" />
<glyph unicode="p" horiz-adv-x="980" d="M119 -12l12 84q71 12 95 38t24 93l2 651q0 51 -12.5 68.5t-46.5 17.5l-58 -2l-6 8l12 78q3 0 37.5 -1t80.5 -2t75 -1l223 6q184 0 277.5 -78t93.5 -213q0 -138 -118.5 -246t-270.5 -108h-142l-2 -143q0 -103 12.5 -129.5t61.5 -26.5l88 4l4 -8l-16 -82q-111 4 -168 4 q-67 0 -161.5 -4.5t-96.5 -7.5zM401 492l170 -23q191 30 191 238q0 116 -72 169.5t-227 53.5q-29 0 -35.5 -3.5t-7.5 -21.5q-17 -283 -19 -413z" />
<glyph unicode="q" horiz-adv-x="1208" d="M84 477q0 242 158 401.5t395 159.5q215 0 346 -135t131 -358q0 -193 -109 -339t-284 -198v-10q169 -107 285.5 -154t214.5 -47q35 0 69 4.5t51 8.5l17 4l8 -9l12 -41q-139 -116 -176 -116q-118 0 -235.5 60.5t-411.5 273.5q-212 0 -341.5 136t-129.5 359zM258 532 q0 -205 95 -328.5t251 -123.5q150 0 242 107.5t92 285.5q0 205 -98 328t-258 123q-147 0 -235.5 -107t-88.5 -285z" />
<glyph unicode="r" horiz-adv-x="1083" d="M111 -8l14 84q76 9 100.5 33.5t24.5 93.5l2 653q0 50 -12.5 67t-46.5 17l-58 -2l-6 8l12 78q130 -4 193 -4l219 6q166 0 260 -68.5t94 -189.5q0 -95 -62.5 -174.5t-178.5 -130.5l174 -262q50 -75 94.5 -105t107.5 -30l9 -11l-11 -63l-157 -17q-45 0 -92.5 40t-85.5 110 l-173 301h-133l-4 -219q0 -85 20 -106.5t101 -22.5l4 -6l-16 -78q0 4 -189 4h-34h-57q-51 -2 -82 -4zM403 532l166 -16q47 19 66 31q106 67 106 192q0 199 -292 199q-17 0 -23 -7.5t-6 -29.5q-17 -265 -17 -369z" />
<glyph unicode="s" horiz-adv-x="940" d="M109 55q22 130 22 277l92 8q0 -83 8.5 -131t33 -78.5t63 -40.5t104.5 -10q99 0 159 43t60 115q0 27 -14 52.5t-32 43.5t-53.5 40t-60.5 34.5t-71 34.5q-7 3 -11.5 5.5t-9.5 4.5q-63 31 -101.5 53.5t-83 57.5t-66 77.5t-21.5 93.5q0 130 114.5 216.5t286.5 86.5 q68 0 134.5 -10t98.5 -20l32 -9l8 -14q-29 -125 -39 -270l-80 -8l-12 8q4 30 4 73q0 80 -42 112t-149 32q-86 0 -142 -40t-56 -101q0 -32 17 -60.5t53.5 -54.5t69 -44t87.5 -44q49 -23 63.5 -30t58.5 -30.5t60.5 -36t47 -38t43 -46.5t23.5 -50.5t11 -61.5 q0 -138 -119 -225.5t-309 -87.5q-72 0 -140 14t-100 28l-32 13z" />
<glyph unicode="t" horiz-adv-x="970" d="M35 727q20 156 24 297l17 14l145 -16h522l150 16l16 -14q2 -64 7.5 -136.5t10.5 -113.5l5 -41l-94 -6q-20 126 -48 162q-28 35 -100 43q-27 3 -101 5h-1l-1 1h-1h-1h-1h-1h-1h-1h-1h-1h-1h-1h-1h-1q-10 -98 -18 -327t-8 -421q0 -59 22 -83.5t74 -24.5l90 4l6 -6l-14 -86 q-178 6 -258 6l-244 -8l15 82q42 3 67.5 6.5t46 13t30 19.5t16 33t7.5 47t1 67v678q-141 -5 -177 -15q-51 -15 -72 -65q-15 -36 -28 -125z" />
<glyph unicode="u" horiz-adv-x="1177" d="M74 944l12 80q131 -4 203 -4q32 0 77.5 3t75.5 6l29 3l-8 -82q-59 -7 -80.5 -26t-24.5 -64l-12 -469q0 -145 67.5 -224t194.5 -79q129 0 195.5 64.5t66.5 187.5l-8 514q-3 55 -13.5 70.5t-45.5 15.5l-70 -2l-2 6l12 80q128 -4 191 -4q34 0 77 3t69 6l26 3l-6 -82 q-71 -11 -92 -27t-21 -61v-524q0 -170 -109.5 -263t-310.5 -93q-181 0 -276.5 90t-95.5 260v522q0 52 -12.5 69t-49.5 17l-55 -2z" />
<glyph unicode="v" horiz-adv-x="1075" d="M8 946l12 78q138 -4 199 -4q44 0 109 4t108 8l43 4l6 -12l-6 -74q-90 -6 -117.5 -18t-27.5 -45q0 -24 49 -202.5t98 -345.5l49 -167h19q70 168 166 424t96 289q0 32 -25 45.5t-84 13.5h-81l-5 8l11 78q130 -10 241 -10l189 4l-15 -84q-48 -3 -67.5 -18t-38.5 -62 l-346 -852l-152 -35q-149 495 -278 873q-29 88 -148 94z" />
<glyph unicode="w" horiz-adv-x="1624" d="M10 946l13 78q133 -4 192 -4q55 0 118 4t99 8l35 4l6 -12l-8 -74q-86 -6 -112.5 -18t-26.5 -45q0 -27 48 -206t96 -344l48 -165h12q41 101 123.5 325t102.5 277q-10 28 -27 80q-15 45 -48.5 64t-96.5 22l-4 6l12 78q140 -4 201 -4q47 0 109.5 4t101.5 8l38 4l7 -12 l-7 -74q-87 -6 -114 -18t-27 -45q0 -24 48.5 -203t96.5 -346l48 -166h14q64 158 159 422.5t95 296.5q0 29 -24 41t-83 12h-77l-4 8l12 78q129 -10 233 -10l183 4l-13 -84q-46 -3 -65.5 -18t-36.5 -62l-338 -852l-145 -35q-2 14 -28 103t-72.5 241t-94.5 299h-10l-224 -608 l-147 -35q-141 495 -270 873q-15 46 -49.5 68.5t-94.5 25.5q0 2 -4 6z" />
<glyph unicode="x" horiz-adv-x="1159" d="M41 6l10 76q65 19 125 70t141 147l181 215l-211 295q-42 60 -96 91t-130 42l-4 8l11 74q157 -4 247 -4q56 0 115 3t90 6l31 3l4 -12l-6 -68q-123 -6 -123 -53q0 -20 42.5 -85t137.5 -200q17 22 48.5 61.5t56 70t49.5 64.5t39 58.5t14 36.5q0 20 -22 30t-72 15l-4 6l10 74 q3 0 38 -2.5t81.5 -5t75.5 -2.5l170 6l6 -12l-11 -70q-73 -18 -114.5 -50.5t-112.5 -117.5l-196 -241l233 -320q47 -64 99.5 -95.5t127.5 -37.5l4 -6l-12 -80q-135 4 -211 4q-41 0 -108.5 -3t-114.5 -6l-47 -3l-6 12l6 72q64 3 93.5 15t29.5 38q0 17 -33 65l-174 244 l-143 -180q-46 -58 -62 -84t-16 -47q0 -41 92 -47l6 -8l-12 -78q-132 10 -193 10l-174 -6z" />
<glyph unicode="y" horiz-adv-x="972" d="M-6 950l12 74q117 -4 193 -4q41 0 102 3t102 6l41 3l7 -12l-7 -68q-70 -4 -95 -15.5t-25 -39.5q0 -33 176 -385h10l176 315q27 49 27 78q0 39 -101 45l-4 6l10 74q3 0 39 -2.5t82.5 -5t75.5 -2.5l160 6l6 -12l-10 -70q-40 -9 -65.5 -20.5t-49 -36.5t-40.5 -50.5 t-50 -79.5q-8 -13 -12 -20l-166 -282q-23 -40 -28 -87.5t-7 -179.5v-7q0 -54 15 -76q17 -23 61 -23l82 4l4 -6l-17 -86q-151 6 -229 6q-38 0 -90.5 -4.5t-85.5 -9.5l-33 -4l12 84q47 8 73 17.5t40.5 30t18.5 45.5t4 72v64q0 46 -10 83.5t-40 92.5l-153 295 q-25 47 -34.5 64.5t-28.5 44t-36 35.5t-43.5 18.5t-64.5 13.5z" />
<glyph unicode="z" horiz-adv-x="1003" d="M74 51l616 883l-270 -10q-114 -6 -160.5 -51t-58.5 -162l-95 -9q27 175 29 322l19 16l295 -18l446 -10l23 -51q-202 -254 -375.5 -499.5t-261.5 -381.5l319 14q87 3 138.5 65t76.5 193l96 10q-35 -185 -43 -339l-26 -27l-621 8l-121 -10z" />
<glyph unicode="{" horiz-adv-x="632" d="M94 506l8 43q83 23 137 66t54 104q0 44 -42 176.5t-42 196.5q0 100 68.5 168.5t189.5 68.5q24 0 53 -3t46 -6l18 -3l6 -10l-17 -62q-59 10 -94 10q-63 0 -94 -40t-31 -101q0 -45 28 -179.5t28 -186.5q0 -85 -43.5 -134.5t-106.5 -70.5v-13q150 -56 150 -215 q0 -56 -28 -192.5t-28 -181.5q0 -61 31 -100.5t96 -39.5q18 0 44 3.5t43 6.5l16 3l6 -13l-17 -57q-49 -16 -110 -16q-117 0 -185.5 68.5t-68.5 168.5q0 65 42 194.5t42 166.5q0 135 -199 180z" />
<glyph unicode="|" horiz-adv-x="761" d="M311 -539q0 738 2 1104l2 1065l123 23l23 -13q-12 -705 -12 -1044l2 -1124l-121 -23z" />
<glyph unicode="}" horiz-adv-x="632" d="M43 -250l16 62q60 -11 95 -11q63 0 94 40.5t31 101.5q0 45 -28 179.5t-28 186.5q0 85 43.5 134.5t106.5 70.5v12q-150 56 -150 215q0 56 28 193t28 182q0 61 -31 100t-96 39q-18 0 -44 -3t-42 -6l-17 -3l-6 12l16 58q50 16 111 16q117 0 185.5 -68.5t68.5 -168.5 q0 -65 -42 -194.5t-42 -166.5q0 -135 199 -180l-9 -43q-82 -23 -136 -66t-54 -104q0 -44 42 -176.5t42 -196.5q0 -100 -68.5 -168.5t-189.5 -68.5q-24 0 -53 3t-47 6l-17 3z" />
<glyph unicode="~" d="M88 457v10l156 182l32 8q58 0 252.5 -44t239.5 -44q22 0 54 28.5t54 56.5l21 28h12l45 -43v-10l-155 -183l-33 -8q-58 0 -252.5 44t-239.5 44q-22 0 -54 -28t-54 -56l-21 -28h-12z" />
<glyph unicode="&#xa1;" horiz-adv-x="583" d="M180 -473l107 971l57 14l23 -16l16 -934l-14 -21l-170 -37zM215 823q0 54 35.5 90.5t93.5 36.5q55 0 85 -34t30 -82q0 -54 -35 -90.5t-92 -36.5q-55 0 -86 33t-31 83z" />
<glyph unicode="&#xa2;" horiz-adv-x="868" d="M74 428q0 205 119.5 351.5t302.5 166.5l36 393l54 9l12 -19l-37 -379q56 -2 112 -11.5t85 -18.5l28 -9l7 -14q-37 -123 -43 -283l-84 -6v64q0 61 -31 103t-84 56l-70 -716q12 -2 35 -2q51 0 109 16.5t91 33.5l32 17l12 -4l22 -63q-7 -6 -20 -15t-49.5 -33t-69.5 -42 t-73 -33t-68 -15q-23 0 -33 2l-27 -286l-53 -6l-10 14l27 287q-154 28 -243 145.5t-89 296.5zM238 498q0 -141 47.5 -237t132.5 -130l67 709q-120 -4 -183.5 -93t-63.5 -249z" />
<glyph unicode="&#xa3;" horiz-adv-x="1075" d="M78 84q213 142 213 334v98q-3 47 -28 63.5t-101 20.5l-8 12l14 70l123 23v34q0 220 109.5 353t289.5 133q140 0 211 -31l10 -23l-47 -129l-39 -6q-127 68 -211 68q-177 0 -186 -254l-6 -160l330 6l6 -6l-21 -108q-161 6 -319 6l-4 -162q-9 -165 -131 -266l112 22 q62 0 183 -22.5t170 -22.5q138 0 153 154l37 -4q27 -65 27 -119q0 -83 -45 -138t-111 -55q-70 0 -250.5 46.5t-263.5 46.5q-90 0 -172 -62l-14 8z" />
<glyph unicode="&#xa4;" horiz-adv-x="909" d="M61 1051l5 24l79 53q66 -69 138 -141q74 49 166 49q91 0 165 -49l140 154l26 -6l56 -82l-144 -142q58 -77 58 -176q0 -86 -48 -160l146 -135l-6 -22l-82 -62l-135 136q-78 -56 -176 -56q-97 0 -175 56l-137 -138l-22 6l-47 80q65 61 133 127q-51 73 -51 168q0 97 55 174z M248 735q0 -83 59 -141.5t142 -58.5q85 0 143.5 58.5t58.5 141.5q0 85 -58.5 144t-143.5 59q-83 0 -142 -59t-59 -144z" />
<glyph unicode="&#xa5;" horiz-adv-x="1124" d="M63 961l15 73q118 -6 198 -6q44 0 106 4t101 7.5t39 2.5l10 -20l-6 -70q-83 -9 -106 -18.5t-23 -30.5q0 -19 25 -74h-2l164 -321l190 326q27 48 27 75q0 31 -109 41q0 2 -1 7.5t-1 7.5l10 75q127 -12 201 -12l164 6l10 -14l-12 -76q-80 -12 -119 -48q-21 -21 -77 -106 q-2 -2 -3 -4l-86 -139l236 4l12 -18l-6 -62h-289l-72 -116q-17 -33 -20 -80l375 8l12 -18l-6 -62h-383q0 -19 -1 -59t-1 -60q0 -58 13 -78t52 -20q6 0 19 1t20 1l56 2l4 -16l-19 -78q-147 4 -225 4q-36 0 -87.5 -5t-84.5 -10l-33 -5l10 88q21 4 37 7t29.5 9.5t23 10 t17.5 14.5t12.5 15.5t8 21.5t5 24t2.5 31.5t1 35v43.5v7.5v7v8.5q-62 0 -185 -1t-184 -1l-10 14l10 60h362q-18 64 -43 108l-49 88q-45 0 -135 -1t-135 -1l-10 15l10 59h229q-18 32 -39.5 75t-33.5 66.5t-29.5 52.5t-33 44.5t-38 30.5t-50.5 21.5t-64 8.5z" />
<glyph unicode="&#xa6;" horiz-adv-x="761" d="M311 340l131 25l7 -7l2 -886l-121 -23l-19 12v879zM313 758q0 146 1 436t1 436l123 23l23 -13q-10 -511 -12 -870l-127 -18z" />
<glyph unicode="&#xa7;" horiz-adv-x="1048" d="M72 717q0 89 63.5 178.5t173.5 155.5q8 115 95 196.5t206 81.5q80 0 141.5 -30t61.5 -70q0 -37 -13.5 -91.5t-25.5 -68.5h-29q-29 70 -87.5 115t-120.5 45q-50 0 -82.5 -36t-32.5 -91q0 -51 30.5 -100t79.5 -89.5t108 -81.5t118.5 -84.5t108.5 -89.5t79.5 -106t30.5 -125 q0 -102 -67.5 -201t-172.5 -153q-5 -100 -106 -193.5t-234 -93.5q-103 0 -171 46.5t-68 117.5q0 46 10 102.5t20 71.5h31q20 -109 86 -175.5t156 -66.5q65 0 111 43t46 105q0 51 -30 99t-78.5 88.5t-106.5 81.5t-116 85.5t-106.5 92t-78.5 110t-30 131.5zM186 784 q0 -46 26.5 -93t69.5 -88t96 -82.5t109 -84.5t104.5 -86.5t86 -96.5t51.5 -106q129 81 129 207q0 43 -26.5 88t-70.5 85.5t-97.5 82t-109.5 85t-104.5 87t-85.5 95t-49 102.5q-69 -41 -99 -87t-30 -108z" />
<glyph unicode="&#xa8;" horiz-adv-x="815" d="M143 1247q0 42 29.5 72.5t73.5 30.5q39 0 61.5 -26t22.5 -62q0 -42 -29.5 -72.5t-73.5 -30.5q-39 0 -61.5 26.5t-22.5 61.5zM483 1247q0 42 29.5 72.5t73.5 30.5q39 0 61.5 -26t22.5 -62q0 -42 -29.5 -72.5t-73.5 -30.5q-39 0 -61.5 26.5t-22.5 61.5z" />
<glyph unicode="&#xa9;" horiz-adv-x="1419" d="M86 600q0 169 83 313t226.5 228t313.5 84q127 0 243 -49.5t199.5 -133.5t132.5 -199.5t49 -242.5t-49 -242.5t-132.5 -199.5t-199.5 -133.5t-243 -49.5q-170 0 -313.5 84t-226.5 228t-83 313zM172 600q0 -147 71.5 -272t195.5 -198t270 -73t270 73t196 198t72 272 t-72 272t-196 198t-270 73t-270 -73t-195.5 -198t-71.5 -272zM387 588q0 156 97.5 258t256.5 102q42 0 91 -6t78 -12l28 -6l4 -9q-21 -80 -27 -184l-67 -4q2 26 2 49q0 90 -131 90q-93 0 -145 -62t-52 -181q0 -130 50.5 -205.5t150.5 -75.5q70 0 108.5 37t53.5 117l65 4 q-22 -100 -26 -178l-9 -15q-92 -39 -221 -39q-101 0 -171.5 44.5t-103 115t-32.5 160.5z" />
<glyph unicode="&#xaa;" horiz-adv-x="657" d="M61 885q0 39 20 68t54 38l250 62l2 41q0 59 -29.5 92t-83.5 33q-36 0 -75 -15.5t-59 -31.5l-21 -15l-10 4l-19 68q168 96 227 96q99 0 151 -47t52 -125q0 -20 -12 -131.5t-12 -147.5q0 -55 49 -55q16 0 34 6.5t27 13.5l10 7l19 -25q-7 -11 -18 -28t-43 -49.5t-60 -41.5 q-116 0 -125 103l-8 2q-102 -98 -145 -98q-74 0 -124.5 50.5t-50.5 125.5zM193 899q0 -35 23 -58.5t58 -23.5q48 0 105 47l4 127l-156 -45q-34 -9 -34 -47z" />
<glyph unicode="&#xab;" horiz-adv-x="874" d="M41 434v31q196 186 352 354l45 -31l2 -20l-219 -305l219 -318l-2 -20l-45 -31q-69 71 -157 156t-142 134zM381 434v31q196 186 352 354l45 -31l2 -20l-219 -305l219 -318l-2 -20l-45 -31q-69 71 -157 156t-142 134z" />
<glyph unicode="&#xac;" d="M37 498l22 100q308 -2 490 -2q73 0 167 3t152 6l58 3l12 -20q-14 -130 -16 -226l2 -278l-101 -23l-18 13q2 229 2 409l-289 -2l-469 -2z" />
<glyph unicode="&#xad;" horiz-adv-x="663" d="M74 446l12 107l356 41l133 18l15 -18l-10 -111l-492 -53z" />
<glyph unicode="&#xae;" horiz-adv-x="958" d="M61 1038q0 173 122.5 295.5t295.5 122.5t295.5 -122.5t122.5 -295.5t-122.5 -295t-295.5 -122t-295.5 122t-122.5 295zM133 1038q0 -142 101.5 -244t244.5 -102t244.5 102t101.5 244t-101.5 244t-244.5 102t-244.5 -102t-101.5 -244zM287 842l4 43q35 3 43 17t8 61v227 q0 22 -5.5 29.5t-19.5 7.5h-22l-4 8l6 35q61 -2 88 -2h23l63 4q77 0 121.5 -29.5t44.5 -83.5q0 -83 -98 -129l59 -88q44 -65 84 -65l6 -9q0 -17 -10.5 -24.5t-23 -8.5t-46.5 -1q-41 0 -76 65l-59 113h-51q-2 -29 -2 -68t7 -48t42 -9l4 -8l-4 -35q-37 2 -66 2h-24zM424 1065 q6 0 16 -1t23 -2.5t20 -2.5q64 26 64 86q0 78 -107 78q-12 0 -12 -17q-4 -94 -4 -141z" />
<glyph unicode="&#xaf;" horiz-adv-x="815" d="M102 1235l21 92q194 -2 315 -2q45 0 111 3t109 6l44 3l13 -20l-15 -96l-290 -2l-295 -2z" />
<glyph unicode="&#xb0;" horiz-adv-x="618" d="M51 1071q0 107 75.5 182.5t182.5 75.5t182.5 -75.5t75.5 -182.5t-75.5 -182.5t-182.5 -75.5t-182.5 75.5t-75.5 182.5zM137 1071q0 -71 50.5 -121.5t121.5 -50.5t121.5 50.5t50.5 121.5t-50.5 121.5t-121.5 50.5t-121.5 -50.5t-50.5 -121.5z" />
<glyph unicode="&#xb1;" d="M37 -135l22 100q308 -2 490 -2q145 0 280 6q158 4 158 6l12 -20l-16 -105q-195 0 -559.5 -2t-374.5 -2zM37 524l22 101q218 -2 396 -2q0 65 1 195t1 196l104 16l21 -12q-13 -231 -13 -395q73 0 177.5 3t172.5 6l68 3l12 -21l-16 -104q-69 0 -207 -1t-207 -1l2 -377 l-100 -22l-18 12q2 211 2 387l-406 -2z" />
<glyph unicode="&#xb2;" horiz-adv-x="673" d="M49 756l141 157q198 242 195 365q0 92 -104 92q-113 0 -189 -127h-14l-21 84q40 70 114.5 117t145.5 47q100 0 161 -48t61 -126t-65.5 -185.5t-229.5 -297.5l6 -11h168q65 0 91.5 23t43.5 94l78 8q-29 -127 -39 -227l-19 -12q-307 10 -426 10l-86 -14z" />
<glyph unicode="&#xb3;" horiz-adv-x="600" d="M63 819l13 15q59 -17 108 -17q84 0 140.5 37.5t56.5 93.5q0 64 -51 93.5t-162 29.5l-10 10l-8 66l86 18q48 24 78 60.5t30 74.5t-24.5 61t-65.5 23q-34 0 -75 -15.5t-73 -41.5h-14l-20 76q29 22 100 55t131 33q80 0 131 -43.5t51 -110.5q0 -52 -38.5 -100.5t-104.5 -79.5 v-10q178 -49 178 -180q0 -61 -53 -123t-137.5 -102t-169.5 -40q-51 0 -73 27t-24 90z" />
<glyph unicode="&#xb4;" horiz-adv-x="815" d="M264 1110q65 71 142 159.5t121 141.5l44 53l21 -4l78 -84l-2 -22q-172 -131 -344 -287l-19 4z" />
<glyph unicode="&#xb6;" horiz-adv-x="1148" d="M86 911q0 83 30.5 156t85.5 127.5t137 86.5t179 32q57 0 150.5 -4t113.5 -4l256 6l-12 -86l-4 -8q-92 4 -125.5 -16t-38.5 -77q-22 -148 -22 -809q0 -108 -8 -184t-31.5 -145.5t-64.5 -111t-108.5 -65.5t-162.5 -24q-115 0 -195 49t-80 143q0 40 23 93.5t55 89.5h31 q0 -135 53.5 -207t143.5 -72q125 0 165.5 84.5t40.5 308.5v910q-2 21 -9 24.5t-46 3.5q-99 0 -150 -81.5t-51 -219.5q0 -146 33 -244.5t109 -201.5v-31q-102 9 -189 41.5t-157.5 89t-111 145.5t-40.5 201z" />
<glyph unicode="&#xb7;" horiz-adv-x="487" d="M123 461q0 54 35 90.5t92 36.5q55 0 86 -33.5t31 -83.5q0 -54 -35.5 -90.5t-93.5 -36.5q-55 0 -85 34.5t-30 82.5z" />
<glyph unicode="&#xb8;" horiz-adv-x="815" d="M203 -403q0 30 51 114h18q1 -56 31.5 -86.5t81.5 -30.5q41 0 69.5 22t28.5 56q0 33 -47.5 71t-126.5 83l68 221h88l-51 -149q6 -4 35.5 -24t41 -28t35 -27.5t33.5 -33t19.5 -33t9.5 -37.5q0 -77 -78.5 -134.5t-167.5 -57.5q-51 0 -95 20.5t-44 53.5z" />
<glyph unicode="&#xb9;" horiz-adv-x="509" d="M55 1380l6 66q122 15 152 20q57 8 96.5 14.5t51.5 8.5l12 2l10 -31q-24 -21 -34.5 -42.5t-14.5 -61.5q-12 -230 -12 -477q0 -50 13 -69t48 -19l66 4l4 -7l-15 -73q-114 4 -180 4q-34 0 -80.5 -3.5t-75.5 -7.5l-30 -3l8 71q63 5 90 27.5t27 77.5v428q0 44 -15.5 57.5 t-52.5 13.5l-68 -6z" />
<glyph unicode="&#xba;" horiz-adv-x="692" d="M57 995q0 143 88.5 236.5t223.5 93.5q121 0 193.5 -79.5t72.5 -213.5q0 -143 -87 -236.5t-222 -93.5q-121 0 -195 81t-74 212zM201 1038q0 -119 41.5 -185.5t113.5 -66.5q63 0 98 50.5t35 142.5q0 119 -41.5 185.5t-113.5 66.5q-63 0 -98 -50.5t-35 -142.5z" />
<glyph unicode="&#xbb;" horiz-adv-x="874" d="M94 145l219 306l-219 317l2 20l45 31q69 -71 157.5 -156t141.5 -135l54 -49v-30q-197 -187 -353 -355l-45 31zM434 145l219 306l-219 317l2 20l45 31q69 -71 157.5 -156t141.5 -135l54 -49v-30q-197 -187 -353 -355l-45 31z" />
<glyph unicode="&#xbc;" horiz-adv-x="1402" d="M55 1208l6 66q122 15 152 20q57 8 96.5 14.5t51.5 8.5l12 2l10 -31q-24 -21 -34.5 -42.5t-14.5 -61.5q-12 -230 -12 -477q0 -50 13 -69.5t48 -19.5l66 5l4 -7l-15 -73q-114 4 -180 4q-34 0 -80.5 -3.5t-75.5 -7.5l-30 -4l8 72q63 5 90 27.5t27 77.5v428q0 44 -15.5 57.5 t-52.5 13.5l-68 -6zM139 -131q269 408 451 694l524 826l80 -39l10 -29q-356 -531 -536 -819q-82 -132 -192 -306t-180 -282l-69 -109l-77 39zM786 219l5 70l352 481l6 2l80 -12v-449h112l11 -14l-13 -90l-110 4l8 -199l-8 -12l-125 -14l-10 12q8 119 8 215zM905 311h197v256 h-12z" />
<glyph unicode="&#xbd;" horiz-adv-x="1460" d="M55 1208l6 66q122 15 152 20q57 8 96.5 14.5t51.5 8.5l12 2l10 -31q-24 -21 -34.5 -42.5t-14.5 -61.5q-12 -230 -12 -477q0 -50 13 -69.5t48 -19.5l66 5l4 -7l-15 -73q-114 4 -180 4q-34 0 -80.5 -3.5t-75.5 -7.5l-30 -4l8 72q63 5 90 27.5t27 77.5v428q0 44 -15.5 57.5 t-52.5 13.5l-68 -6zM139 -131q269 408 451 694l524 826l80 -39l10 -29q-356 -531 -536 -819q-82 -132 -192 -306t-180 -282l-69 -109l-77 39zM836 37l141 158q197 241 194 364q0 92 -104 92q-112 0 -188 -127h-15l-20 84q40 70 114.5 117t145.5 47q100 0 160.5 -48 t60.5 -126t-65.5 -185.5t-229.5 -297.5l6 -11h168q65 0 91.5 23t43.5 94l78 8q-29 -127 -39 -227l-18 -12q-307 10 -426 10l-86 -14z" />
<glyph unicode="&#xbe;" horiz-adv-x="1411" d="M63 647l13 15q59 -17 108 -17q84 0 140.5 37.5t56.5 93.5q0 64 -51 93.5t-162 29.5l-10 10l-8 66l86 18q48 24 78 60.5t30 74.5t-24.5 61t-65.5 23q-34 0 -75 -15.5t-73 -41.5h-14l-20 76q29 22 100 55t131 33q80 0 131 -43.5t51 -110.5q0 -52 -38.5 -100.5t-104.5 -79.5 v-10q178 -49 178 -180q0 -61 -53 -123t-137.5 -102t-169.5 -40q-51 0 -73 27t-24 90zM147 -131q269 408 451 694l524 826l80 -39l10 -29q-356 -531 -536 -819q-82 -132 -192 -306.5t-179 -282.5l-69 -108l-78 39zM795 219l4 70l352 481l6 2l80 -12v-449h113l10 -14l-12 -90 l-111 4l8 -199l-8 -12l-125 -14l-10 12q8 119 8 215zM913 311h197v256h-12z" />
<glyph unicode="&#xbf;" horiz-adv-x="737" d="M63 -158q0 55 15.5 103t37 80.5t60.5 67.5t69 55t80.5 53t77.5 53l7 18l-43 195l6 16l125 35l18 -8l49 -246l-6 -28l-244 -156q-116 -79 -116 -176q0 -120 110.5 -184.5t304.5 -75.5l4 -23l-67 -108l-29 -9q-191 6 -325 103t-134 235zM315 823q0 54 35.5 90.5t93.5 36.5 q55 0 85 -34t30 -82q0 -54 -35 -90.5t-92 -36.5q-55 0 -86 33t-31 83z" />
<glyph unicode="&#xc0;" horiz-adv-x="1183" d="M-37 -6l17 96q58 6 92 39.5t67 118.5l400 1046l129 35h16q172 -638 326 -1098q25 -77 66 -107.5t130 -37.5l4 -8l-14 -84q-147 6 -217 6t-146.5 -5t-117.5 -10l-41 -5l-6 14l8 80q105 7 143.5 24t38.5 54q0 40 -18 98l-68 223q-49 2 -213 2q-98 0 -223 -16l-76 -213 q-18 -55 -18 -80q0 -44 29 -64t94 -20h116l4 -8l-12 -88q-150 14 -285 14zM291 1612l33 98l18 12q215 -123 408 -223l-13 -49l-16 -10q-96 36 -201.5 74t-163.5 58l-57 19zM373 559h180q73 0 190 10l-161 537h-15z" />
<glyph unicode="&#xc1;" horiz-adv-x="1183" d="M-37 -6l17 96q58 6 92 39.5t67 118.5l400 1046l129 35h16q172 -638 326 -1098q25 -77 66 -107.5t130 -37.5l4 -8l-14 -84q-147 6 -217 6t-146.5 -5t-117.5 -10l-41 -5l-6 14l8 80q105 7 143.5 24t38.5 54q0 40 -18 98l-68 223q-49 2 -213 2q-98 0 -223 -16l-76 -213 q-18 -55 -18 -80q0 -44 29 -64t94 -20h116l4 -8l-12 -88q-150 14 -285 14zM373 559h180q73 0 190 10l-161 537h-15zM473 1499q86 44 188 100t161 89l59 34l18 -12l33 -98l-8 -21q-207 -69 -422 -151l-17 10z" />
<glyph unicode="&#xc2;" horiz-adv-x="1183" d="M-37 -6l17 96q58 6 92 39.5t67 118.5l400 1046l129 35h16q172 -638 326 -1098q25 -77 66 -107.5t130 -37.5l4 -8l-14 -84q-147 6 -217 6t-146.5 -5t-117.5 -10l-41 -5l-6 14l8 80q105 7 143.5 24t38.5 54q0 40 -18 98l-68 223q-49 2 -213 2q-98 0 -223 -16l-76 -213 q-18 -55 -18 -80q0 -44 29 -64t94 -20h116l4 -8l-12 -88q-150 14 -285 14zM307 1505q59 44 130 101t112 92l41 35h28q150 -128 283 -228l-29 -45l-18 -2q-125 72 -250 133q-115 -54 -250 -133l-18 2zM373 559h180q73 0 190 10l-161 537h-15z" />
<glyph unicode="&#xc3;" horiz-adv-x="1183" d="M-37 -6l17 96q58 6 92 39.5t67 118.5l400 1046l129 35h16q172 -638 326 -1098q25 -77 66 -107.5t130 -37.5l4 -8l-14 -84q-147 6 -217 6t-146.5 -5t-117.5 -10l-41 -5l-6 14l8 80q105 7 143.5 24t38.5 54q0 40 -18 98l-68 223q-49 2 -213 2q-98 0 -223 -16l-76 -213 q-18 -55 -18 -80q0 -44 29 -64t94 -20h116l4 -8l-12 -88q-150 14 -285 14zM270 1475v10l156 162l33 8q35 0 153.5 -34t145.5 -34q21 0 53 23t54 46l22 23h12l45 -43v-10l-156 -162l-32 -8q-35 0 -153.5 34t-145.5 34q-22 0 -54 -23t-53 -46l-22 -23h-13zM373 559h180 q73 0 190 10l-161 537h-15z" />
<glyph unicode="&#xc4;" horiz-adv-x="1183" d="M-37 -6l17 96q58 6 92 39.5t67 118.5l400 1046l129 35h16q172 -638 326 -1098q25 -77 66 -107.5t130 -37.5l4 -8l-14 -84q-147 6 -217 6t-146.5 -5t-117.5 -10l-41 -5l-6 14l8 80q105 7 143.5 24t38.5 54q0 40 -18 98l-68 223q-49 2 -213 2q-98 0 -223 -16l-76 -213 q-18 -55 -18 -80q0 -44 29 -64t94 -20h116l4 -8l-12 -88q-150 14 -285 14zM340 1573q0 42 29 72t73 30q39 0 61.5 -26t22.5 -62q0 -42 -29 -72t-73 -30q-39 0 -61.5 26.5t-22.5 61.5zM373 559h180q73 0 190 10l-161 537h-15zM680 1573q0 42 29 72t73 30q39 0 61.5 -26 t22.5 -62q0 -42 -29 -72t-73 -30q-39 0 -61.5 26.5t-22.5 61.5z" />
<glyph unicode="&#xc5;" horiz-adv-x="1183" d="M-37 -6l17 96q58 6 92 39.5t67 118.5l400 1046l129 35h16q172 -638 326 -1098q25 -77 66 -107.5t130 -37.5l4 -8l-14 -84q-147 6 -217 6t-146.5 -5t-117.5 -10l-41 -5l-6 14l8 80q105 7 143.5 24t38.5 54q0 40 -18 98l-68 223q-49 2 -213 2q-98 0 -223 -16l-76 -213 q-18 -55 -18 -80q0 -44 29 -64t94 -20h116l4 -8l-12 -88q-150 14 -285 14zM373 559h180q73 0 190 10l-161 537h-15zM438 1544q0 75 47.5 123.5t124.5 48.5q79 0 118.5 -45t39.5 -110q0 -74 -47 -127.5t-127 -53.5q-73 0 -114.5 45t-41.5 119zM504 1556q0 -49 32.5 -73.5 t71.5 -24.5q90 0 90 80q0 44 -27 71t-77 27q-44 0 -67 -21.5t-23 -58.5z" />
<glyph unicode="&#xc6;" horiz-adv-x="1658" d="M-20 63q68 72 129 185l505 936q-8 33 -51 33l-69 -5l-5 9l15 90q0 1 37.5 -0.5t120.5 -3.5t167 -2q447 0 611 24l6 -12q-35 -152 -47 -340l-99 -8q5 59 5 88q0 27 -1.5 44.5t-8 34t-15 26t-27 18t-39.5 12t-57.5 6.5t-75 3.5t-98.5 0.5q-95 0 -118.5 -10t-24.5 -53 l63 -467l242 22l188 27l8 -10l-26 -109l-176 -6l-224 -18l58 -347q12 -78 50 -108.5t122 -30.5q80 0 128.5 2.5t90.5 13t63 25t39 45.5t26.5 67t16.5 97l90 10l7 -10q-38 -170 -56 -344l-10 -12q0 -1 -91.5 2.5t-230.5 7.5t-229 4h-69q-70 0 -146 -5t-117 -10l-41 -5l-4 14 l4 80q122 9 160.5 29t38.5 75q0 30 -14 135l-37 252l-203 -16l-186 -21l-146 -282q-32 -60 -32 -94q0 -70 112 -70h117l-10 -96q-152 14 -283 14l-139 -8zM430 635l172 10l150 12l-62 447h-18z" />
<glyph unicode="&#xc7;" horiz-adv-x="1288" d="M82 608q0 205 92 370t255.5 258t367.5 93q76 0 165 -12.5t140 -24.5l51 -12l8 -12q-39 -154 -51 -342l-98 -8q6 55 6 100q0 190 -301 190q-206 0 -328.5 -144t-122.5 -388q0 -270 128.5 -434t340.5 -164q140 0 225 78.5t123 244.5l99 9q-42 -187 -56 -334l-12 -19 q-6 -3 -18 -8t-50.5 -17.5t-79.5 -23t-102.5 -20t-122.5 -11.5l-26 -79q6 -4 35.5 -24t41 -28t35 -27.5t33.5 -33t19.5 -33t9.5 -37.5q0 -77 -78.5 -134.5t-167.5 -57.5q-51 0 -95 20.5t-44 53.5q0 30 51 114h18q1 -56 32 -86.5t81 -30.5q41 0 69.5 22t28.5 56 q0 33 -47.5 71t-126.5 83l45 151q-263 12 -418 181.5t-155 449.5z" />
<glyph unicode="&#xc8;" horiz-adv-x="1210" d="M119 -20l12 94q92 12 126 48t34 124l2 860q0 66 -15 88.5t-61 22.5l-70 -5l-4 9l15 90q161 -6 284 -6q435 0 615 24l6 -12q-35 -152 -47 -340l-98 -8q4 59 4 88q0 37 -2.5 57.5t-15.5 39t-30 26.5t-57 14t-85 7t-124 1q-100 0 -121 -11.5t-22 -68.5l-16 -397q21 0 99 -1 t111 -1t95.5 5.5t108.5 11.5l46 5l9 -10l-29 -121q-176 7 -287 7q-70 0 -158 -15q-8 -295 -8 -391q0 -45 4 -66.5t22.5 -36t47.5 -17.5t88 -3q88 0 140.5 2.5t98 13t68.5 25t42.5 45.5t28 67t17.5 97l90 10l7 -10q-38 -170 -56 -344l-10 -12q-426 14 -621 14q-69 0 -140 -5 t-107 -10zM322 1612l32 98l19 12q214 -123 407 -223l-12 -49l-16 -10q-96 36 -201.5 74t-162.5 58l-58 19z" />
<glyph unicode="&#xc9;" horiz-adv-x="1210" d="M119 -20l12 94q92 12 126 48t34 124l2 860q0 66 -15 88.5t-61 22.5l-70 -5l-4 9l15 90q161 -6 284 -6q435 0 615 24l6 -12q-35 -152 -47 -340l-98 -8q4 59 4 88q0 37 -2.5 57.5t-15.5 39t-30 26.5t-57 14t-85 7t-124 1q-100 0 -121 -11.5t-22 -68.5l-16 -397q21 0 99 -1 t111 -1t95.5 5.5t108.5 11.5l46 5l9 -10l-29 -121q-176 7 -287 7q-70 0 -158 -15q-8 -295 -8 -391q0 -45 4 -66.5t22.5 -36t47.5 -17.5t88 -3q88 0 140.5 2.5t98 13t68.5 25t42.5 45.5t28 67t17.5 97l90 10l7 -10q-38 -170 -56 -344l-10 -12q-426 14 -621 14q-69 0 -140 -5 t-107 -10zM504 1499q86 44 187.5 100t160.5 89l59 34l19 -12l33 -98l-9 -21q-207 -69 -422 -151l-16 10z" />
<glyph unicode="&#xca;" horiz-adv-x="1210" d="M119 -20l12 94q92 12 126 48t34 124l2 860q0 66 -15 88.5t-61 22.5l-70 -5l-4 9l15 90q161 -6 284 -6q435 0 615 24l6 -12q-35 -152 -47 -340l-98 -8q4 59 4 88q0 37 -2.5 57.5t-15.5 39t-30 26.5t-57 14t-85 7t-124 1q-100 0 -121 -11.5t-22 -68.5l-16 -397q21 0 99 -1 t111 -1t95.5 5.5t108.5 11.5l46 5l9 -10l-29 -121q-176 7 -287 7q-70 0 -158 -15q-8 -295 -8 -391q0 -45 4 -66.5t22.5 -36t47.5 -17.5t88 -3q88 0 140.5 2.5t98 13t68.5 25t42.5 45.5t28 67t17.5 97l90 10l7 -10q-38 -170 -56 -344l-10 -12q-426 14 -621 14q-69 0 -140 -5 t-107 -10zM338 1505q59 44 130 101t112 92l41 35h28q150 -128 283 -228l-29 -45l-18 -2q-125 72 -250 133q-115 -54 -250 -133l-18 2z" />
<glyph unicode="&#xcb;" horiz-adv-x="1210" d="M119 -20l12 94q92 12 126 48t34 124l2 860q0 66 -15 88.5t-61 22.5l-70 -5l-4 9l15 90q161 -6 284 -6q435 0 615 24l6 -12q-35 -152 -47 -340l-98 -8q4 59 4 88q0 37 -2.5 57.5t-15.5 39t-30 26.5t-57 14t-85 7t-124 1q-100 0 -121 -11.5t-22 -68.5l-16 -397q21 0 99 -1 t111 -1t95.5 5.5t108.5 11.5l46 5l9 -10l-29 -121q-176 7 -287 7q-70 0 -158 -15q-8 -295 -8 -391q0 -45 4 -66.5t22.5 -36t47.5 -17.5t88 -3q88 0 140.5 2.5t98 13t68.5 25t42.5 45.5t28 67t17.5 97l90 10l7 -10q-38 -170 -56 -344l-10 -12q-426 14 -621 14q-69 0 -140 -5 t-107 -10zM371 1573q0 42 29 72t73 30q39 0 61.5 -26t22.5 -62q0 -42 -29 -72t-73 -30q-39 0 -61.5 26.5t-22.5 61.5zM711 1573q0 42 29 72t73 30q39 0 61.5 -26t22.5 -62q0 -42 -29 -72t-73 -30q-39 0 -61.5 26.5t-22.5 61.5z" />
<glyph unicode="&#xcc;" horiz-adv-x="739" d="M63 1612l33 98l19 12q214 -123 407 -223l-12 -49l-16 -10q-96 36 -201.5 74t-162.5 58l-58 19zM115 -25l12 95q97 19 130.5 54.5t33.5 121.5l2 860q0 65 -15.5 88t-60.5 23l-86 -5l-4 9l14 90q160 -6 244 -6q42 0 101 4.5t97 8.5l38 5l-9 -92q-85 -10 -114.5 -34 t-32.5 -83q-29 -615 -29 -885q0 -83 18 -111t72 -28l109 6l4 -8l-18 -94q-173 6 -269 6q-46 0 -105.5 -6t-95.5 -12z" />
<glyph unicode="&#xcd;" horiz-adv-x="739" d="M115 -25l12 95q97 19 130.5 54.5t33.5 121.5l2 860q0 65 -15.5 88t-60.5 23l-86 -5l-4 9l14 90q160 -6 244 -6q42 0 101 4.5t97 8.5l38 5l-9 -92q-85 -10 -114.5 -34t-32.5 -83q-29 -615 -29 -885q0 -83 18 -111t72 -28l109 6l4 -8l-18 -94q-173 6 -269 6 q-46 0 -105.5 -6t-95.5 -12zM246 1499q86 44 187.5 100t160.5 89l59 34l19 -12l33 -98l-9 -21q-207 -69 -422 -151l-16 10z" />
<glyph unicode="&#xce;" horiz-adv-x="739" d="M80 1505q59 44 129.5 101t111.5 92l41 35h29q150 -128 283 -228l-29 -45l-18 -2q-125 72 -250 133q-115 -54 -250 -133l-18 2zM115 -25l12 95q97 19 130.5 54.5t33.5 121.5l2 860q0 65 -15.5 88t-60.5 23l-86 -5l-4 9l14 90q160 -6 244 -6q42 0 101 4.5t97 8.5l38 5 l-9 -92q-85 -10 -114.5 -34t-32.5 -83q-29 -615 -29 -885q0 -83 18 -111t72 -28l109 6l4 -8l-18 -94q-173 6 -269 6q-46 0 -105.5 -6t-95.5 -12z" />
<glyph unicode="&#xcf;" horiz-adv-x="739" d="M113 1573q0 42 29 72t73 30q39 0 61.5 -26t22.5 -62q0 -42 -29 -72t-73 -30q-39 0 -61.5 26.5t-22.5 61.5zM115 -25l12 95q97 19 130.5 54.5t33.5 121.5l2 860q0 65 -15.5 88t-60.5 23l-86 -5l-4 9l14 90q160 -6 244 -6q42 0 101 4.5t97 8.5l38 5l-9 -92 q-85 -10 -114.5 -34t-32.5 -83q-29 -615 -29 -885q0 -83 18 -111t72 -28l109 6l4 -8l-18 -94q-173 6 -269 6q-46 0 -105.5 -6t-95.5 -12zM453 1573q0 42 29 72t73 30q39 0 61.5 -26t22.5 -62q0 -42 -29 -72t-73 -30q-39 0 -61.5 26.5t-22.5 61.5z" />
<glyph unicode="&#xd0;" horiz-adv-x="1460" d="M18 637l15 65h272l2 404q0 66 -15 88.5t-61 22.5l-69 -5l-4 9l14 90q137 -6 215 -6l311 8q294 0 484 -173t190 -440q0 -150 -55 -285t-149.5 -231t-226 -152.5t-277.5 -56.5q-191 25 -295 25q-45 0 -104 -6t-95 -12l-37 -7l12 95q46 9 72 18.5t45.5 24.5t27.5 44t11.5 65 t3.5 100v301h-272zM453 268q0 -112 52 -150t206 -38q221 0 348 152.5t127 418.5q0 270 -163.5 415.5t-465.5 145.5q-43 0 -58 -8.5t-16 -36.5l-18 -465h348l10 -14l-12 -65h-348z" />
<glyph unicode="&#xd1;" horiz-adv-x="1472" d="M111 1239l16 76q119 -10 176 -10q30 0 64.5 2t53.5 4l19 2q151 -235 323 -489t269 -390l96 -137h11v829q0 88 -68 88l-78 -2l-4 9l19 92q124 -8 194 -8q38 0 89 4t83 8l31 4l-10 -94q-71 -9 -105 -39.5t-35 -89.5l-28 -1151l-60 -29q-177 277 -367.5 559t-291.5 426 l-102 144h-11l-10 -875q0 -46 14.5 -64t49.5 -18l104 2l4 -8l-18 -92q-129 8 -217 8q-36 0 -84 -4t-78 -8l-29 -4l10 94q64 8 95 37.5t32 91.5l27 895q0 63 -37.5 89.5t-140.5 37.5zM426 1475v10l156 162l32 8q35 0 153.5 -34t145.5 -34q21 0 53 23t54 46l22 23h13l45 -43 v-10l-156 -162l-33 -8q-35 0 -153.5 34t-145.5 34q-22 0 -54 -23t-54 -46l-21 -23h-12z" />
<glyph unicode="&#xd2;" horiz-adv-x="1417" d="M82 608q0 200 89 365.5t243.5 260.5t341.5 95q169 0 301 -79.5t205 -223.5t73 -328q0 -151 -53 -285t-144.5 -230t-218.5 -152t-270 -56q-252 0 -409.5 176t-157.5 457zM258 674q0 -262 127 -428t328 -166q195 0 317.5 148t122.5 384q0 263 -130 428.5t-337 165.5 q-190 0 -309 -148t-119 -384zM387 1612l33 98l18 12q215 -123 408 -223l-12 -49l-17 -10q-96 36 -201.5 74t-163.5 58l-57 19z" />
<glyph unicode="&#xd3;" horiz-adv-x="1417" d="M82 608q0 200 89 365.5t243.5 260.5t341.5 95q169 0 301 -79.5t205 -223.5t73 -328q0 -151 -53 -285t-144.5 -230t-218.5 -152t-270 -56q-252 0 -409.5 176t-157.5 457zM258 674q0 -262 127 -428t328 -166q195 0 317.5 148t122.5 384q0 263 -130 428.5t-337 165.5 q-190 0 -309 -148t-119 -384zM569 1499q86 44 188 100t161 89l59 34l18 -12l33 -98l-8 -21q-207 -69 -422 -151l-16 10z" />
<glyph unicode="&#xd4;" horiz-adv-x="1417" d="M82 608q0 200 89 365.5t243.5 260.5t341.5 95q169 0 301 -79.5t205 -223.5t73 -328q0 -151 -53 -285t-144.5 -230t-218.5 -152t-270 -56q-252 0 -409.5 176t-157.5 457zM258 674q0 -262 127 -428t328 -166q195 0 317.5 148t122.5 384q0 263 -130 428.5t-337 165.5 q-190 0 -309 -148t-119 -384zM403 1505q59 44 130 101t112 92l41 35h29q149 -128 282 -228l-28 -45l-19 -2q-125 72 -250 133q-110 -52 -249 -133l-19 2z" />
<glyph unicode="&#xd5;" horiz-adv-x="1417" d="M82 608q0 200 89 365.5t243.5 260.5t341.5 95q169 0 301 -79.5t205 -223.5t73 -328q0 -151 -53 -285t-144.5 -230t-218.5 -152t-270 -56q-252 0 -409.5 176t-157.5 457zM258 674q0 -262 127 -428t328 -166q195 0 317.5 148t122.5 384q0 263 -130 428.5t-337 165.5 q-190 0 -309 -148t-119 -384zM367 1475v10l155 162l33 8q35 0 153.5 -34t145.5 -34q21 0 53 23t54 46l22 23h12l45 -43v-10l-155 -162l-33 -8q-35 0 -153.5 34t-145.5 34q-22 0 -54 -23t-53 -46l-22 -23h-12z" />
<glyph unicode="&#xd6;" horiz-adv-x="1417" d="M82 608q0 200 89 365.5t243.5 260.5t341.5 95q169 0 301 -79.5t205 -223.5t73 -328q0 -151 -53 -285t-144.5 -230t-218.5 -152t-270 -56q-252 0 -409.5 176t-157.5 457zM258 674q0 -262 127 -428t328 -166q195 0 317.5 148t122.5 384q0 263 -130 428.5t-337 165.5 q-190 0 -309 -148t-119 -384zM436 1573q0 42 29.5 72t73.5 30q39 0 61.5 -26t22.5 -62q0 -42 -29.5 -72t-73.5 -30q-39 0 -61.5 26.5t-22.5 61.5zM776 1573q0 42 29.5 72t73.5 30q39 0 61.5 -26t22.5 -62q0 -42 -29.5 -72t-73.5 -30q-39 0 -61.5 26.5t-22.5 61.5z" />
<glyph unicode="&#xd7;" d="M139 829l4 23l88 53q160 -162 287 -289q51 53 122.5 129t117.5 125l45 50l22 -7l64 -86l-291 -292q53 -52 127 -121.5t122 -112.5l48 -43l-6 -25l-86 -61l-285 283l-287 -291l-22 6l-55 86q155 152 282 279z" />
<glyph unicode="&#xd8;" horiz-adv-x="1417" d="M82 608q0 200 89 365.5t243.5 260.5t341.5 95q122 0 223 -43l86 164l59 -14l6 -25l-83 -156q135 -77 211.5 -223t76.5 -334q0 -151 -53 -285t-144.5 -230t-218.5 -152t-270 -56q-127 0 -248 54l-122 -230l-56 13l-4 20l121 231q-122 80 -190 221.5t-68 323.5zM258 674 q0 -147 41 -266.5t117 -198.5l489 936q-99 61 -219 61q-190 0 -309 -148t-119 -384zM469 160q110 -80 244 -80q195 0 317.5 148t122.5 384q0 158 -49.5 284.5t-138.5 205.5z" />
<glyph unicode="&#xd9;" horiz-adv-x="1394" d="M72 1221l14 90q153 -6 231 -6q39 0 93 4.5t88 8.5l34 5l-8 -92q-76 -10 -102 -34t-29 -83l-16 -602q0 -203 88 -311.5t254 -108.5q167 0 255.5 88.5t88.5 257.5l-12 668q-5 71 -18.5 91t-57.5 20l-88 -5l-4 9l14 90q153 -6 231 -6q39 0 89 4.5t80 8.5l30 5l-8 -92 q-90 -12 -115.5 -33t-25.5 -84v-688q0 -215 -133 -333t-375 -118q-215 0 -332 118t-117 335v678q0 66 -15 88.5t-61 22.5l-69 -5zM397 1612l33 98l19 12q214 -123 407 -223l-12 -49l-17 -10q-96 36 -201 74t-162 58l-58 19z" />
<glyph unicode="&#xda;" horiz-adv-x="1394" d="M72 1221l14 90q153 -6 231 -6q39 0 93 4.5t88 8.5l34 5l-8 -92q-76 -10 -102 -34t-29 -83l-16 -602q0 -203 88 -311.5t254 -108.5q167 0 255.5 88.5t88.5 257.5l-12 668q-5 71 -18.5 91t-57.5 20l-88 -5l-4 9l14 90q153 -6 231 -6q39 0 89 4.5t80 8.5l30 5l-8 -92 q-90 -12 -115.5 -33t-25.5 -84v-688q0 -215 -133 -333t-375 -118q-215 0 -332 118t-117 335v678q0 66 -15 88.5t-61 22.5l-69 -5zM580 1499q86 44 187.5 100t160.5 89l59 34l19 -12l32 -98l-8 -21q-207 -69 -422 -151l-16 10z" />
<glyph unicode="&#xdb;" horiz-adv-x="1394" d="M72 1221l14 90q153 -6 231 -6q39 0 93 4.5t88 8.5l34 5l-8 -92q-76 -10 -102 -34t-29 -83l-16 -602q0 -203 88 -311.5t254 -108.5q167 0 255.5 88.5t88.5 257.5l-12 668q-5 71 -18.5 91t-57.5 20l-88 -5l-4 9l14 90q153 -6 231 -6q39 0 89 4.5t80 8.5l30 5l-8 -92 q-90 -12 -115.5 -33t-25.5 -84v-688q0 -215 -133 -333t-375 -118q-215 0 -332 118t-117 335v678q0 66 -15 88.5t-61 22.5l-69 -5zM414 1505q59 44 129.5 101t111.5 92l41 35h29q150 -128 283 -228l-29 -45l-18 -2q-125 72 -250 133q-115 -54 -250 -133l-19 2z" />
<glyph unicode="&#xdc;" horiz-adv-x="1394" d="M72 1221l14 90q153 -6 231 -6q39 0 93 4.5t88 8.5l34 5l-8 -92q-76 -10 -102 -34t-29 -83l-16 -602q0 -203 88 -311.5t254 -108.5q167 0 255.5 88.5t88.5 257.5l-12 668q-5 71 -18.5 91t-57.5 20l-88 -5l-4 9l14 90q153 -6 231 -6q39 0 89 4.5t80 8.5l30 5l-8 -92 q-90 -12 -115.5 -33t-25.5 -84v-688q0 -215 -133 -333t-375 -118q-215 0 -332 118t-117 335v678q0 66 -15 88.5t-61 22.5l-69 -5zM446 1573q0 42 29.5 72t73.5 30q39 0 61.5 -26t22.5 -62q0 -42 -29.5 -72t-73.5 -30q-39 0 -61.5 26.5t-22.5 61.5zM786 1573q0 42 29.5 72 t73.5 30q39 0 61.5 -26t22.5 -62q0 -42 -29.5 -72t-73.5 -30q-39 0 -61.5 26.5t-22.5 61.5z" />
<glyph unicode="&#xdd;" horiz-adv-x="1101" d="M-39 1231l12 80q132 -6 226 -6q51 0 123.5 4t119.5 8l47 4l7 -14l-7 -72q-91 -7 -123 -22.5t-32 -51.5q0 -26 57 -158t113.5 -251t58.5 -119h10l234 434q33 61 33 102q0 53 -129 62l-4 8l12 80q151 -14 227 -14q36 0 83 2t77 4l29 2l8 -15l-13 -75q-93 -18 -132.5 -57 t-113.5 -171q-14 -25 -22 -39l-205 -360q-28 -48 -34.5 -105t-9.5 -217q0 -10 -0.5 -15t-0.5 -14v-16q-2 -79 17.5 -109t72.5 -30l101 6l4 -8l-19 -94q-170 6 -260 6q-45 0 -103.5 -6t-94.5 -12l-35 -7l12 95q56 11 87 24.5t48 41t21 60t4 95.5v90q0 63 -12 111.5t-47 119.5 l-185 375q-60 123 -79 150q-40 57 -108 75q-29 7 -71 11zM453 1499q86 44 187.5 100t160.5 89l59 34l19 -12l32 -98l-8 -21q-207 -69 -422 -151l-16 10z" />
<glyph unicode="&#xde;" horiz-adv-x="1112" d="M115 -25l12 95q97 19 130.5 54.5t33.5 121.5l2 860q0 65 -15.5 88t-60.5 23l-86 -5l-4 9l14 90q160 -6 244 -6q42 0 101 4.5t97 8.5l38 5l-9 -92q-85 -10 -114.5 -34t-32.5 -83q-1 -16 -2.5 -36.5t-2 -26.5t0.5 -21h168q212 0 325 -86.5t113 -247.5q0 -103 -67 -194 t-179 -145t-239 -54h-146v-74q0 -83 18 -111t72 -28l109 6l4 -8l-18 -94q-173 6 -269 6q-46 0 -105.5 -6t-95.5 -12zM438 428q37 -12 101 -23t108 -12q248 30 248 264q0 141 -93 207t-292 66q-34 0 -43 -3t-12 -14q-14 -332 -17 -485z" />
<glyph unicode="&#xdf;" horiz-adv-x="1880" d="M109 55q22 130 22 277l92 8q0 -83 8.5 -131t33 -78.5t63 -40.5t104.5 -10q99 0 159 43t60 115q0 27 -14 52.5t-32 43.5t-53.5 40t-60.5 34.5t-71 34.5q-7 3 -11.5 5.5t-9.5 4.5q-63 31 -101.5 53.5t-83 57.5t-66 77.5t-21.5 93.5q0 130 114.5 216.5t286.5 86.5 q68 0 134.5 -10t98.5 -20l32 -9l8 -14q-29 -125 -39 -270l-80 -8l-12 8q4 30 4 73q0 80 -42 112t-149 32q-86 0 -142 -40t-56 -101q0 -32 17 -60.5t53.5 -54.5t69 -44t87.5 -44q49 -23 63.5 -30t58.5 -30.5t60.5 -36t47 -38t43 -46.5t23.5 -50.5t11 -61.5 q0 -138 -119 -225.5t-309 -87.5q-72 0 -140 14t-100 28l-32 13zM1049 55q22 130 22 277l92 8q0 -83 8.5 -131t33 -78.5t63 -40.5t104.5 -10q99 0 159 43t60 115q0 27 -14 52.5t-32 43.5t-53.5 40t-60.5 34.5t-71 34.5q-7 3 -11.5 5.5t-9.5 4.5q-63 31 -101.5 53.5t-83 57.5 t-66 77.5t-21.5 93.5q0 130 114.5 216.5t286.5 86.5q68 0 134.5 -10t98.5 -20l32 -9l8 -14q-29 -125 -39 -270l-80 -8l-12 8q4 30 4 73q0 80 -42 112t-149 32q-86 0 -142 -40t-56 -101q0 -32 17 -60.5t53.5 -54.5t69 -44t87.5 -44q49 -23 63.5 -30t58.5 -30.5t60.5 -36 t47 -38t43 -46.5t23.5 -50.5t11 -61.5q0 -138 -119 -225.5t-309 -87.5q-72 0 -140 14t-100 28l-32 13z" />
<glyph unicode="&#xe0;" d="M-4 -4l12 84q45 6 72 31.5t53 87.5l322 813l145 26l14 -2q143 -517 260 -846q20 -59 52.5 -82.5t101.5 -29.5l4 -8l-10 -74q-125 4 -186 4q-59 0 -123.5 -3.5t-99.5 -6.5l-35 -4l-7 10l7 74q86 6 115.5 18t29.5 41q0 32 -14 70l-50 157q-41 2 -170 2q-59 0 -176 -12 l-57 -151q-14 -47 -14 -58q0 -33 22 -47t74 -14h88l6 -8l-12 -78q-125 10 -236 10zM233 1325l33 98l19 13q214 -124 407 -224l-12 -49l-16 -10q-96 36 -201.5 74t-162.5 58l-58 20zM346 442h139q62 0 150 9l-125 397h-14z" />
<glyph unicode="&#xe1;" d="M-4 -4l12 84q45 6 72 31.5t53 87.5l322 813l145 26l14 -2q143 -517 260 -846q20 -59 52.5 -82.5t101.5 -29.5l4 -8l-10 -74q-125 4 -186 4q-59 0 -123.5 -3.5t-99.5 -6.5l-35 -4l-7 10l7 74q86 6 115.5 18t29.5 41q0 32 -14 70l-50 157q-41 2 -170 2q-59 0 -176 -12 l-57 -151q-14 -47 -14 -58q0 -33 22 -47t74 -14h88l6 -8l-12 -78q-125 10 -236 10zM346 442h139q62 0 150 9l-125 397h-14zM371 1212q86 44 187.5 100t160.5 90l59 34l19 -13l32 -98l-8 -20q-207 -70 -422 -152l-16 10z" />
<glyph unicode="&#xe2;" d="M-4 -4l12 84q45 6 72 31.5t53 87.5l322 813l145 26l14 -2q143 -517 260 -846q20 -59 52.5 -82.5t101.5 -29.5l4 -8l-10 -74q-125 4 -186 4q-59 0 -123.5 -3.5t-99.5 -6.5l-35 -4l-7 10l7 74q86 6 115.5 18t29.5 41q0 32 -14 70l-50 157q-41 2 -170 2q-59 0 -176 -12 l-57 -151q-14 -47 -14 -58q0 -33 22 -47t74 -14h88l6 -8l-12 -78q-125 10 -236 10zM229 1219q59 44 130 101t112 92l41 34h29q149 -127 282 -227l-28 -45l-19 -3q-137 79 -250 134q-106 -50 -250 -134l-18 3zM346 442h139q62 0 150 9l-125 397h-14z" />
<glyph unicode="&#xe3;" d="M-4 -4l12 84q45 6 72 31.5t53 87.5l322 813l145 26l14 -2q143 -517 260 -846q20 -59 52.5 -82.5t101.5 -29.5l4 -8l-10 -74q-125 4 -186 4q-59 0 -123.5 -3.5t-99.5 -6.5l-35 -4l-7 10l7 74q86 6 115.5 18t29.5 41q0 32 -14 70l-50 157q-41 2 -170 2q-59 0 -176 -12 l-57 -151q-14 -47 -14 -58q0 -33 22 -47t74 -14h88l6 -8l-12 -78q-125 10 -236 10zM193 1188v10l155 162l33 8q35 0 153.5 -34t145.5 -34q21 0 53 23t54 47l22 23h12l45 -43v-11l-155 -161l-33 -9q-35 0 -153.5 34t-145.5 34q-22 0 -54 -23t-53 -46l-22 -23h-12zM346 442 h139q62 0 150 9l-125 397h-14z" />
<glyph unicode="&#xe4;" d="M-4 -4l12 84q45 6 72 31.5t53 87.5l322 813l145 26l14 -2q143 -517 260 -846q20 -59 52.5 -82.5t101.5 -29.5l4 -8l-10 -74q-125 4 -186 4q-59 0 -123.5 -3.5t-99.5 -6.5l-35 -4l-7 10l7 74q86 6 115.5 18t29.5 41q0 32 -14 70l-50 157q-41 2 -170 2q-59 0 -176 -12 l-57 -151q-14 -47 -14 -58q0 -33 22 -47t74 -14h88l6 -8l-12 -78q-125 10 -236 10zM262 1286q0 42 29.5 72.5t73.5 30.5q39 0 61.5 -26.5t22.5 -62.5q0 -42 -29.5 -72t-73.5 -30q-39 0 -61.5 26.5t-22.5 61.5zM346 442h139q62 0 150 9l-125 397h-14zM602 1286 q0 42 29.5 72.5t73.5 30.5q39 0 61 -26.5t22 -62.5q0 -42 -29 -72t-73 -30q-39 0 -61.5 26.5t-22.5 61.5z" />
<glyph unicode="&#xe5;" d="M-4 -4l12 84q45 6 72 31.5t53 87.5l322 813l145 26l14 -2q143 -517 260 -846q20 -59 52.5 -82.5t101.5 -29.5l4 -8l-10 -74q-125 4 -186 4q-59 0 -123.5 -3.5t-99.5 -6.5l-35 -4l-7 10l7 74q86 6 115.5 18t29.5 41q0 32 -14 70l-50 157q-41 2 -170 2q-59 0 -176 -12 l-57 -151q-14 -47 -14 -58q0 -33 22 -47t74 -14h88l6 -8l-12 -78q-125 10 -236 10zM346 442h139q62 0 150 9l-125 397h-14zM360 1257q0 75 47.5 124t124.5 49q79 0 118.5 -45.5t39.5 -110.5q0 -74 -47 -127t-127 -53q-74 0 -115 44.5t-41 118.5zM426 1270q0 -49 32.5 -74 t71.5 -25q91 0 91 80q0 44 -27.5 71.5t-77.5 27.5q-44 0 -67 -21.5t-23 -58.5z" />
<glyph unicode="&#xe6;" horiz-adv-x="1431" d="M8 63q3 0 18 16t40.5 49.5t46.5 70.5l399 712q-4 17 -14 23t-29 6l-55 -2l-6 8l12 78q0 1 36 0t114 -2.5t153 -1.5q366 0 510 18l6 -10q-29 -127 -39 -274l-98 -9q4 45 4 68q0 32 -5 50t-17.5 32t-43.5 19t-71.5 7.5t-114.5 2.5q-73 0 -91 -8.5t-20 -41.5l50 -339l188 18 l158 25l8 -13l-21 -100l-147 -6l-174 -15l43 -247q10 -60 41 -84.5t94 -24.5q62 0 100 2t70.5 10t49.5 19.5t31 35.5t20.5 51.5t13.5 74.5l92 8l6 -10q-31 -136 -45 -279l-10 -10q0 -1 -75 1.5t-192.5 5.5t-195.5 3h-60q-58 0 -121 -3.5t-97 -6.5l-33 -4l-5 10l5 74 q95 7 125 23t30 57q0 14 -10 96l-27 180l-161 -12l-150 -21l-108 -198q-25 -49 -25 -70q0 -26 21.5 -37.5t70.5 -11.5l86 -2l-10 -84q-140 10 -244 10l-117 -6zM393 498l133 8l117 10l-47 330h-16z" />
<glyph unicode="&#xe7;" horiz-adv-x="1097" d="M84 477q0 247 165 404t423 157q62 0 136.5 -10t118.5 -20l44 -9l8 -12q-33 -122 -43 -278l-102 -7q4 41 4 80q0 144 -230 144q-160 0 -252 -105.5t-92 -290.5q0 -205 97 -325.5t262 -120.5q108 0 172.5 58.5t93.5 183.5l102 8q-33 -152 -43 -273l-12 -16 q-14 -6 -39 -14.5t-103 -25.5t-155 -21l-29 -86q6 -4 35.5 -24t41 -28t35 -27.5t33.5 -33t19.5 -33t9.5 -37.5q0 -77 -78 -134.5t-167 -57.5q-51 0 -95.5 20.5t-44.5 53.5q0 28 52 114h18q1 -56 32 -86.5t81 -30.5q41 0 69.5 22t28.5 56q0 33 -47.5 71t-126.5 83l47 156 q-217 11 -343 142.5t-126 352.5z" />
<glyph unicode="&#xe8;" horiz-adv-x="1040" d="M111 -16l10 86q75 9 102 37.5t27 97.5l2 649q0 52 -12.5 69t-49.5 17l-55 -2l-4 8l12 78q146 -4 252 -4q343 0 506 18l6 -10q-29 -127 -39 -274l-98 -9q4 45 4 68q0 27 -2 43t-12 30t-24 20t-44.5 11t-66.5 6t-97 1q-76 0 -92 -9t-18 -51l-12 -291q16 0 78.5 -1t88.5 -1 t77 4.5t88 8.5l38 4l8 -10l-24 -107q-142 4 -230 4q-56 0 -129 -10q-6 -156 -6 -281q0 -65 19.5 -80.5t105.5 -15.5q68 0 109 2t76.5 10t53.5 19.5t33.5 35.5t22.5 51.5t14 74.5l91 8l8 -10q-31 -136 -45 -279l-13 -10q-340 10 -512 10q-59 0 -121 -4t-94 -8zM252 1325 l33 98l18 13q215 -124 408 -224l-13 -49l-16 -10q-96 36 -201.5 74t-162.5 58l-58 20z" />
<glyph unicode="&#xe9;" horiz-adv-x="1040" d="M111 -16l10 86q75 9 102 37.5t27 97.5l2 649q0 52 -12.5 69t-49.5 17l-55 -2l-4 8l12 78q146 -4 252 -4q343 0 506 18l6 -10q-29 -127 -39 -274l-98 -9q4 45 4 68q0 27 -2 43t-12 30t-24 20t-44.5 11t-66.5 6t-97 1q-76 0 -92 -9t-18 -51l-12 -291q16 0 78.5 -1t88.5 -1 t77 4.5t88 8.5l38 4l8 -10l-24 -107q-142 4 -230 4q-56 0 -129 -10q-6 -156 -6 -281q0 -65 19.5 -80.5t105.5 -15.5q68 0 109 2t76.5 10t53.5 19.5t33.5 35.5t22.5 51.5t14 74.5l91 8l8 -10q-31 -136 -45 -279l-13 -10q-340 10 -512 10q-59 0 -121 -4t-94 -8zM391 1212 q86 44 188 100t161 90l59 34l18 -13l33 -98l-8 -20q-207 -70 -422 -152l-17 10z" />
<glyph unicode="&#xea;" horiz-adv-x="1040" d="M111 -16l10 86q75 9 102 37.5t27 97.5l2 649q0 52 -12.5 69t-49.5 17l-55 -2l-4 8l12 78q146 -4 252 -4q343 0 506 18l6 -10q-29 -127 -39 -274l-98 -9q4 45 4 68q0 27 -2 43t-12 30t-24 20t-44.5 11t-66.5 6t-97 1q-76 0 -92 -9t-18 -51l-12 -291q16 0 78.5 -1t88.5 -1 t77 4.5t88 8.5l38 4l8 -10l-24 -107q-142 4 -230 4q-56 0 -129 -10q-6 -156 -6 -281q0 -65 19.5 -80.5t105.5 -15.5q68 0 109 2t76.5 10t53.5 19.5t33.5 35.5t22.5 51.5t14 74.5l91 8l8 -10q-31 -136 -45 -279l-13 -10q-340 10 -512 10q-59 0 -121 -4t-94 -8zM250 1219 q59 44 129.5 101t111.5 92l41 34h29q150 -127 283 -227l-29 -45l-18 -3q-137 79 -250 134q-106 -50 -250 -134l-18 3z" />
<glyph unicode="&#xeb;" horiz-adv-x="1040" d="M111 -16l10 86q75 9 102 37.5t27 97.5l2 649q0 52 -12.5 69t-49.5 17l-55 -2l-4 8l12 78q146 -4 252 -4q343 0 506 18l6 -10q-29 -127 -39 -274l-98 -9q4 45 4 68q0 27 -2 43t-12 30t-24 20t-44.5 11t-66.5 6t-97 1q-76 0 -92 -9t-18 -51l-12 -291q16 0 78.5 -1t88.5 -1 t77 4.5t88 8.5l38 4l8 -10l-24 -107q-142 4 -230 4q-56 0 -129 -10q-6 -156 -6 -281q0 -65 19.5 -80.5t105.5 -15.5q68 0 109 2t76.5 10t53.5 19.5t33.5 35.5t22.5 51.5t14 74.5l91 8l8 -10q-31 -136 -45 -279l-13 -10q-340 10 -512 10q-59 0 -121 -4t-94 -8zM283 1286 q0 42 29.5 72.5t72.5 30.5q39 0 61.5 -26.5t22.5 -62.5q0 -42 -29 -72t-73 -30q-39 0 -61.5 26.5t-22.5 61.5zM623 1286q0 42 29.5 72.5t72.5 30.5q39 0 61.5 -26.5t22.5 -62.5q0 -42 -29 -72t-73 -30q-39 0 -61.5 26.5t-22.5 61.5z" />
<glyph unicode="&#xec;" horiz-adv-x="653" d="M39 1325l33 98l18 13q215 -124 408 -224l-13 -49l-16 -10q-96 36 -201.5 74t-163.5 58l-57 20zM109 -18l10 84q78 13 104.5 41t26.5 96l2 651q0 51 -12.5 68.5t-49.5 17.5l-67 -2l-4 8l10 78q3 0 41 -1t87 -2t81 -1q34 0 85 3.5t85 6.5l35 4l-8 -84q-68 -7 -91 -25.5 t-26 -64.5q-23 -420 -23 -670q0 -66 14.5 -88t57.5 -22l84 6l4 -8l-14 -82q-150 4 -228 4q-39 0 -90 -4.5t-83 -9.5z" />
<glyph unicode="&#xed;" horiz-adv-x="653" d="M109 -18l10 84q78 13 104.5 41t26.5 96l2 651q0 51 -12.5 68.5t-49.5 17.5l-67 -2l-4 8l10 78q3 0 41 -1t87 -2t81 -1q34 0 85 3.5t85 6.5l35 4l-8 -84q-68 -7 -91 -25.5t-26 -64.5q-23 -420 -23 -670q0 -66 14.5 -88t57.5 -22l84 6l4 -8l-14 -82q-150 4 -228 4 q-39 0 -90 -4.5t-83 -9.5zM176 1212q86 44 188 100t161 90l59 34l18 -13l33 -98l-8 -20q-207 -70 -422 -152l-17 10z" />
<glyph unicode="&#xee;" horiz-adv-x="653" d="M35 1219q59 44 129.5 101t111.5 92l41 34h29q150 -127 283 -227l-29 -45l-18 -3q-137 79 -250 134q-106 -50 -250 -134l-19 3zM109 -18l10 84q78 13 104.5 41t26.5 96l2 651q0 51 -12.5 68.5t-49.5 17.5l-67 -2l-4 8l10 78q3 0 41 -1t87 -2t81 -1q34 0 85 3.5t85 6.5 l35 4l-8 -84q-68 -7 -91 -25.5t-26 -64.5q-23 -420 -23 -670q0 -66 14.5 -88t57.5 -22l84 6l4 -8l-14 -82q-150 4 -228 4q-39 0 -90 -4.5t-83 -9.5z" />
<glyph unicode="&#xef;" horiz-adv-x="653" d="M68 1286q0 42 29.5 72.5t72.5 30.5q39 0 61.5 -26.5t22.5 -62.5q0 -42 -29 -72t-73 -30q-39 0 -61.5 26.5t-22.5 61.5zM109 -18l10 84q78 13 104.5 41t26.5 96l2 651q0 51 -12.5 68.5t-49.5 17.5l-67 -2l-4 8l10 78q3 0 41 -1t87 -2t81 -1q34 0 85 3.5t85 6.5l35 4 l-8 -84q-68 -7 -91 -25.5t-26 -64.5q-23 -420 -23 -670q0 -66 14.5 -88t57.5 -22l84 6l4 -8l-14 -82q-150 4 -228 4q-39 0 -90 -4.5t-83 -9.5zM408 1286q0 42 29.5 72.5t72.5 30.5q39 0 61.5 -26.5t22.5 -62.5q0 -42 -29 -72t-73 -30q-39 0 -61.5 26.5t-22.5 61.5z" />
<glyph unicode="&#xf0;" horiz-adv-x="1239" d="M37 487l14 66h215v301q0 52 -11.5 69t-47.5 17l-55 -4l-7 10l13 78q120 -4 186 -4l258 6q245 0 397 -132t152 -345q0 -120 -45 -225t-122 -180t-185 -118.5t-230 -43.5q-155 18 -243 18q-38 0 -88 -4.5t-80 -9.5l-31 -4l10 86q84 13 106.5 45.5t22.5 140.5v223h-217z M412 217q0 -82 38.5 -109.5t153.5 -27.5q172 0 269.5 113t97.5 315q0 207 -122.5 314.5t-356.5 107.5q-32 0 -44.5 -7.5t-13.5 -29.5l-14 -340h266l10 -10l-10 -66h-268z" />
<glyph unicode="&#xf1;" horiz-adv-x="1257" d="M104 958l15 70q100 -8 155 -8l125 6q117 -173 251.5 -359.5t209.5 -286.5l76 -101h10l-2 591q0 68 -55 68h-62l-4 8l15 80q113 -6 174 -6q32 0 75.5 3t70.5 6l28 3l-8 -84q-59 -8 -85.5 -31.5t-27.5 -70.5l-25 -881l-79 -22q-138 203 -286 409.5t-227 311.5l-79 104h-11 l-6 -621q0 -38 12 -52.5t42 -14.5l81 2l7 -6l-17 -82q-114 6 -186 6q-33 0 -75.5 -3t-68.5 -6l-26 -3l10 84q52 6 76.5 29t25.5 71l23 676q0 51 -29.5 71t-113.5 29zM313 1188v10l156 162l33 8q35 0 153.5 -34t145.5 -34q21 0 53 23t54 47l22 23h12l45 -43v-11l-156 -161 l-32 -9q-35 0 -153.5 34t-145.5 34q-22 0 -54 -23t-54 -46l-21 -23h-13z" />
<glyph unicode="&#xf2;" horiz-adv-x="1198" d="M84 477q0 242 158 401.5t395 159.5q215 0 346 -135t131 -358q0 -160 -73 -289t-201 -201.5t-285 -72.5q-212 0 -341.5 136t-129.5 359zM258 532q0 -205 95 -328.5t251 -123.5q150 0 242 107.5t92 285.5q0 205 -98 328t-258 123q-147 0 -235.5 -107t-88.5 -285zM340 1325 l33 98l18 13q215 -124 408 -224l-13 -49l-16 -10q-96 36 -201.5 74t-162.5 58l-58 20z" />
<glyph unicode="&#xf3;" horiz-adv-x="1198" d="M84 477q0 242 158 401.5t395 159.5q215 0 346 -135t131 -358q0 -160 -73 -289t-201 -201.5t-285 -72.5q-212 0 -341.5 136t-129.5 359zM258 532q0 -205 95 -328.5t251 -123.5q150 0 242 107.5t92 285.5q0 205 -98 328t-258 123q-147 0 -235.5 -107t-88.5 -285zM438 1212 q86 44 188 100t161 90l59 34l18 -13l33 -98l-8 -20q-207 -70 -422 -152l-16 10z" />
<glyph unicode="&#xf4;" horiz-adv-x="1198" d="M84 477q0 242 158 401.5t395 159.5q215 0 346 -135t131 -358q0 -160 -73 -289t-201 -201.5t-285 -72.5q-212 0 -341.5 136t-129.5 359zM258 532q0 -205 95 -328.5t251 -123.5q150 0 242 107.5t92 285.5q0 205 -98 328t-258 123q-147 0 -235.5 -107t-88.5 -285zM317 1219 q59 44 130 101t112 92l41 34h29q149 -127 282 -227l-28 -45l-19 -3q-137 79 -250 134q-100 -48 -249 -134l-19 3z" />
<glyph unicode="&#xf5;" horiz-adv-x="1198" d="M84 477q0 242 158 401.5t395 159.5q215 0 346 -135t131 -358q0 -160 -73 -289t-201 -201.5t-285 -72.5q-212 0 -341.5 136t-129.5 359zM258 532q0 -205 95 -328.5t251 -123.5q150 0 242 107.5t92 285.5q0 205 -98 328t-258 123q-147 0 -235.5 -107t-88.5 -285zM279 1188 v10l155 162l33 8q35 0 153.5 -34t145.5 -34q21 0 53 23t54 47l22 23h12l45 -43v-11l-155 -161l-33 -9q-35 0 -153.5 34t-145.5 34q-22 0 -54 -23t-53 -46l-22 -23h-12z" />
<glyph unicode="&#xf6;" horiz-adv-x="1198" d="M84 477q0 242 158 401.5t395 159.5q215 0 346 -135t131 -358q0 -160 -73 -289t-201 -201.5t-285 -72.5q-212 0 -341.5 136t-129.5 359zM258 532q0 -205 95 -328.5t251 -123.5q150 0 242 107.5t92 285.5q0 205 -98 328t-258 123q-147 0 -235.5 -107t-88.5 -285zM350 1286 q0 42 29.5 72.5t73.5 30.5q39 0 61.5 -26.5t22.5 -62.5q0 -42 -29.5 -72t-73.5 -30q-39 0 -61.5 26.5t-22.5 61.5zM690 1286q0 42 29.5 72.5t73.5 30.5q39 0 61.5 -26.5t22.5 -62.5q0 -42 -29.5 -72t-73.5 -30q-39 0 -61.5 26.5t-22.5 61.5z" />
<glyph unicode="&#xf7;" d="M37 498l22 100q308 -2 490 -2q73 0 182.5 3t182.5 6l73 3l12 -20l-16 -105l-465 -2l-469 -2zM387 176q0 54 35 90.5t92 36.5q55 0 86 -33.5t31 -83.5q0 -54 -35.5 -90.5t-93.5 -36.5q-55 0 -85 34.5t-30 82.5zM387 891q0 54 35 90.5t92 36.5q55 0 86 -33.5t31 -83.5 q0 -54 -35.5 -90.5t-93.5 -36.5q-55 0 -85 34.5t-30 82.5z" />
<glyph unicode="&#xf8;" horiz-adv-x="1198" d="M84 477q0 242 158 401.5t395 159.5q97 0 188 -32l72 127l55 -17l4 -20l-69 -121q107 -61 167 -172.5t60 -257.5q0 -160 -73 -289t-201 -201.5t-285 -72.5q-114 0 -211 43l-104 -183l-52 15l-4 16l103 182q-96 64 -149.5 173t-53.5 249zM258 532q0 -219 104 -342l390 689 q-76 45 -170 45q-147 0 -235.5 -107t-88.5 -285zM412 143q81 -63 192 -63q150 0 242 107.5t92 285.5q0 238 -131 363z" />
<glyph unicode="&#xf9;" horiz-adv-x="1177" d="M74 944l12 80q131 -4 203 -4q32 0 77.5 3t75.5 6l29 3l-8 -82q-59 -7 -80.5 -26t-24.5 -64l-12 -469q0 -145 67.5 -224t194.5 -79q129 0 195.5 64.5t66.5 187.5l-8 514q-3 55 -13.5 70.5t-45.5 15.5l-70 -2l-2 6l12 80q128 -4 191 -4q34 0 77 3t69 6l26 3l-6 -82 q-71 -11 -92 -27t-21 -61v-524q0 -170 -109.5 -263t-310.5 -93q-181 0 -276.5 90t-95.5 260v522q0 52 -12.5 69t-49.5 17l-55 -2zM309 1325l33 98l18 13q215 -124 408 -224l-12 -49l-17 -10q-96 36 -201.5 74t-163.5 58l-57 20z" />
<glyph unicode="&#xfa;" horiz-adv-x="1177" d="M74 944l12 80q131 -4 203 -4q32 0 77.5 3t75.5 6l29 3l-8 -82q-59 -7 -80.5 -26t-24.5 -64l-12 -469q0 -145 67.5 -224t194.5 -79q129 0 195.5 64.5t66.5 187.5l-8 514q-3 55 -13.5 70.5t-45.5 15.5l-70 -2l-2 6l12 80q128 -4 191 -4q34 0 77 3t69 6l26 3l-6 -82 q-71 -11 -92 -27t-21 -61v-524q0 -170 -109.5 -263t-310.5 -93q-181 0 -276.5 90t-95.5 260v522q0 52 -12.5 69t-49.5 17l-55 -2zM426 1212q86 44 188 100t161 90l59 34l18 -13l33 -98l-8 -20q-207 -70 -422 -152l-17 10z" />
<glyph unicode="&#xfb;" horiz-adv-x="1177" d="M74 944l12 80q131 -4 203 -4q32 0 77.5 3t75.5 6l29 3l-8 -82q-59 -7 -80.5 -26t-24.5 -64l-12 -469q0 -145 67.5 -224t194.5 -79q129 0 195.5 64.5t66.5 187.5l-8 514q-3 55 -13.5 70.5t-45.5 15.5l-70 -2l-2 6l12 80q128 -4 191 -4q34 0 77 3t69 6l26 3l-6 -82 q-71 -11 -92 -27t-21 -61v-524q0 -170 -109.5 -263t-310.5 -93q-181 0 -276.5 90t-95.5 260v522q0 52 -12.5 69t-49.5 17l-55 -2zM305 1219q59 44 130 101t112 92l41 34h28q150 -127 283 -227l-29 -45l-18 -3q-137 79 -250 134q-106 -50 -250 -134l-18 3z" />
<glyph unicode="&#xfc;" horiz-adv-x="1177" d="M74 944l12 80q131 -4 203 -4q32 0 77.5 3t75.5 6l29 3l-8 -82q-59 -7 -80.5 -26t-24.5 -64l-12 -469q0 -145 67.5 -224t194.5 -79q129 0 195.5 64.5t66.5 187.5l-8 514q-3 55 -13.5 70.5t-45.5 15.5l-70 -2l-2 6l12 80q128 -4 191 -4q34 0 77 3t69 6l26 3l-6 -82 q-71 -11 -92 -27t-21 -61v-524q0 -170 -109.5 -263t-310.5 -93q-181 0 -276.5 90t-95.5 260v522q0 52 -12.5 69t-49.5 17l-55 -2zM338 1286q0 42 29.5 72.5t72.5 30.5q39 0 61.5 -26.5t22.5 -62.5q0 -42 -29 -72t-73 -30q-39 0 -61.5 26.5t-22.5 61.5zM678 1286 q0 42 29.5 72.5t72.5 30.5q39 0 61.5 -26.5t22.5 -62.5q0 -42 -29 -72t-73 -30q-39 0 -61.5 26.5t-22.5 61.5z" />
<glyph unicode="&#xfd;" horiz-adv-x="972" d="M-6 950l12 74q117 -4 193 -4q41 0 102 3t102 6l41 3l7 -12l-7 -68q-70 -4 -95 -15.5t-25 -39.5q0 -33 176 -385h10l176 315q27 49 27 78q0 39 -101 45l-4 6l10 74q3 0 39 -2.5t82.5 -5t75.5 -2.5l160 6l6 -12l-10 -70q-40 -9 -65.5 -20.5t-49 -36.5t-40.5 -50.5 t-50 -79.5q-8 -13 -12 -20l-166 -282q-23 -40 -28 -87.5t-7 -179.5q-1 -60 15.5 -83t60.5 -23l82 4l4 -6l-17 -86q-151 6 -229 6q-38 0 -90.5 -4.5t-85.5 -9.5l-33 -4l12 84q47 8 73 17.5t40.5 30t18.5 45.5t4 72v64q0 46 -10 83.5t-40 92.5l-153 295q-25 47 -34.5 64.5 t-28.5 44t-36 35.5t-43.5 18.5t-64.5 13.5zM362 1212q86 44 188 100t161 90l59 34l18 -13l33 -98l-8 -20q-207 -70 -422 -152l-16 10z" />
<glyph unicode="&#xfe;" horiz-adv-x="968" d="M109 -18l10 84q78 13 104.5 41t26.5 96l2 651q0 51 -12.5 68.5t-49.5 17.5l-67 -2l-4 8l10 78q3 0 41 -1t87 -2t81 -1q34 0 85 3.5t85 6.5l35 4l-8 -84q-68 -9 -91 -26t-26 -60q-1 -11 -2 -23.5t-1.5 -19.5t-0.5 -12h135q178 0 271 -68.5t93 -199.5q0 -82 -54.5 -153.5 t-146.5 -113t-198 -41.5h-119v-53q0 -60 14.5 -80t57.5 -20l86 6l4 -8l-14 -82q-152 4 -230 4q-39 0 -90 -4.5t-83 -9.5zM397 346q80 -23 162 -27q191 24 191 197q0 103 -71.5 151t-225.5 48q-26 0 -33.5 -3.5t-9.5 -13.5q-13 -266 -13 -352z" />
<glyph unicode="&#xff;" horiz-adv-x="972" d="M-6 950l12 74q117 -4 193 -4q41 0 102 3t102 6l41 3l7 -12l-7 -68q-70 -4 -95 -15.5t-25 -39.5q0 -33 176 -385h10l176 315q27 49 27 78q0 39 -101 45l-4 6l10 74q3 0 39 -2.5t82.5 -5t75.5 -2.5l160 6l6 -12l-10 -70q-40 -9 -65.5 -20.5t-49 -36.5t-40.5 -50.5 t-50 -79.5q-8 -13 -12 -20l-166 -282q-23 -40 -28 -87.5t-7 -179.5q-1 -60 15.5 -83t60.5 -23l82 4l4 -6l-17 -86q-151 6 -229 6q-38 0 -90.5 -4.5t-85.5 -9.5l-33 -4l12 84q47 8 73 17.5t40.5 30t18.5 45.5t4 72v64q0 46 -10 83.5t-40 92.5l-153 295q-25 47 -34.5 64.5 t-28.5 44t-36 35.5t-43.5 18.5t-64.5 13.5zM252 1286q0 42 29.5 72.5t72.5 30.5q39 0 61.5 -26.5t22.5 -62.5q0 -42 -29 -72t-73 -30q-39 0 -61.5 26.5t-22.5 61.5zM592 1286q0 42 29.5 72.5t72.5 30.5q39 0 61.5 -26.5t22.5 -62.5q0 -42 -29 -72t-73 -30q-39 0 -61.5 26.5 t-22.5 61.5z" />
<glyph unicode="&#x152;" horiz-adv-x="1972" d="M84 608q0 200 87 365.5t238 260.5t334 95q66 0 213.5 -14.5t235.5 -14.5q410 0 623 29l6 -12q-35 -152 -47 -340l-99 -8q4 59 4 88q0 36 -2.5 57t-15.5 39.5t-30.5 26.5t-57 14t-85 7t-124.5 1q-45 0 -66.5 -1.5t-39.5 -4.5t-24 -13.5t-9 -22.5t-4 -38l-17 -397l213 -2 q33 0 95.5 5.5t108.5 11.5l46 5l8 -10l-28 -121q-176 7 -287 7l-160 -15l-6 -391q0 -45 4 -66.5t22.5 -36t47.5 -17.5t88 -3q88 0 140.5 2.5t98 13t68.5 25t42.5 45.5t28 67t17.5 97l90 10l6 -10q-37 -170 -55 -344l-10 -12q-430 16 -625 16q-114 0 -285 -13.5t-235 -13.5 q-244 0 -398.5 176.5t-154.5 456.5zM260 676q0 -264 122 -429t318 -165q198 0 280 77.5t85 266.5l2 530q0 63 -11 105t-35 72t-68.5 46.5t-106 23.5t-152.5 7q-192 0 -313 -149t-121 -385z" />
<glyph unicode="&#x153;" horiz-adv-x="1652" d="M86 477q0 242 154 400.5t387 158.5q55 0 176 -10t194 -10q327 0 514 22l7 -10q-29 -127 -39 -274l-99 -9q4 45 4 68q0 33 -5 50.5t-17 31.5t-42.5 19t-70.5 7.5t-112 2.5q-76 0 -92.5 -9t-18.5 -51l-12 -291l170 -2q26 0 76.5 4.5t87.5 8.5l38 4l9 -10l-25 -107 q-141 4 -231 4l-129 -10l-6 -281q0 -65 20 -80.5t106 -15.5q68 0 109 2t77 10t54 19.5t33 35.5t22.5 51.5t14.5 74.5l90 8l6 -10q-29 -136 -45 -279l-10 -10q-344 12 -516 12q-91 0 -229 -10t-189 -10q-206 0 -333.5 136.5t-127.5 358.5zM258 535q0 -209 91.5 -332 t244.5 -123q151 0 213.5 56.5t64.5 193.5l2 409q0 112 -59 150.5t-227 38.5q-148 0 -239 -107.5t-91 -285.5z" />
<glyph unicode="&#x178;" horiz-adv-x="1101" d="M-39 1231l12 80q132 -6 226 -6q51 0 123.5 4t119.5 8l47 4l7 -14l-7 -72q-91 -7 -123 -22.5t-32 -51.5q0 -26 57 -158t113.5 -251t58.5 -119h10l234 434q33 61 33 102q0 53 -129 62l-4 8l12 80q151 -14 227 -14q36 0 83 2t77 4l29 2l8 -15l-13 -75q-93 -18 -132.5 -57 t-113.5 -171q-14 -25 -22 -39l-205 -360q-28 -48 -34.5 -105t-9.5 -217q0 -10 -0.5 -15t-0.5 -14v-16q-2 -79 17.5 -109t72.5 -30l101 6l4 -8l-19 -94q-170 6 -260 6q-45 0 -103.5 -6t-94.5 -12l-35 -7l12 95q56 11 87 24.5t48 41t21 60t4 95.5v90q0 63 -12 111.5t-47 119.5 l-185 375q-60 123 -79 150q-40 57 -108 75q-29 7 -71 11zM319 1573q0 42 29.5 72t73.5 30q39 0 61.5 -26t22.5 -62q0 -42 -29.5 -72t-73.5 -30q-39 0 -61.5 26.5t-22.5 61.5zM659 1573q0 42 29.5 72t73.5 30q39 0 61.5 -26t22.5 -62q0 -42 -29.5 -72t-73.5 -30 q-39 0 -61.5 26.5t-22.5 61.5z" />
<glyph unicode="&#x2c6;" horiz-adv-x="815" d="M111 1126q59 62 129.5 140.5t111.5 125.5l41 48h29q150 -175 283 -314l-29 -45l-19 -2q-46 41 -249 199q-166 -125 -250 -199l-19 2z" />
<glyph unicode="&#x2dc;" horiz-adv-x="815" d="M72 1171v11l155 182l33 8q35 0 153.5 -33.5t145.5 -33.5q21 0 53 28t54 56l22 28h12l45 -43v-10l-155 -182l-33 -8q-35 0 -153.5 33.5t-145.5 33.5q-22 0 -54 -28.5t-54 -56.5l-21 -28h-12z" />
<glyph unicode="&#x2000;" horiz-adv-x="866" />
<glyph unicode="&#x2001;" horiz-adv-x="1733" />
<glyph unicode="&#x2002;" horiz-adv-x="866" />
<glyph unicode="&#x2003;" horiz-adv-x="1733" />
<glyph unicode="&#x2004;" horiz-adv-x="577" />
<glyph unicode="&#x2005;" horiz-adv-x="433" />
<glyph unicode="&#x2006;" horiz-adv-x="288" />
<glyph unicode="&#x2007;" horiz-adv-x="288" />
<glyph unicode="&#x2008;" horiz-adv-x="216" />
<glyph unicode="&#x2009;" horiz-adv-x="346" />
<glyph unicode="&#x200a;" horiz-adv-x="96" />
<glyph unicode="&#x2010;" horiz-adv-x="663" d="M74 446l12 107l356 41l133 18l15 -18l-10 -111l-492 -53z" />
<glyph unicode="&#x2011;" horiz-adv-x="663" d="M74 446l12 107l356 41l133 18l15 -18l-10 -111l-492 -53z" />
<glyph unicode="&#x2012;" horiz-adv-x="663" d="M74 446l12 107l356 41l133 18l15 -18l-10 -111l-492 -53z" />
<glyph unicode="&#x2013;" horiz-adv-x="937" d="M-12 477l22 101q308 -3 490 -3q123 0 280 7q158 4 158 6l12 -21l-16 -104q-195 0 -559.5 -2t-374.5 -2z" />
<glyph unicode="&#x2014;" horiz-adv-x="1880" d="M-12 477l22 101q610 -3 961 -3q145 0 364 3.5t380 6.5t165 3l12 -21l-16 -104q-391 0 -1122 -2t-754 -2z" />
<glyph unicode="&#x2018;" horiz-adv-x="360" d="M57 1012q0 52 24 102t65 90t83.5 70t89.5 55l37 -31v-20q-63 -39 -105 -95.5t-42 -107.5q0 -78 82 -127l-4 -28q-73 -54 -119 -54q-47 0 -79 40t-32 106z" />
<glyph unicode="&#x2019;" horiz-adv-x="360" d="M4 897v21q64 40 106 95.5t42 106.5q0 78 -82 127l4 29q72 53 119 53t78.5 -39.5t31.5 -105.5q0 -52 -24.5 -102.5t-65 -90.5t-83 -70t-89.5 -55z" />
<glyph unicode="&#x201a;" horiz-adv-x="487" d="M31 -270q71 49 116.5 116t45.5 131q0 82 -66 144l4 29q72 53 119 53q45 0 74.5 -42.5t29.5 -117.5q0 -56 -26.5 -112.5t-71 -103.5t-91 -83t-97.5 -66l-37 31v21z" />
<glyph unicode="&#x201c;" horiz-adv-x="677" d="M57 1012q0 52 24 102t65 90t83.5 70t89.5 55l37 -31v-20q-63 -39 -105 -95.5t-42 -107.5q0 -78 82 -127l-4 -28q-73 -54 -119 -54q-47 0 -79 40t-32 106zM375 1012q0 52 24 102t65 90t83.5 70t89.5 55l37 -31v-20q-64 -40 -106 -96t-42 -107q0 -78 82 -127l-4 -28 q-73 -54 -119 -54q-47 0 -78.5 40t-31.5 106z" />
<glyph unicode="&#x201d;" horiz-adv-x="677" d="M4 897v21q64 40 106 95.5t42 106.5q0 78 -82 127l4 29q72 53 119 53t78.5 -39.5t31.5 -105.5q0 -52 -24.5 -102.5t-65 -90.5t-83 -70t-89.5 -55zM322 897v21q64 40 105.5 95.5t41.5 106.5q0 78 -82 127l4 29q72 53 119 53t79 -39.5t32 -105.5q0 -52 -24.5 -102.5 t-65.5 -90.5t-83.5 -70t-89.5 -55z" />
<glyph unicode="&#x201e;" horiz-adv-x="813" d="M63 -209q64 40 106 96t42 107q0 78 -82 127l4 29q72 53 119 53t78.5 -40t31.5 -106q0 -52 -24 -102t-65 -90t-83.5 -70t-89.5 -55l-37 31v20zM381 -209q63 39 105 95.5t42 107.5q0 78 -82 127l5 29q72 53 118 53q47 0 79 -40t32 -106q0 -52 -24 -102t-65 -90t-83.5 -70 t-89.5 -55l-37 31v20z" />
<glyph unicode="&#x2022;" horiz-adv-x="696" d="M123 461q0 97 64.5 164t162.5 67q100 0 162.5 -65.5t62.5 -157.5q0 -97 -65 -163t-166 -66t-161 64.5t-60 156.5z" />
<glyph unicode="&#x2026;" horiz-adv-x="1347" d="M123 92q0 54 35 90.5t92 36.5q55 0 86 -33.5t31 -83.5q0 -54 -35.5 -90.5t-93.5 -36.5q-55 0 -85 34.5t-30 82.5zM553 92q0 54 35 90.5t92 36.5q55 0 86 -33.5t31 -83.5q0 -54 -35.5 -90.5t-93.5 -36.5q-55 0 -85 34.5t-30 82.5zM983 92q0 54 35 90.5t92 36.5 q55 0 86 -33.5t31 -83.5q0 -54 -35.5 -90.5t-93.5 -36.5q-55 0 -85 34.5t-30 82.5z" />
<glyph unicode="&#x202f;" horiz-adv-x="346" />
<glyph unicode="&#x2039;" horiz-adv-x="534" d="M41 434v31q196 186 352 354l45 -31l2 -20l-219 -305l219 -318l-2 -20l-45 -31q-69 71 -157 156t-142 134z" />
<glyph unicode="&#x203a;" horiz-adv-x="534" d="M94 145l219 306l-219 317l2 20l45 31q69 -71 157.5 -156t141.5 -135l54 -49v-30q-197 -187 -353 -355l-45 31z" />
<glyph unicode="&#x205f;" horiz-adv-x="433" />
<glyph unicode="&#x20ac;" horiz-adv-x="1204" d="M25 362l10 60h153q-2 18 -2 55q0 55 9 107h-160l-10 14l10 59h178q55 174 204.5 277.5t356.5 103.5q62 0 136.5 -10t118.5 -20l44 -9l8 -12q-33 -122 -43 -278l-102 -7q4 41 4 80q0 144 -229 144q-130 0 -216.5 -70.5t-115.5 -198.5h4l375 9l12 -19l-6 -61l-395 -2 q-2 -16 -2 -54q0 -64 8 -108h8l375 8l12 -18l-6 -62l-373 -2q37 -125 123.5 -194.5t210.5 -69.5q108 0 172.5 58.5t93.5 183.5l103 8q-33 -152 -43 -273l-13 -16q-17 -7 -47 -17.5t-121.5 -28t-181.5 -17.5q-196 0 -324 96.5t-165 269.5h-164z" />
<glyph unicode="&#x2122;" horiz-adv-x="1153" d="M4 1143q8 88 10 164l9 8l79 -8h256l82 8l9 -8l10 -158l-66 -6q-7 52 -16 71.5t-26 25.5t-62 7q-8 -136 -8 -325q0 -29 10 -41.5t33 -12.5l45 2l2 -2l-6 -53q-99 4 -140 4l-135 -4l6 49q55 4 68.5 18t13.5 62v303q-65 -2 -82 -16.5t-26 -81.5zM487 813l7 51q24 1 35 13.5 t14 40.5q4 34 18 162t14 143q0 20 -12 27t-49 10l-6 6l8 43q71 -4 102 -4l84 4q24 -76 50.5 -154.5t41.5 -118.5l15 -41h8q54 144 111 312q5 0 24.5 -0.5t37.5 -0.5t32 1l84 4l4 -4l-6 -45q-35 -3 -47.5 -12t-12.5 -29q0 -69 19 -283q5 -42 13 -56t28 -14l22 2l4 -4l-8 -49 q-49 2 -82 2q-98 0 -116 -6l6 51q47 3 47 37l-19 258h-6q-63 -151 -131 -346l-53 -6q-89 256 -129 352h-8q-17 -248 -17 -266q0 -25 25 -25h29l4 -4l-8 -47q-68 2 -95 2z" />
<glyph unicode="&#x25fc;" horiz-adv-x="1034" d="M0 0v1034h1034v-1034h-1034z" />
<glyph unicode="&#xfb01;" horiz-adv-x="1566" d="M111 -18l10 84q77 14 103 42t26 97l2 649q0 52 -12.5 69t-49.5 17l-55 -2l-4 8l12 78q146 -4 252 -4q318 0 471 18l8 -10q-28 -131 -38 -278l-99 -7q4 50 4 70q0 40 -5.5 59.5t-29.5 32.5t-62.5 16t-115.5 3q-76 0 -92 -9t-18 -51l-15 -317l170 -2q23 0 67 4t77 8l33 4 l8 -10l-23 -109q-127 4 -205 4q-56 0 -129 -10l-6 -241q0 -64 15 -85.5t59 -21.5l115 6l6 -10l-15 -90q-163 6 -253 6q-42 0 -94.5 -4.5t-84.5 -9.5zM1022 -18l10 84q78 13 104.5 41t26.5 96l2 651q0 51 -12 68.5t-49 17.5l-68 -2l-4 8l10 78q3 0 41 -1t87 -2t81 -1 q34 0 85 3.5t86 6.5l34 4l-8 -84q-68 -7 -91 -25.5t-26 -64.5q-22 -401 -22 -670q0 -66 14 -88t57 -22l84 6l4 -8l-14 -82q-149 4 -227 4q-39 0 -90.5 -4.5t-82.5 -9.5z" />
<glyph unicode="&#xfb02;" horiz-adv-x="1818" d="M111 -18l10 84q77 14 103 42t26 97l2 649q0 52 -12.5 69t-49.5 17l-55 -2l-4 8l12 78q146 -4 252 -4q318 0 471 18l8 -10q-28 -131 -38 -278l-99 -7q4 50 4 70q0 40 -5.5 59.5t-29.5 32.5t-62.5 16t-115.5 3q-76 0 -92 -9t-18 -51l-15 -317l170 -2q23 0 67 4t77 8l33 4 l8 -10l-23 -109q-127 4 -205 4q-56 0 -129 -10l-6 -241q0 -64 15 -85.5t59 -21.5l115 6l6 -10l-15 -90q-163 6 -253 6q-42 0 -94.5 -4.5t-84.5 -9.5zM1038 -16l13 86q65 9 88.5 37.5t23.5 97.5l2 649q0 52 -12 69t-49 17l-55 -2l-7 8l13 78q3 0 38.5 -1t82.5 -2t77 -1 q32 0 82 3.5t83 6.5l34 4l-8 -86q-74 -9 -91.5 -30t-22.5 -89v-5.5t-0.5 -6t-0.5 -6.5q-20 -276 -20 -608q0 -74 23.5 -94.5t109.5 -20.5q59 0 95 5.5t64.5 18.5t45.5 41.5t28.5 66.5t22.5 102l90 10l6 -13q-29 -153 -47 -321l-10 -12q-289 14 -457 14q-58 0 -118.5 -4 t-91.5 -8z" />
</font>
</defs>
</svg>
