<?xml version="1.0" standalone="no"?>
<!DOCTYPE svg PUBLIC "-//W3C//DTD SVG 1.1//EN" "http://www.w3.org/Graphics/SVG/1.1/DTD/svg11.dtd" >
<svg xmlns="http://www.w3.org/2000/svg">
<metadata></metadata>
<defs>
<font id="alegreyabold_italic" horiz-adv-x="999" >
<font-face units-per-em="2048" ascent="1638" descent="-410" />
<missing-glyph horiz-adv-x="339" />
<glyph horiz-adv-x="0" />
<glyph horiz-adv-x="682" />
<glyph unicode=" "  horiz-adv-x="339" />
<glyph unicode="&#x09;" horiz-adv-x="339" />
<glyph unicode="&#xa0;" horiz-adv-x="339" />
<glyph unicode="!" horiz-adv-x="561" d="M53 111q0 84 52 137t135 53q63 0 98 -36t35 -97q0 -83 -51.5 -137t-135.5 -54q-64 0 -98.5 37t-34.5 97zM182 483l66 881l31 35l276 45l31 -37l-240 -928l-135 -22z" />
<glyph unicode="&#x22;" horiz-adv-x="636" d="M143 844q16 105 26.5 221.5t13.5 180.5l3 65l207 28l13 -20q-58 -225 -130 -442l-104 -41zM434 844q15 105 25 221.5t13 180.5l3 65l209 28l12 -20q-57 -225 -129 -442l-104 -41z" />
<glyph unicode="#" horiz-adv-x="1044" d="M8 387l45 141l199 -2l33 107l26 86h-184l-8 22l45 144l194 -2l88 284l152 15l20 -13l-94 -286h90l91 -2l88 286l151 15l21 -13l-95 -286l191 4l8 -25l-45 -143h-205l-18 -57l-41 -134l188 2l8 -24l-43 -141h-200l-84 -275l-148 -22l-20 16l90 281l-109 2l-75 -2l-84 -275 l-150 -22l-18 16l88 281l-187 -3zM414 526h86l98 -2l35 109l26 88h-186l-18 -59z" />
<glyph unicode="$" horiz-adv-x="892" d="M29 68q45 143 63 268l156 12q-14 -116 17 -162.5t126 -46.5q75 0 121.5 32.5t46.5 84.5q0 46 -43 79t-131 75q-36 18 -53.5 27t-50.5 28.5t-50 33.5t-41 37t-35.5 44.5t-20.5 50.5t-9 61q0 136 105 230t278 116l67 291l146 19l10 -19l-65 -287q60 -4 119.5 -14t88.5 -18 l29 -9l10 -24q-44 -130 -73 -275l-144 -10l-14 10q10 49 10 74q0 53 -32.5 77t-102.5 24q-67 0 -112.5 -32t-45.5 -81q0 -37 30.5 -65t90.5 -60q19 -10 58 -29t63 -32t59 -33.5t56.5 -40.5t43 -46.5t32 -58t10.5 -67.5q0 -145 -113 -238t-307 -108l-68 -295l-143 -17l-12 15 l67 297q-60 6 -116 20.5t-82 25.5l-27 11z" />
<glyph unicode="%" horiz-adv-x="1417" d="M90 915q0 191 99.5 307.5t256.5 116.5q119 0 184.5 -76t65.5 -202q0 -188 -96.5 -308t-255.5 -120q-118 0 -186 74.5t-68 207.5zM145 -106q248 369 424 647l537 848l127 -52l14 -39q-361 -547 -545 -833l-413 -655l-133 55zM223 973q0 -69 44.5 -103t117.5 -34 q176 0 176 155q0 64 -42 100.5t-122 36.5q-85 0 -129.5 -40.5t-44.5 -114.5zM788 258q0 191 100 307.5t257 116.5q119 0 184.5 -76.5t65.5 -202.5q0 -188 -97.5 -308t-257.5 -120q-116 0 -184 76t-68 207zM920 317q0 -70 44 -103.5t119 -33.5q177 0 177 154q0 65 -42 102 t-122 37q-85 0 -130.5 -41.5t-45.5 -114.5z" />
<glyph unicode="&#x26;" horiz-adv-x="1169" d="M63 303q0 114 84 209t224 141q-92 44 -140.5 119.5t-48.5 171.5q0 104 67 195.5t179 145.5t238 54q156 0 327 -51l13 -20q-27 -72 -53 -166.5t-33 -149.5l-164 -10q14 67 14 94q0 57 -37 89t-106 32q-102 0 -161.5 -53.5t-59.5 -145.5q0 -91 58.5 -148.5t151.5 -57.5 l508 39q67 4 118.5 28.5t119.5 83.5l45 -33l-84 -165q-29 -57 -66 -79t-104 -22h-145l-11 -14q47 -50 47 -139q0 -121 -78.5 -232t-207.5 -177.5t-271 -66.5q-193 0 -308.5 89t-115.5 239zM309 358q0 -92 61.5 -150t161.5 -58q136 0 223 79.5t87 206.5q0 74 -30 121t-77 47 h-225q-108 -52 -154.5 -109.5t-46.5 -136.5z" />
<glyph unicode="'" horiz-adv-x="348" d="M143 844q16 105 26.5 221.5t13.5 180.5l3 65l207 28l13 -20q-58 -225 -130 -442l-104 -41z" />
<glyph unicode="(" horiz-adv-x="610" d="M119 334l43 354q12 102 42.5 193t69.5 154t83 115.5t85.5 84.5t75 54t54.5 31l20 9h22l56 -94l-4 -12q-9 -5 -25 -14.5t-57.5 -50t-76 -92t-69 -144.5t-47.5 -203l-43 -354q-14 -128 -4.5 -223t35 -160t52.5 -104.5t48 -57.5l21 -17l-2 -16l-95 -86h-16q-13 6 -35 18 t-75.5 62.5t-91 115t-60.5 181.5t-6 256z" />
<glyph unicode=")" horiz-adv-x="618" d="M-45 -205l2 12q9 5 24.5 14.5t57 50t75.5 92t68.5 144.5t48.5 203l43 355q14 128 4.5 223t-35 159.5t-52 104t-47.5 57.5l-21 17l2 16l94 86h17q13 -6 35 -18t75 -62.5t90.5 -115t61 -181.5t6.5 -256l-45 -354q-12 -102 -42.5 -193t-69 -154t-82.5 -115.5t-85 -84.5 t-74.5 -54t-53.5 -31l-21 -9h-23z" />
<glyph unicode="*" horiz-adv-x="804" d="M164 1208q-1 92 22 164l21 6q103 -53 209 -135l-15 -84l-16 -12q-47 16 -102.5 31t-86.5 22zM207 940v21q81 79 192 157l76 -41l6 -16q-29 -41 -60.5 -89.5t-48.5 -77.5l-16 -28q-90 29 -149 74zM426 1495q90 29 164 29l14 -17q-22 -112 -63 -241l-86 -11l-15 9 q-1 51 -4.5 109t-6.5 90zM512 1065l63 59h19q29 -40 65 -85t57 -70l21 -25q-53 -76 -114 -119l-21 6q-49 103 -90 234zM563 1231l4 20q48 16 102.5 36.5t84.5 32.5l30 13q56 -75 76 -147l-12 -17q-13 -2 -35.5 -4.5t-87.5 -6.5t-125 -3z" />
<glyph unicode="+" d="M31 444l51 185q176 -2 334 -2l45 368l188 23l23 -14q-38 -217 -58 -377l361 12l10 -25l-45 -188l-352 -2l-39 -344l-187 -31l-18 17q25 190 45 358l-346 -2z" />
<glyph unicode="," horiz-adv-x="468" d="M-49 -190q66 44 106.5 108t40.5 125q0 40 -17 80.5t-44 69.5l4 28q93 70 162 70q61 0 100 -49t39 -133q0 -106 -90 -213t-223 -183l-78 62v35z" />
<glyph unicode="-" horiz-adv-x="638" d="M63 422l35 160l326 39l149 20l17 -27l-37 -163l-473 -54z" />
<glyph unicode="." horiz-adv-x="471" d="M35 111q0 84 51.5 137t134.5 53q63 0 98 -36t35 -97q0 -83 -52 -137t-134 -54q-65 0 -99 36.5t-34 97.5z" />
<glyph unicode="/" horiz-adv-x="649" d="M-45 -203q145 356 260 666l340 919h166l22 -30q-227 -581 -352 -912l-248 -665h-174z" />
<glyph unicode="0" horiz-adv-x="985" d="M45 401q0 282 154 462.5t391 180.5q171 0 265.5 -112.5t94.5 -308.5q0 -284 -152 -466t-388 -182q-172 0 -268.5 113.5t-96.5 312.5zM217 479q0 -108 68 -171.5t188 -63.5q141 0 222 76.5t81 207.5q0 110 -69 174t-191 64q-139 0 -219 -78t-80 -209z" />
<glyph unicode="1" horiz-adv-x="722" d="M0 -23l29 129q102 9 145 49t53 140l56 440q9 71 -10 94t-76 23q-16 0 -41 -2.5t-42 -5.5l-16 -2l-10 14l27 117q81 7 243 31q85 12 155.5 22t96.5 14t27 4l14 -61q-38 -29 -58.5 -63t-37.5 -97q-28 -135 -43 -210t-32 -193.5t-17 -192.5q0 -50 17.5 -72t56.5 -22l96 6 l4 -10l-39 -137q-185 8 -285 8q-20 0 -43.5 -1t-46.5 -2.5t-47 -3t-45.5 -3.5t-41.5 -4t-36.5 -4t-28.5 -3t-18 -1z" />
<glyph unicode="2" horiz-adv-x="956" d="M-25 49l168 170q187 193 268 309t83 191q6 108 -107 108q-57 0 -120 -41.5t-117 -115.5h-27l-19 151q92 104 202.5 163.5t215.5 59.5q129 0 206 -64.5t77 -170.5q0 -71 -30 -134.5t-122.5 -170.5t-285.5 -297l8 -17h178q90 0 133.5 39t75.5 148l160 14 q-70 -219 -103 -385l-33 -24q-485 18 -673 18l-129 -18z" />
<glyph unicode="3" horiz-adv-x="856" d="M-35 4l31 29q70 -27 166 -27q131 0 220 61t89 154q0 73 -65.5 108.5t-202.5 35.5l-17 20l2 127l131 29q76 34 123 91t47 118q0 44 -29.5 71t-76.5 27q-99 0 -227 -100q-3 0 -12 -1.5t-13 -1.5l-25 146q73 50 188 101.5t202 51.5q124 0 197 -58t73 -155q0 -93 -70 -176 t-186 -129l-2 -16q120 -34 182 -97t62 -149q0 -109 -99 -219.5t-252 -180t-301 -69.5q-84 0 -113.5 47t-21.5 162z" />
<glyph unicode="4" horiz-adv-x="929" d="M-35 150q3 23 11.5 69t11.5 68l614 753q2 0 6.5 2t5.5 2l172 -22l-86 -700h160l14 -23l-38 -170q-64 2 -156 6l-25 -297l-18 -18l-240 -25l-12 21q28 178 51 325q-346 9 -471 9zM199 322h260l47 364h-21z" />
<glyph unicode="5" horiz-adv-x="843" d="M-57 4l30 29q73 -27 168 -27q134 0 225 60t91 153q0 72 -78.5 115t-267.5 72l-15 22q26 119 53.5 257.5t41.5 216.5l14 79l16 16l385 15q57 3 84.5 19.5t50.5 62.5l113 8l-88 -301l-29 -27q-176 17 -389 17l-37 -189q213 -38 320.5 -110t107.5 -195q0 -93 -61.5 -186 t-156.5 -161.5t-214 -111.5t-229 -43q-80 0 -112 46t-23 163z" />
<glyph unicode="6" horiz-adv-x="917" d="M43 354q0 107 27 205t73 173.5t105.5 143t125 116t131.5 89t125.5 67t105.5 44.5t73 26l27 7l18 -11l27 -112q-13 -5 -36.5 -15t-89 -47t-124 -81.5t-127 -120.5t-113.5 -162l6 -12q2 1 74 35.5t100 39.5q139 0 217 -87t78 -218q0 -197 -137 -328t-350 -131 q-157 0 -246.5 104.5t-89.5 274.5zM289 354q0 -100 37.5 -156.5t107.5 -56.5q87 0 133.5 63t46.5 173q0 80 -38 131t-105 51q-74 0 -162 -57q-20 -106 -20 -148z" />
<glyph unicode="7" horiz-adv-x="845" d="M63 598q56 234 89 420l14 10q117 -8 240 -8h430l67 -98q-58 -100 -112.5 -196.5t-92 -163.5t-85 -154.5t-69.5 -129.5t-69 -131.5t-63 -119.5l-93 -232h-34l-176 55l-17 52l547 905l-258 -16q-94 -7 -129 -41t-66 -140z" />
<glyph unicode="8" horiz-adv-x="946" d="M45 240q0 66 25 122.5t67.5 96t81.5 65t84 45.5q-158 112 -158 273q0 156 131.5 269.5t315.5 113.5q132 0 221.5 -70.5t89.5 -187.5q0 -58 -19.5 -108.5t-53 -88t-67.5 -63t-73 -45.5q168 -110 168 -271q0 -113 -64 -208.5t-173.5 -151.5t-237.5 -56q-147 0 -242.5 72.5 t-95.5 192.5zM274 297q0 -71 44 -120.5t114 -49.5q74 0 127 50t53 124q0 23 -6.5 43t-25 40t-30.5 32t-45 32.5t-45 27.5t-54 30q-132 -87 -132 -209zM391 913q0 -32 13.5 -58.5t43.5 -51t54.5 -40t70.5 -40.5q99 81 99 195q0 69 -34.5 107t-92.5 38q-66 0 -110 -44.5 t-44 -105.5z" />
<glyph unicode="9" horiz-adv-x="917" d="M47 -82q13 5 36.5 14.5t89 46.5t124 81t127 120t113.5 162l-9 14q-5 -2 -39.5 -20t-73 -35t-59.5 -20q-139 0 -216 87t-77 218q0 197 136.5 327.5t349.5 130.5q157 0 247.5 -104t90.5 -274q0 -107 -27 -205t-73 -174t-105.5 -143t-125 -116t-131.5 -90t-125.5 -67 t-105.5 -44t-73 -26l-27 -8l-18 12zM313 641q0 -80 38.5 -130t105.5 -50q70 0 159 55q21 83 21 148q0 101 -36.5 158t-104.5 57q-89 0 -136 -63.5t-47 -174.5z" />
<glyph unicode=":" horiz-adv-x="468" d="M35 111q0 84 51.5 137t134.5 53q63 0 98 -36t35 -97q0 -83 -52 -137t-134 -54q-65 0 -99 36.5t-34 97.5zM102 670q0 84 52 137t135 53q63 0 98 -36t35 -97q0 -83 -52 -136.5t-134 -53.5q-65 0 -99.5 36t-34.5 97z" />
<glyph unicode=";" horiz-adv-x="468" d="M-51 -190q66 44 106.5 108t40.5 125q0 40 -17 80.5t-44 69.5l4 28q93 70 162 70q61 0 100 -49t39 -133q0 -106 -90 -213t-223 -183l-78 62v35zM102 670q0 84 52 137t135 53q63 0 98 -36t35 -97q0 -83 -52 -136.5t-134 -53.5q-65 0 -99.5 36t-34.5 97z" />
<glyph unicode="&#x3c;" horiz-adv-x="921" d="M53 463l29 199l395 167l365 156l24 -16l23 -156q-211 -77 -373 -145l-250 -103l-2 -14l248 -123l303 -147l6 -31l-102 -133q-158 79 -301 151l-350 168z" />
<glyph unicode="=" d="M8 264l51 185q287 -3 461 -3q71 0 179 3t181 7l72 3l11 -25l-45 -188l-449 -2l-449 -2zM53 629l51 184q285 -2 461 -2q70 0 178 3t181 6l73 3l11 -24l-43 -189l-451 -2l-448 -2z" />
<glyph unicode="&#x3e;" horiz-adv-x="921" d="M53 289q211 75 373 143l250 103l2 14l-248 123l-303 147l-6 33l102 133q158 -82 301 -154l353 -165l12 -27l-27 -201l-395 -168l-367 -153l-22 14z" />
<glyph unicode="?" horiz-adv-x="733" d="M109 111q0 84 51 137t135 53q63 0 98 -36t35 -97q0 -83 -52 -137t-134 -54q-64 0 -98.5 37t-34.5 97zM180 711l10 28l228 129q121 69 121 164q0 89 -87 138.5t-247 58.5l-12 28l94 173l32 14q206 -6 341 -100t135 -230q0 -55 -18 -103.5t-38 -80.5t-76 -77t-88.5 -67 t-119.5 -78q-24 -16 -37 -24l-6 -14l6 -170l-15 -23l-184 -37l-22 13z" />
<glyph unicode="@" horiz-adv-x="1712" d="M33 367q0 184 72.5 357t195.5 303.5t298.5 209t369.5 78.5q219 0 386 -82t257 -229t90 -336q0 -146 -48 -272.5t-136.5 -220t-224 -147t-300.5 -53.5q-42 0 -66 22.5t-24 61.5q0 23 25.5 143t44.5 193l-17 2q-91 -166 -169.5 -265.5t-159.5 -156.5q-113 0 -174.5 80.5 t-61.5 218.5q0 163 74.5 322.5t190 258.5t229.5 99l178 -36l14 45l25 14l164 -29l16 -35q-109 -418 -158 -741l13 -12q181 0 284 122t103 320q0 257 -165.5 403t-447.5 146q-152 0 -283 -57.5t-221 -156.5t-141 -233t-51 -284q0 -163 48.5 -296t143 -231.5t243.5 -155 t341 -61.5v-32l-63 -103q-211 4 -381 67.5t-282 173t-172 258.5t-60 327zM647 387q0 -72 12.5 -122t30.5 -50q45 0 139.5 154t174.5 364q-105 60 -181 60q-42 0 -83 -58t-67 -153t-26 -195z" />
<glyph unicode="A" horiz-adv-x="1236" d="M-80 -6l31 135q47 8 80 38.5t65 98.5l471 1037l322 34l22 -10q95 -708 158 -1059q12 -73 41 -103t94 -38l8 -14l-28 -119q-158 6 -244 6q-76 0 -160.5 -4t-131.5 -8l-46 -4l-8 16l24 121q99 7 130.5 24t31.5 62q0 13 -4 59l-18 158q-54 4 -178 4q-97 0 -191 -14l-65 -158 q-21 -52 -21 -76q0 -53 80 -53h86l6 -12l-29 -127q-161 12 -286 12zM461 584h137q55 0 145 8l-57 457h-29z" />
<glyph unicode="B" horiz-adv-x="1243" d="M10 -20l31 135q88 17 122.5 51t43.5 113l100 802q2 20 2 36q0 29 -7 44q-11 23 -46 23l-68 -4l-12 16l35 123q204 -6 274 -6l287 12q190 0 297 -72.5t107 -205.5q0 -221 -254 -353q117 -37 180 -109t63 -169q0 -195 -153.5 -315.5t-403.5 -120.5q-29 1 -144 10.5 t-159 9.5q-51 0 -125 -5t-122 -10zM465 272q-2 -12 -2 -22q0 -47 33 -70q40 -28 141 -28q104 0 165.5 62.5t61.5 168.5q0 75 -43.5 125t-128.5 70l-180 -3zM537 754q149 -19 184 -19q7 2 18 7t39 25.5t50 46t39.5 71.5t17.5 100q0 89 -60 131.5t-186 42.5q-21 0 -28.5 -7.5 t-12.5 -29.5q-24 -121 -61 -368z" />
<glyph unicode="C" horiz-adv-x="1216" d="M66 524q0 372 205.5 592.5t551.5 220.5q74 0 175 -12.5t165 -24.5l64 -12l8 -26q-61 -170 -100 -385l-199 -13q18 96 18 135q0 146 -202 146q-174 0 -270.5 -150.5t-96.5 -431.5q0 -194 69 -296.5t199 -102.5q107 0 173 65t110 217l199 15q-59 -211 -86 -379l-21 -25 q-7 -3 -21 -8.5t-58 -20t-91 -25t-117 -19.5t-139 -9q-249 0 -392.5 146.5t-143.5 402.5z" />
<glyph unicode="D" horiz-adv-x="1368" d="M14 -20l31 137q85 15 118.5 50.5t45.5 121.5l96 782q3 28 3 48q0 27 -6 41q-10 22 -44 22l-68 -4l-8 18l31 123q174 -6 252 -6l297 10q271 0 429.5 -140.5t158.5 -387.5q0 -173 -58.5 -325.5t-160 -261t-245 -171t-306.5 -62.5q-195 25 -308 25q-46 0 -110.5 -5 t-105.5 -10zM465 256q0 -63 31.5 -86t115.5 -23q195 0 307.5 167t112.5 456q0 381 -377 381q-32 0 -44 -10t-17 -39q-129 -793 -129 -846z" />
<glyph unicode="E" horiz-adv-x="1179" d="M10 -20l33 137q83 12 117.5 48.5t44.5 125.5l98 782q4 31 4 52q1 25 -5 37q-10 22 -48 22l-61 -4l-11 18l31 121q218 -6 365 -6q422 0 606 24l12 -20q-57 -181 -90 -371l-184 -12q16 72 16 117q0 61 -45.5 78.5t-190.5 17.5q-69 0 -86.5 -11t-25.5 -57l-53 -323 q19 0 86 -1t98 -1q28 0 85.5 4t101.5 8l44 4l13 -16l-50 -174q-158 6 -256 6q-37 0 -151 -13q-6 -42 -16.5 -107.5t-16 -101t-10 -73.5t-4.5 -58q0 -49 23 -62t94 -13q65 0 105.5 2.5t76.5 12.5t56 23.5t39 42t31 63t27 89.5l170 15l13 -21q-60 -182 -103 -379l-22 -20 q-367 14 -613 14q-78 0 -165 -5t-135 -10z" />
<glyph unicode="F" horiz-adv-x="1052" d="M10 -23l31 136q86 17 119.5 53.5t44.5 124.5l98 782q4 31 4 52q1 25 -5 37q-10 22 -48 22l-61 -4l-11 18l31 121q218 -6 365 -6q386 0 559 24l12 -20q-53 -185 -86 -373l-182 -12q16 74 16 121q0 59 -39 76.5t-156 17.5q-69 0 -86.5 -11t-25.5 -57l-58 -358l185 -2 q26 0 78.5 4t91.5 8l39 4l12 -16l-47 -174q-146 6 -236 6q-69 0 -151 -14l-37 -250q-3 -28 -3 -49q0 -35 8 -53q14 -29 65 -29q23 0 55 2.5t53 5.5l21 2l14 -21l-39 -153q-209 8 -307 8q-68 0 -149 -6t-128 -12z" />
<glyph unicode="G" horiz-adv-x="1288" d="M66 524q0 372 205.5 592.5t551.5 220.5q74 0 175 -12.5t165 -24.5l64 -12l8 -26q-61 -156 -100 -371l-199 -14q18 88 18 127q0 141 -202 141q-174 0 -270.5 -150.5t-96.5 -431.5q0 -194 69 -296.5t199 -102.5q52 0 101.5 13t73.5 27l24 13l22 195q2 19 2 34q0 33 -10 46 q-13 18 -65 18h-103l-8 16l39 144q-1 0 17 -0.5t48 -1t65.5 -1t75.5 -1t71 -0.5q38 0 85.5 2t78 4.5t30.5 3.5l4 -78q-73 -46 -90 -168q-12 -62 -23.5 -155t-11.5 -123l2 -68l-20 -25q-7 -3 -20.5 -9t-59 -20.5t-95 -25.5t-127 -20t-157.5 -9q-249 0 -392.5 146.5 t-143.5 402.5z" />
<glyph unicode="H" horiz-adv-x="1474" d="M12 -18l31 131q95 20 125.5 58.5t42.5 147.5l92 758q3 27 3 47q0 27 -6 39q-11 21 -54 21l-60 -2l-8 16l29 119q155 -4 237 -4q44 0 119 4t129 8l53 4l-26 -135q-76 -12 -99.5 -37.5t-35.5 -109.5l-49 -295q85 0 249 -4q123 0 232 14l41 315q4 26 4 45q1 26 -7 40 q-12 22 -55 22l-61 -2l-8 16l31 119q-3 0 54 -1t126.5 -2t97.5 -1q44 1 110.5 5t110.5 8l45 3l-24 -133q-74 -11 -101 -33t-37 -80q-39 -220 -82.5 -512.5t-43.5 -349.5q0 -51 15 -70.5t52 -19.5l74 6q0 -1 3.5 -6t4.5 -8l-33 -129q-137 6 -243 6h-82l-242 -4l33 133 q82 2 116.5 40.5t47.5 147.5l32 265q-139 2 -211 2q-23 0 -92.5 -5t-127.5 -11l-58 -5l-29 -225q-15 -99 -15 -136q0 -8 1 -14q1 -33 14.5 -45t46.5 -12l72 6l8 -14l-33 -129q-167 6 -241 6q-57 0 -133 -3t-130 -7.5t-55 -7.5z" />
<glyph unicode="I" horiz-adv-x="720" d="M10 -18l31 131q89 19 122.5 53t43.5 119l96 792q3 26 3 45q0 26 -6 40q-12 22 -54 22l-68 -2l-8 16l29 119q21 0 122.5 -2t153.5 -2q39 0 110.5 4t122.5 8l52 4l-29 -135q-76 -10 -103 -32t-38 -79q-45 -260 -87 -536.5t-42 -333.5q0 -46 14.5 -64t48.5 -17l86 5l6 -14 l-32 -129q-205 6 -293 6q-50 0 -120.5 -4.5t-115.5 -9.5z" />
<glyph unicode="J" horiz-adv-x="657" d="M-86 -231l8 22q131 85 183 177.5t77 283.5l103 825q3 26 3 44q0 29 -6 41q-11 22 -51 22l-86 -6l-6 16l29 119l246 2q61 0 136.5 4t121.5 8l45 4l-29 -137q-65 -12 -86 -31.5t-31 -79.5q-26 -144 -68.5 -429t-62.5 -445q-28 -204 -142 -328.5t-337 -193.5z" />
<glyph unicode="K" horiz-adv-x="1304" d="M12 -6l35 129q88 14 119 45t41 117l96 792q3 27 3 47q0 27 -6 39q-11 21 -54 21l-60 -2l-8 16l31 121q211 -6 266 -6q37 0 106.5 4t120.5 8l50 4l-27 -135q-76 -15 -104.5 -39t-36.5 -80l-119 -805q-5 -39 -5 -65q0 -31 6 -46q12 -28 58 -28l78 6l8 -14l-35 -129 q-198 6 -284 6zM551 647l10 43l322 324q71 71 71 116q0 27 -22 40t-72 16l-6 14l31 125q166 -12 248 -12l233 10l10 -23l-28 -114q-69 -27 -125.5 -71t-145.5 -140l-250 -264l209 -414q47 -94 92.5 -135t108.5 -45l12 -17l-28 -106q-201 -25 -236 -25q-62 0 -109.5 41.5 t-89.5 130.5z" />
<glyph unicode="L" horiz-adv-x="1050" d="M20 -20l33 137q77 12 109.5 48.5t42.5 125.5l98 786q3 24 3 41q0 30 -8 44q-12 22 -54 22l-60 -2l-8 16l31 119q21 0 119.5 -2t148.5 -2q40 0 117 4t134 8l58 4l-30 -141q-97 -12 -126 -37.5t-46 -116.5q-31 -165 -74 -452t-43 -340q0 -50 22 -67t86 -17q73 0 116 10.5 t77 46.5t54.5 92.5t43.5 159.5l172 16l13 -18q-60 -221 -111 -461l-23 -20q-317 16 -550 16q-78 0 -164.5 -5t-133.5 -10z" />
<glyph unicode="M" horiz-adv-x="1660" d="M-6 -16l31 135q59 8 88.5 40t46.5 107q174 786 174 846q0 38 -29.5 56t-107.5 24l-11 12l33 119q178 -10 250 -10l219 8q28 -207 64.5 -419.5t59.5 -321.5l22 -109h16q172 388 352 846h19q31 1 95 -1q49 -1 84 -2q28 0 48 1l201 10l8 -8l-29 -123q-84 -6 -115.5 -29 t-37.5 -80q-8 -68 -21.5 -328t-17.5 -438q-1 -24 -1 -45q-1 -75 11 -105q14 -38 61 -38l58 4l6 -10l-33 -131q-119 6 -203 6q-45 0 -163.5 -6.5t-129.5 -9.5l33 135q59 8 87 31.5t34 70.5q4 36 16.5 210.5t22.5 331.5l10 157h-18q-252 -554 -414 -936l-149 -17 q-81 450 -183 953h-16q-129 -703 -129 -736q0 -28 13 -40.5t42 -12.5l68 2l10 -10l-39 -131q-169 8 -235 8q-35 0 -85 -4t-83 -8z" />
<glyph unicode="N" horiz-adv-x="1439" d="M25 -16l32 135q61 8 92.5 37.5t40.5 91.5l125 813q2 14 2 27q0 44 -23 64q-29 26 -124 36l-12 20l26 115q132 -10 232 -10q38 0 85.5 2t76.5 4l28 2q90 -195 195 -407.5t165 -327.5l60 -115h21l71 625q1 11 1 21q1 31 -9 47q-12 20 -45 20q-17 0 -42 -1t-26 -1l-6 16 l29 123q168 -8 256 -8q43 0 101.5 3t96.5 6l37 3l-26 -135q-66 -9 -98 -38.5t-41 -90.5l-160 -1092l-217 -26q-108 228 -222.5 459t-175.5 348l-61 116h-18l-82 -645q-2 -17 -2 -30q0 -28 8 -42q12 -20 51 -20l84 4l10 -12l-35 -129q-170 8 -256 8q-47 0 -108.5 -4t-99.5 -8 z" />
<glyph unicode="O" horiz-adv-x="1331" d="M66 522q0 239 89.5 424.5t254 288t378.5 102.5q243 0 384 -143.5t141 -394.5q0 -240 -91.5 -427.5t-258 -292t-379.5 -104.5q-236 0 -377 147.5t-141 399.5zM379 535q0 -181 68 -283t190 -102q165 0 260.5 160.5t95.5 449.5q0 181 -70.5 283t-193.5 102 q-161 0 -255.5 -162t-94.5 -448z" />
<glyph unicode="P" horiz-adv-x="1142" d="M18 -16l31 135q83 15 115.5 49.5t42.5 120.5l96 784q4 29 4 49q0 26 -6 39q-10 23 -45 23l-70 -4l-10 16l33 121q18 0 109.5 -2t138.5 -2l284 10q119 0 208.5 -27.5t141.5 -75.5t77.5 -107t25.5 -128q0 -100 -44 -195.5t-116 -166t-167.5 -113.5t-194.5 -43h-178 l-31 -211q-4 -28 -4 -49q0 -33 10 -49q17 -27 74 -27l86 6l6 -12l-35 -131q-176 6 -250 6q-46 0 -127.5 -3.5t-142.5 -7.5t-62 -5zM520 645l168 -24q108 25 163.5 108t55.5 215q0 108 -64 158.5t-200 50.5q-29 0 -35.5 -5.5t-9.5 -29.5q-44 -228 -78 -473z" />
<glyph unicode="Q" horiz-adv-x="1339" d="M66 522q0 239 89.5 424.5t254 288t378.5 102.5q243 0 384 -143.5t141 -394.5q0 -286 -128.5 -494t-348.5 -287v-6q281 -233 497 -233q40 0 82.5 5t64.5 10l23 5l15 -12l12 -84q-26 -19 -66 -47t-118.5 -74.5t-102.5 -46.5q-69 0 -123 15t-131 65t-170.5 132t-245.5 228 q-231 3 -369 150.5t-138 396.5zM379 535q0 -181 68 -283t190 -102q165 0 260.5 160.5t95.5 449.5q0 181 -70.5 283t-193.5 102q-161 0 -255.5 -162t-94.5 -448z" />
<glyph unicode="R" horiz-adv-x="1271" d="M10 -12l35 135q85 12 118.5 45.5t43.5 120.5l98 794q2 22 2 39q0 28 -6 41q-10 21 -45 21l-70 -4l-10 16l33 123q170 -6 248 -6l286 10q211 0 330 -80t119 -227q0 -137 -76.5 -247.5t-226.5 -184.5l133 -293q45 -93 91 -134.5t108 -41.5l12 -19l-27 -106l-239 -23 q-129 0 -195 191l-123 360h-149l-31 -231q-6 -42 -6 -72q0 -42 12 -58q20 -27 115 -28l6 -12l-35 -125q-176 6 -264 6h-33q-44 0 -94 -2q-72 -2 -116 -5zM526 696l176 -20q20 8 39 17.5t50.5 34.5t54 54.5t40 79t17.5 107.5q0 190 -268 190q-20 0 -27.5 -8.5t-13.5 -36.5 q-34 -181 -68 -418z" />
<glyph unicode="S" horiz-adv-x="1067" d="M20 82q55 176 78 346l170 14q-7 -56 -7 -101q-1 -85 25 -125q38 -62 163 -62q99 0 161 48t62 126q0 61 -53.5 107t-159.5 102q-136 74 -189 116q-128 104 -129 244q0 191 157.5 315.5t403.5 124.5q88 0 176 -13.5t132 -26.5l45 -13l12 -27q-55 -164 -90 -350l-154 -12 l-16 12q14 70 14 107q0 73 -41 105t-131 32q-89 0 -148 -46.5t-59 -117.5q0 -50 37 -90t107 -82q25 -14 71.5 -38.5t77.5 -42t73 -44t69 -52.5t53 -59.5t38.5 -73.5t12.5 -85q0 -199 -160 -322t-426 -123q-93 0 -183 19.5t-134 39.5l-43 19z" />
<glyph unicode="T" horiz-adv-x="1124" d="M59 879q47 237 76 436l27 22l192 -22h619l207 22l18 -22q-10 -90 -18.5 -196t-11.5 -167l-3 -61l-170 -12v25q0 170 -26 208q-28 41 -174 47q-30 -159 -81.5 -513t-51.5 -408q0 -56 21.5 -80.5t70.5 -24.5q27 0 54 1.5t40 3.5l14 1l6 -10l-34 -137q-243 8 -347 8 q-49 0 -132.5 -3t-142.5 -6l-58 -3l32 133q70 6 106 15t62 34t36.5 61.5t19.5 106.5l100 821q-43 -2 -71.5 -4t-55 -9t-42 -13.5t-31.5 -23.5t-25 -32.5t-19.5 -47t-18 -60t-18.5 -78.5z" />
<glyph unicode="U" horiz-adv-x="1292" d="M123 1188l35 131q167 -6 282 -6q36 0 95.5 3.5t100.5 7.5l42 3l-31 -137q-63 -7 -89 -31t-34 -78l-88 -596q-4 -58 -4 -86q0 -117 52 -179t155 -62q236 0 270 270l74 645q2 26 2 46q1 31 -5 43q-10 22 -46 22l-66 -4l-4 8l33 131q155 -6 229 -6q45 0 105 3.5t97 7.5l38 3 l-29 -135q-76 -15 -98.5 -33t-28.5 -69l-80 -641q-29 -232 -171 -353t-386 -121q-419 0 -419 363q0 38 6 82l82 653q3 29 3 50q1 27 -5 39q-10 22 -52 22l-61 -4z" />
<glyph unicode="V" horiz-adv-x="1234" d="M76 1198l30 121q162 -6 248 -6q64 0 149 4.5t138 8.5l53 5l6 -16l-24 -123q-100 -9 -131 -28t-31 -68q0 -59 19 -267t38 -387l19 -178h31q108 240 230 531.5t122 332.5q0 30 -21.5 44t-70.5 14h-78l-8 14l28 125q168 -12 293 -12l232 6l-31 -133q-49 -7 -71 -27t-50 -80 l-481 -1069l-338 -41q-96 698 -164 1088q-9 64 -40 94t-91 33z" />
<glyph unicode="W" horiz-adv-x="1904" d="M78 1198l31 121q155 -6 237 -6q72 0 154 4.5t128 8.5l46 5l8 -16l-25 -123q-97 -9 -128 -28.5t-31 -67.5q0 -64 18 -272t36 -384l17 -176h29q32 77 97 235.5t118.5 287.5t91.5 219q2 57 1.5 62.5t-7.5 23.5q-4 51 -33.5 70.5t-99.5 21.5l-8 14l33 121q178 -6 268 -6 q67 0 148 4.5t129 8.5l48 5l9 -16l-25 -123q-100 -9 -131 -27.5t-31 -68.5q0 -60 18.5 -268t37.5 -386l18 -178h29q110 256 227 547t117 326q0 28 -20 38.5t-70 10.5h-74l-8 14l30 125q162 -12 283 -12l219 6l-28 -133q-46 -8 -68.5 -28.5t-48.5 -78.5l-473 -1069l-326 -41 l-78 740h-20l-287 -699l-328 -41q-84 698 -145 1088q-12 65 -40.5 93.5t-84.5 33.5z" />
<glyph unicode="X" horiz-adv-x="1349" d="M-41 12l25 121q123 44 319 275l229 268l-170 334q-42 82 -95.5 119t-137.5 51l-4 10l31 129q166 -6 313 -6q55 0 131.5 4t125.5 8l50 4l6 -18l-24 -117q-125 -6 -125 -66q0 -16 8 -41.5t32.5 -77.5t38.5 -81.5t56 -112.5q18 24 91 116.5t107.5 144t34.5 73.5 q0 21 -21 31.5t-69 13.5q0 1 -1 4.5t-1 5.5l25 117q21 0 117 -4t145 -4q43 0 98.5 2t89.5 4l35 2l6 -14l-26 -123q-91 -29 -148 -73.5t-139 -143.5l-250 -308l189 -352q46 -86 100.5 -126t136.5 -46l-28 -139q-172 6 -254 6q-45 0 -135 -4t-157 -8l-67 -4l-8 14l25 121 q60 5 87 20t27 45q0 26 -22 68l-133 266l-156 -194q-49 -59 -66.5 -90t-17.5 -56q0 -26 21 -39t67 -16l6 -12l-26 -125q-188 14 -258 14l-228 -10z" />
<glyph unicode="Y" horiz-adv-x="1183" d="M70 1190l32 129q176 -6 254 -6q45 0 125 4t137 8l58 4l8 -18l-27 -117q-72 -4 -97 -18.5t-25 -47.5q0 -57 114 -423h17l198 344q39 64 39 102q0 20 -21.5 30t-72.5 13l-4 10l31 117q21 0 117 -4t145 -4q40 0 91.5 2t82.5 4l31 2l6 -14l-31 -123q-82 -26 -136 -81 t-134 -181l-234 -367q-23 -36 -36 -79.5t-18 -74.5t-18 -133q-4 -31 -4 -54q0 -34 9 -52q16 -29 71 -29l99 6l6 -10l-35 -137q-228 8 -326 8q-51 0 -130 -6t-132 -12l-53 -5l31 138q81 12 120.5 31.5t57 55t24.5 107.5l9 64q4 26 4 52q0 24 -3 47q-7 47 -32 112l-146 389 q-36 103 -74 146t-122 61z" />
<glyph unicode="Z" horiz-adv-x="1146" d="M-10 80l825 1087l-252 -16q-125 -9 -175.5 -61.5t-80.5 -198.5l-172 -12q59 252 86 440l25 20l350 -22l580 -8l24 -82q-374 -444 -844 -1082l310 23q98 8 160.5 82t105.5 235l172 15q-76 -268 -107 -467l-39 -39l-778 12l-153 -16z" />
<glyph unicode="[" horiz-adv-x="628" d="M70 -248q91 565 116 770q11 91 29.5 285t31.5 343l13 148l438 23l7 -16l-29 -117l-207 -41l-154 -1243l205 -43l6 -19l-28 -112z" />
<glyph unicode="\" horiz-adv-x="649" d="M129 1352l29 30h166l112 -919q17 -138 42 -304.5t41 -264.5l16 -97l-21 -22h-176q-41 328 -84 665z" />
<glyph unicode="]" horiz-adv-x="628" d="M-63 -254l30 115l207 43l152 1243l-203 41l-6 18l28 115l428 -23q-89 -565 -116 -770q-11 -91 -29.5 -285t-31.5 -343l-13 -148l-440 -22z" />
<glyph unicode="^" horiz-adv-x="962" d="M29 225q100 191 192 363l209 391l201 8l24 -16q72 -248 115 -393l107 -336l-142 -86l-33 10q-55 178 -102 334l-82 280h-14l-127 -254q-38 -70 -84 -162t-73 -149l-27 -57l-152 41z" />
<glyph unicode="_" horiz-adv-x="894" d="M-119 -340l43 156q31 0 206 -1t271 -1q86 0 254 4l164 4l12 -29l-43 -158q-165 0 -487 -2t-405 -2z" />
<glyph unicode="`" horiz-adv-x="786" d="M150 1362l112 143l27 2q174 -184 344 -348l-62 -80l-32 -8q-84 63 -180.5 128.5t-150.5 99.5l-54 34z" />
<glyph unicode="a" horiz-adv-x="1009" d="M43 274q0 161 73 320t188.5 259.5t232.5 100.5l178 -36l14 45l23 14l166 -29l16 -35q-99 -367 -148 -690l9 -8q12 0 36.5 18.5t98.5 83.5l35 -4l32 -71q-145 -152 -221.5 -209.5t-134.5 -57.5q-88 0 -88 78q0 55 70 342l-17 2q-92 -166 -170 -265.5t-160 -156.5 q-110 0 -171.5 79t-61.5 220zM297 389q0 -74 13 -124t32 -50q46 0 140.5 157t170.5 361q-99 60 -180 60q-42 0 -83 -59t-67 -153.5t-26 -191.5z" />
<glyph unicode="b" d="M76 111q182 1111 182 1185q0 38 -18.5 56t-59.5 18h-69l16 121q69 0 168 4.5t163 8.5l64 5l25 -32q-115 -522 -187 -965l13 -2q92 182 163.5 284t149.5 164q123 0 194.5 -89t71.5 -240q0 -167 -71 -317.5t-189.5 -241t-249.5 -90.5q-91 0 -176.5 21t-125.5 41l-40 21z M344 207q5 -2 33.5 -12.5t48 -17t47.5 -13t47 -6.5q71 0 125.5 114t54.5 265q0 81 -17.5 138.5t-43.5 57.5q-41 0 -125 -151t-170 -375z" />
<glyph unicode="c" horiz-adv-x="753" d="M49 328q0 124 42.5 242.5t113 205.5t165.5 140t195 53q126 0 199 -45l8 -31l-86 -197l-57 -4q-57 96 -135 96t-138.5 -117.5t-60.5 -273.5q0 -104 32.5 -162.5t88.5 -58.5q52 0 103.5 44.5t86.5 121.5l35 -4l68 -84q-54 -118 -162.5 -198.5t-214.5 -80.5 q-130 0 -206.5 95t-76.5 258z" />
<glyph unicode="d" horiz-adv-x="1013" d="M43 274q0 161 73 320t188.5 259.5t232.5 100.5l143 -32l49 360q1 12 1 22q0 30 -13 46q-18 20 -64 20h-71l18 121q68 0 167 4.5t163 8.5l65 5l25 -32q-168 -833 -234 -1254l9 -8q10 0 27 13t108 89l35 -4l32 -71q-149 -155 -223.5 -211t-132.5 -56q-88 0 -88 78 q0 41 70 342l-17 2q-90 -162 -168.5 -262.5t-161.5 -159.5q-110 0 -171.5 79t-61.5 220zM297 389q0 -74 13 -124t32 -50q46 0 138.5 155.5t170.5 362.5q-105 60 -178 60q-42 0 -83 -59t-67 -153.5t-26 -191.5z" />
<glyph unicode="e" horiz-adv-x="804" d="M49 334q0 121 43.5 238t114.5 203.5t167 140t195 53.5q103 0 161 -51t58 -142q0 -135 -113 -225t-384 -176q0 -93 34 -147t95 -54q57 0 110.5 42.5t96.5 119.5l35 -4l67 -82q-56 -119 -168 -197t-227 -78q-130 0 -207.5 97.5t-77.5 261.5zM297 500q139 46 203.5 98.5 t64.5 118.5q0 71 -67 71q-68 0 -124.5 -80.5t-76.5 -207.5z" />
<glyph unicode="f" horiz-adv-x="593" d="M-281 -385q13 45 46.5 113.5t60.5 105.5h33q6 -166 145 -166q58 0 97.5 44.5t43.5 119.5q5 52 9 140.5t4 95.5l55 718l-18 15l-146 4l-6 10l10 94l172 27l15 131q13 119 89.5 224.5t190 167t232.5 61.5q126 0 217 -31l8 -23l-92 -196l-39 -6q-112 77 -193 77 q-74 0 -114.5 -48.5t-53.5 -153.5l-24 -207h278l11 -10l-21 -115l-264 2l-19 -12l-96 -883q-19 -167 -138.5 -288.5t-264.5 -121.5q-80 0 -145.5 32t-82.5 79z" />
<glyph unicode="g" horiz-adv-x="964" d="M-158 -215l6 16q67 49 353 207l2 17q-60 31 -93.5 103t-33.5 173q0 153 71.5 306t184 250t225.5 97l180 -36l17 47l24 12l164 -27l23 -37q-50 -99 -82.5 -202.5t-40.5 -180.5q-6 -52 -18.5 -247.5t-18.5 -247.5q-11 -85 -73.5 -180.5t-148.5 -171.5t-189 -126.5 t-189 -50.5h-5q-101 0 -185 37q-86 38 -133 103q-41 56 -41 120q0 9 1 19zM84 -184q0 -46 66 -85.5t145 -39.5q119 0 197.5 78.5t97.5 218.5l47 391l-19 6q-112 -189 -169.5 -265t-120.5 -120q-24 -16 -63 -42.5t-67 -45.5t-56 -39t-43 -34.5t-15 -22.5zM328 414 q0 -76 16.5 -128.5t40.5 -52.5q39 0 120.5 141.5t170.5 360.5q-108 58 -180 58q-41 0 -80.5 -55.5t-63.5 -144t-24 -179.5z" />
<glyph unicode="h" horiz-adv-x="1036" d="M70 16q182 1149 194 1270v13q0 36 -14 52q-18 19 -62 19h-71l18 121q68 0 167 4.5t164 8.5l64 5l25 -32q-118 -522 -186 -965l12 -2q176 368 332 461q103 0 167 -58.5t64 -150.5q0 -64 -71 -278t-80 -259l6 -6q12 0 35 17.5t100 85.5l37 -7l33 -71q-136 -146 -217 -206.5 t-140 -60.5q-98 0 -98 91q0 52 70.5 282.5t70.5 286.5q0 34 -14 53t-39 19q-50 0 -135 -139t-174 -363l-19 -148q-4 -26 -74 -50.5t-139 -24.5z" />
<glyph unicode="i" horiz-adv-x="579" d="M55 807l21 121q68 0 165.5 4.5t161.5 9.5l64 4l25 -33q-97 -345 -146 -690l8 -8q12 0 36 18t99 84l35 -4l35 -71q-133 -144 -215 -205.5t-141 -61.5q-97 0 -97 103q99 585 99 651q0 41 -18.5 59.5t-59.5 18.5h-72zM248 1292q0 80 50.5 132.5t131.5 52.5q56 0 86.5 -32.5 t30.5 -88.5q0 -82 -50 -135.5t-128 -53.5q-58 0 -89.5 34.5t-31.5 90.5z" />
<glyph unicode="j" horiz-adv-x="555" d="M-129 -438l6 24q117 86 168 187.5t76 300.5q102 589 102 655q0 41 -19 59.5t-61 18.5h-71l20 121q68 0 165.5 4.5t160.5 9.5l63 4l27 -33q-106 -422 -172 -876q-48 -363 -410 -537zM262 1292q0 82 51 133.5t131 51.5q57 0 88 -32t31 -89q0 -83 -51 -136t-129 -53 q-57 0 -89 34t-32 91z" />
<glyph unicode="k" horiz-adv-x="942" d="M70 16q196 1204 196 1280q0 38 -18.5 56t-59.5 18h-71l18 121q68 0 167 4.5t164 8.5l64 5l25 -32q-118 -522 -186 -965l12 -2q85 178 170 296.5t162 164.5q106 0 170.5 -57.5t64.5 -149.5q0 -194 -272 -373q42 -75 94 -160t84 -133l31 -47l-2 -35l-224 -55l-26 14 l-166 410l14 35q43 22 76.5 42.5t68.5 49.5t54.5 63.5t19.5 71.5q0 29 -14 45.5t-39 16.5q-52 0 -140.5 -140.5t-178.5 -363.5l-19 -146q-4 -26 -74 -50.5t-139 -24.5z" />
<glyph unicode="l" horiz-adv-x="552" d="M80 72q0 24 93 605.5t93 618.5q0 38 -18.5 56t-59.5 18h-71l18 121q69 0 168 4.5t163 8.5l64 5l25 -32q-176 -833 -233 -1254l6 -8q12 0 36 18t99 84l37 -4l32 -71q-134 -145 -215 -206t-141 -61q-96 0 -96 97z" />
<glyph unicode="m" horiz-adv-x="1564" d="M57 807l21 121q68 0 165.5 4.5t161.5 9.5l64 4l23 -33q-66 -204 -97 -401l11 -2q176 371 327 461q100 0 162.5 -57t62.5 -146q0 -27 -14 -91t-28 -115l-15 -50l10 -2q84 174 171 294t165 167q103 0 164.5 -56.5t61.5 -148.5q0 -67 -72 -285t-80 -256l6 -6q10 0 33.5 17.5 t101.5 85.5l37 -7l33 -71q-140 -147 -220.5 -207t-137.5 -60q-99 0 -99 91q0 51 74 282.5t74 286.5q0 34 -14.5 53t-39.5 19q-52 0 -145.5 -149.5t-189.5 -383.5l-19 -117q-3 -26 -72.5 -50.5t-138.5 -24.5l-26 32q133 549 133 627q0 66 -54 66q-49 0 -132.5 -139 t-170.5 -363l-18 -148q-4 -26 -74 -50.5t-139 -24.5l-27 32q101 615 111 707v12q0 35 -15 53q-18 20 -63 19h-72z" />
<glyph unicode="n" horiz-adv-x="1062" d="M57 807l21 121q68 0 165.5 4.5t161.5 9.5l64 4l23 -33q-66 -204 -97 -401l13 -2q177 369 331 461q102 0 165 -57.5t63 -149.5q0 -66 -69.5 -281.5t-78.5 -257.5l6 -6q12 0 36 18t100 85l36 -7l33 -71q-136 -145 -216.5 -206t-139.5 -61q-99 0 -99 91q0 52 71 282.5 t71 286.5q0 34 -14 53t-39 19q-51 0 -136.5 -139.5t-173.5 -364.5l-18 -146q-4 -26 -74 -50.5t-139 -24.5l-27 32q101 615 111 707v12q0 35 -15 53q-18 20 -63 19h-72z" />
<glyph unicode="o" horiz-adv-x="909" d="M55 342q0 175 65.5 319t182 227t258.5 83q143 0 221 -90t78 -256q0 -182 -66 -331t-183 -234t-261 -85q-137 0 -216 98t-79 269zM307 408q0 -126 33 -197.5t90 -71.5q80 0 126 106t46 294q0 249 -125 249q-75 0 -122.5 -106t-47.5 -274z" />
<glyph unicode="p" horiz-adv-x="1026" d="M-84 -483l23 118q52 6 74.5 33t41.5 103q27 112 87.5 505.5t60.5 454.5q0 40 -18.5 58t-59.5 18h-72l21 121q68 0 165.5 4.5t161.5 9.5l64 4l24 -31q-60 -179 -98 -389l12 -2q90 178 163 281.5t149 165.5q123 0 194.5 -88t71.5 -236q0 -156 -72 -310t-183 -249.5 t-220 -95.5l-197 33l-39 -269q-2 -18 -2 -33q0 -32 12 -47q18 -20 76 -20h90l3 -12l-23 -113q-110 0 -237.5 -3.5t-200.5 -7.5zM375 227q130 -57 196 -57q39 0 76 59.5t59.5 149t22.5 176.5q0 78 -18 135.5t-43 57.5q-38 0 -124 -149t-169 -372z" />
<glyph unicode="q" horiz-adv-x="968" d="M45 291q0 118 44 239t112.5 213.5t158.5 151.5t177 59l174 -36l37 102l26 14l164 -26l14 -35q-30 -54 -131.5 -573t-101.5 -670q0 -40 12 -56t43 -16h70l4 -10l-21 -115q-134 0 -260 -6.5t-185 -12.5l-60 -6l22 121q89 7 118 33t44 111l59 327l58 295l-17 2 q-92 -165 -165.5 -264.5t-147.5 -157.5q-114 0 -181 85.5t-67 230.5zM297 401q0 -78 16 -132t39 -54q41 0 125 146t174 372q-97 60 -178 60q-42 0 -83 -57t-67 -149t-26 -186z" />
<glyph unicode="r" horiz-adv-x="778" d="M57 807l21 121q68 0 165.5 4.5t161.5 9.5l64 4l23 -33q-55 -182 -84 -348h10q66 162 159.5 282t153.5 120q90 -69 90 -201q0 -45 -20 -109l-29 -12q-31 25 -82 25q-82 0 -169 -110t-163 -312l-22 -189q-4 -26 -74 -50.5t-139 -24.5l-27 32q111 635 111 711q0 43 -18 61.5 t-60 18.5h-72z" />
<glyph unicode="s" horiz-adv-x="755" d="M0 98q10 52 40 120.5t58 105.5l41 -2q3 -83 53 -132t130 -49q51 0 82.5 26t31.5 66q0 20 -9.5 39t-31 38.5t-39.5 33t-51 35.5q-37 25 -56 39t-50 41.5t-47 51t-28.5 58t-12.5 72.5q0 138 113 234t274 96q78 0 147.5 -23t110.5 -61q-42 -110 -99 -209h-41 q-22 56 -62 88.5t-89 32.5q-39 0 -66.5 -25t-27.5 -61q0 -47 61 -95q20 -16 62 -44.5t71.5 -51t61 -54.5t48.5 -71.5t17 -85.5q0 -138 -120 -237t-289 -99q-108 0 -186 34t-97 89z" />
<glyph unicode="t" horiz-adv-x="628" d="M59 815l13 94l155 25l31 237l262 72l21 -24q-41 -137 -74 -287h223l10 -10l-18 -115l-219 2l-25 -14l-98 -516q-1 -10 -1 -19q0 -49 42 -49q25 0 61.5 26.5t102.5 92.5l35 -6l32 -74q-97 -122 -183 -198.5t-132 -76.5q-101 0 -153 55q-42 45 -42 118q0 15 2 32l103 608 l-14 13l-127 4z" />
<glyph unicode="u" horiz-adv-x="1040" d="M76 807l20 121q68 0 165.5 4.5t161.5 9.5l64 4l25 -33q-176 -532 -176 -628q0 -60 47 -60t138 146.5t186 376.5l28 188l31 16l168 -12l27 -31q-97 -363 -146 -686l8 -8q11 0 28.5 13t106.5 89l35 -4l33 -71q-150 -156 -224 -211.5t-132 -55.5q-88 0 -88 78q0 43 73 359 l-18 2q-154 -324 -307 -437q-113 0 -177.5 52.5t-64.5 142.5q0 59 67.5 289.5t67.5 275.5q0 37 -18.5 53.5t-59.5 16.5h-69z" />
<glyph unicode="v" horiz-adv-x="921" d="M4 797l8 118l363 41l22 -18q35 -316 35 -676v-57h27q205 364 205 497q0 59 -35 100.5t-68 51.5l14 66l273 51q63 -57 63 -178q0 -223 -407 -805l-232 -11l-34 31q-7 165 -30 372.5t-48 350.5q-7 41 -22.5 56.5t-47.5 15.5z" />
<glyph unicode="w" horiz-adv-x="1396" d="M4 797l8 118l363 41l22 -18q35 -319 35 -676v-57h27q146 274 192 416l-41 270l19 29l209 51q63 -57 63 -174q0 -57 -31 -144l41 -448h27q201 368 201 500q0 57 -35 98t-68 51l15 66l272 51q29 -28 46 -77t17 -106q0 -213 -403 -800l-203 -11l-32 31l-35 344h-19 q-95 -193 -200 -364l-222 -11l-34 31q-7 168 -30 375.5t-48 347.5q-8 40 -23 56t-47 16z" />
<glyph unicode="x" horiz-adv-x="985" d="M-45 51q39 124 102 238h41q6 -133 76 -133q85 0 201 280q-31 109 -50 170t-35.5 98t-27.5 48.5t-26 11.5q-31 0 -132 -98h-24l-37 82q109 119 187 171t145 52q58 0 94.5 -61.5t89.5 -247.5q75 161 149 235t160 74q92 0 158 -72q-55 -134 -102 -229h-41q-26 112 -86 112 q-43 0 -86.5 -59t-104.5 -201q55 -206 82 -273t57 -67q32 0 144 99l22 -2l39 -82q-122 -125 -195 -173.5t-139 -48.5q-59 0 -97.5 65.5t-94.5 258.5q-78 -171 -152 -247.5t-163 -76.5q-109 0 -154 76z" />
<glyph unicode="y" horiz-adv-x="946" d="M-262 -393q6 38 31 104t53 119l41 -2q12 -56 52.5 -90.5t92.5 -34.5q65 0 127 44.5t148 152.5q-45 488 -101 831q-8 40 -24 56t-49 16l-82 -6l8 118l362 41l23 -18q31 -308 31 -756h24q100 173 156.5 311.5t56.5 208.5q0 47 -27 87t-75 65l14 66l270 51 q31 -26 48.5 -73.5t17.5 -104.5q0 -213 -387 -770q-197 -279 -337 -400t-269 -121q-73 0 -133 31t-72 74z" />
<glyph unicode="z" horiz-adv-x="870" d="M-18 59l565 674l-150 2q-85 0 -126 -29.5t-66 -107.5l-115 -10q55 194 82 360l55 23q252 -60 410 -60q38 0 58 8t40 31l43 51l113 -71l10 -39q-273 -291 -586 -658l54 11q32 0 119 -15.5t124 -15.5q54 0 92 41t50 113l49 -2q26 -65 26 -138q0 -105 -66 -178.5t-161 -73.5 q-62 0 -179 46.5t-185 46.5q-101 0 -218 -70z" />
<glyph unicode="{" horiz-adv-x="636" d="M88 494l23 98q79 23 127.5 65.5t48.5 102.5q0 39 -27 151t-27 164q0 112 92.5 188t239.5 76q30 0 66.5 -4.5t58.5 -8.5l21 -5l10 -21l-41 -114q-47 10 -78 10q-62 0 -94.5 -42t-32.5 -110q0 -34 9.5 -124t9.5 -127q0 -92 -47.5 -149t-122.5 -77l-2 -12q122 -43 122 -172 q0 -58 -49 -200t-49 -187q0 -48 25.5 -78.5t74.5 -30.5q16 0 36.5 3.5t33.5 6.5l12 3l13 -21l-35 -110q-66 -31 -166 -31q-110 0 -177 61t-67 152q0 56 35.5 135t71 150.5t35.5 109.5q0 110 -150 148z" />
<glyph unicode="|" horiz-adv-x="653" d="M102 -528q89 727 136 1093l133 1065l176 23l31 -23q-99 -695 -140 -1034l-135 -1124l-180 -23z" />
<glyph unicode="}" horiz-adv-x="636" d="M-66 -223l41 112q47 -10 78 -10q61 0 94 42.5t33 111.5q0 34 -9 127.5t-9 132.5q0 92 47.5 147t122.5 78l2 12q-123 45 -123 175q0 55 49 192.5t49 181.5q0 49 -25.5 79t-74.5 30q-16 0 -36.5 -2.5t-32.5 -5.5l-13 -2l-12 18l35 113q63 30 165 30q110 0 177 -61.5 t67 -153.5q0 -43 -21.5 -101t-48 -104.5t-48 -97.5t-21.5 -82q0 -58 39.5 -95.5t107.5 -51.5l-20 -96q-78 -22 -127 -65.5t-49 -104.5q0 -39 25.5 -150.5t25.5 -163.5q0 -117 -92.5 -195.5t-239.5 -78.5q-30 0 -66.5 4.5t-57.5 9.5l-21 4z" />
<glyph unicode="~" d="M47 440l2 23l209 207l39 8q51 0 218 -40t208 -40q24 0 65.5 29t71.5 59l29 29h20l62 -78l-2 -21l-207 -208l-39 -9q-51 0 -218.5 40t-207.5 40q-24 0 -65.5 -28.5t-71.5 -56.5l-29 -29h-22z" />
<glyph unicode="&#xa1;" horiz-adv-x="561" d="M-20 -459l237 928l135 23l29 -27l-66 -881l-28 -35l-279 -45zM190 780q0 83 52 137t135 54q64 0 98.5 -36.5t34.5 -96.5q0 -84 -51.5 -137.5t-134.5 -53.5q-64 0 -99 36t-35 97z" />
<glyph unicode="&#xa2;" horiz-adv-x="753" d="M49 328q0 222 125 404t301 224l86 373l148 19l8 -19l-84 -364q78 -12 131 -41l8 -31l-86 -197l-57 -4q-57 96 -135 96t-138.5 -117.5t-60.5 -273.5q0 -104 32.5 -162.5t88.5 -58.5q52 0 103.5 44.5t86.5 121.5l35 -4l68 -84q-44 -97 -127 -170t-174 -98l-68 -295 l-143 -17l-11 15l68 297q-97 26 -151 115.5t-54 226.5z" />
<glyph unicode="&#xa3;" horiz-adv-x="1024" d="M10 137q194 116 215 279l11 84q3 47 -20 62t-99 20l-6 12l28 106l123 21l6 43q15 124 91.5 231t189.5 168.5t233 61.5q145 0 219 -31l9 -23l-90 -196l-39 -6q-125 78 -207 78q-67 0 -105 -47t-53 -148l-22 -139l297 6l6 -10l-39 -140q-131 6 -285 6l-18 -122 q-11 -67 -43 -129.5t-76 -98.5l117 25q39 0 133 -19.5t133 -19.5q56 0 94.5 40t50.5 114l47 -5q27 -47 27 -137q0 -106 -65 -177t-158 -71q-66 0 -212 50.5t-216 50.5q-108 0 -230 -74l-22 10z" />
<glyph unicode="&#xa4;" horiz-adv-x="876" d="M23 440q14 9 36 27t61.5 51.5t59.5 50.5q-18 49 -18 113q0 104 59 190l-131 146l10 35l158 102l113 -147q70 36 149 36q76 0 137 -36l156 157l35 -8l88 -145l-160 -138q23 -54 23 -120q0 -94 -58 -185l129 -137l-10 -35l-160 -106l-110 143q-68 -41 -150 -41 q-80 0 -145 43l-154 -149l-35 8zM309 700q0 -67 42.5 -113t107.5 -46q76 0 134 58.5t58 137.5q0 68 -42.5 114t-106.5 46q-76 0 -134.5 -59t-58.5 -138z" />
<glyph unicode="&#xa5;" horiz-adv-x="1126" d="M57 285l31 114h320q-12 49 -23 76l-29 72q-64 0 -149 -1t-98 -1l-15 14l31 115h170q-80 196 -203 235q4 15 8 49l21 76q129 -6 207 -6q24 0 154 6t139 8l6 -20l-23 -104q-58 -4 -77 -14.5t-19 -31.5q0 -13 22 -88l13 -47l67 -166l156 265q22 37 22 55q0 31 -71 31l-4 16 l20 96q23 0 107 -3t127 -3l174 6l8 -12l-27 -113q-70 -23 -106 -52t-80 -97l-57 -82l186 4l12 -18l-24 -117h-267l-61 -92q-12 -17 -25 -56q110 2 328 9l12 -21l-24 -117h-357q-1 -4 -5.5 -44t-4.5 -48q0 -31 17 -44t55 -13l82 4l4 -12l-29 -119q-200 6 -286 6 q-42 0 -111.5 -4.5t-118.5 -9.5l-49 -4l27 122q95 12 124.5 42.5t43.5 123.5q-82 0 -199.5 -1t-136.5 -1z" />
<glyph unicode="&#xa6;" horiz-adv-x="653" d="M100 -528q8 64 45.5 367t61.5 485l180 30l19 -20l-105 -862l-180 -23zM260 758l111 872l176 23l31 -23q-72 -505 -119 -862l-183 -25z" />
<glyph unicode="&#xa7;" horiz-adv-x="983" d="M51 -53q0 46 25 114.5t59 108.5l41 -2q5 -91 55.5 -149t126.5 -58q50 0 83.5 32t33.5 81q0 36 -22 70.5t-57.5 63.5t-78.5 59t-85.5 64t-78 72t-57.5 89t-22 108q0 96 63 178t166 144q-16 43 -16 84q0 135 116.5 234t274.5 99q93 0 163 -29.5t70 -68.5 q0 -38 -32.5 -116.5t-55.5 -98.5h-39q-15 61 -56 100t-91 39q-39 0 -67.5 -29.5t-28.5 -72.5q0 -35 22 -69.5t57 -65t77.5 -62t85.5 -66.5t78 -73t57 -88t22 -104q0 -92 -61.5 -177.5t-161.5 -146.5q16 -48 10 -100q-8 -78 -66.5 -150.5t-154 -119t-201.5 -46.5 q-104 0 -179 44.5t-75 107.5zM297 700q0 -54 40 -106.5t91.5 -90t120 -91t106.5 -97.5q54 57 54 125q0 43 -24.5 84.5t-66 78.5t-85.5 71t-94.5 76.5t-82.5 80.5q-59 -53 -59 -131z" />
<glyph unicode="&#xa8;" horiz-adv-x="786" d="M184 1260q0 66 44.5 110.5t111.5 44.5q51 0 77.5 -28.5t26.5 -77.5q0 -68 -43 -112t-110 -44q-51 0 -79 29t-28 78zM539 1260q0 66 44 110.5t111 44.5q51 0 79 -29t28 -77q0 -68 -43.5 -112t-110.5 -44q-53 0 -80.5 29t-27.5 78z" />
<glyph unicode="&#xa9;" horiz-adv-x="1374" d="M96 535q0 183 95.5 343t253.5 253.5t335 93.5q150 0 272 -74.5t190.5 -202.5t68.5 -282q0 -183 -96 -343.5t-254 -254t-334 -93.5q-150 0 -272.5 75t-190.5 203t-68 282zM201 545q0 -198 124.5 -333.5t313.5 -135.5q110 0 214.5 46.5t182.5 124.5t125 185.5t47 222.5 q0 198 -125.5 333.5t-314.5 135.5q-147 0 -278 -78.5t-210 -212.5t-79 -288zM403 543q0 190 107 298.5t293 108.5q40 0 94.5 -6t89.5 -12l35 -6l6 -17q-30 -87 -53 -200l-119 -9q10 54 10 72q0 68 -100 68q-85 0 -129.5 -69.5t-44.5 -205.5q0 -194 127 -194q54 0 85.5 31 t53.5 106l117 8q-29 -111 -41 -199l-12 -14q-99 -39 -232 -39q-134 0 -210.5 74t-76.5 205z" />
<glyph unicode="&#xaa;" horiz-adv-x="729" d="M39 881q0 104 49.5 206t127.5 166t157 64l110 -23l9 29l20 10l139 -16l11 -27q-60 -229 -89 -424l5 -4q9 0 65 49q5 4 8.5 7t7.5 6l27 -2l25 -56q-103 -109 -157 -148.5t-101 -39.5q-64 0 -64 59q0 26 41 195l-12 2q-108 -190 -201 -256q-83 0 -130.5 54t-47.5 149z M242 961q0 -46 7 -75.5t17 -29.5q28 0 82.5 93.5t95.5 211.5q-58 37 -112 37q-34 0 -62 -75t-28 -162z" />
<glyph unicode="&#xab;" horiz-adv-x="892" d="M72 440l4 43q292 277 366 359l80 -51l4 -33q-13 -19 -106 -146t-103 -143q6 -17 68 -147t70 -148l-13 -33l-90 -51q-24 36 -94 123.5t-128 156.5zM440 440l4 43q293 277 367 359l80 -51l4 -33q-13 -19 -106 -146t-103 -143q6 -17 67.5 -147t69.5 -148l-12 -33l-90 -51 q-24 36 -94.5 123.5t-128.5 156.5z" />
<glyph unicode="&#xac;" d="M33 473l53 186q285 -2 461 -2q64 0 157.5 3.5t154.5 6.5l61 3l10 -27q-40 -143 -58 -293l-32 -278l-191 -29l-18 14q26 210 51 398h-186l-449 -2z" />
<glyph unicode="&#xad;" horiz-adv-x="638" d="M63 422l35 160l326 39l149 20l17 -27l-37 -163l-473 -54z" />
<glyph unicode="&#xae;" horiz-adv-x="923" d="M127 993q0 124 64 231.5t169.5 169.5t223.5 62q152 0 253 -108t101 -265q0 -124 -64 -231t-169 -169t-224 -62q-152 0 -253 107.5t-101 264.5zM203 1001q0 -127 82 -215t204 -88q148 0 260.5 112.5t112.5 264.5q0 127 -82 215t-205 88q-147 0 -259.5 -112t-112.5 -265z M317 844l11 49q27 4 37.5 18t15.5 50l27 219q3 22 -0.5 29.5t-14.5 7.5h-22l-4 6l10 43q5 0 38 -1t48 -1h20q46 4 72 4q158 0 158 -101q0 -89 -99 -139l37 -78q12 -26 29.5 -42.5t32.5 -18.5l6 -6q-5 -29 -16 -35.5t-68 -9.5q-32 0 -48 12.5t-28 48.5l-33 105h-41 q-12 -60 -12 -78t8.5 -23.5t34.5 -5.5q2 -2 2 -6l-10 -45q-51 4 -78 4h-22zM494 1069q6 0 24 -2t27 -2q59 17 59 84q0 55 -78 55q-6 0 -8.5 -3t-3.5 -13z" />
<glyph unicode="&#xaf;" horiz-adv-x="786" d="M190 1210l48 156q188 -2 305 -2q44 0 107 3t104 6l41 3l12 -28l-45 -156l-279 -2l-274 -2z" />
<glyph unicode="&#xb0;" horiz-adv-x="595" d="M113 1044q0 120 88 207.5t205 87.5q99 0 163 -69t64 -170q0 -120 -88 -207.5t-205 -87.5q-97 0 -162 69t-65 170zM231 1055q0 -56 36 -93.5t91 -37.5q65 0 110.5 48.5t45.5 117.5q0 56 -36.5 93.5t-92.5 37.5q-64 0 -109 -48.5t-45 -117.5z" />
<glyph unicode="&#xb1;" d="M-29 -174l39 156h457q166 0 244 2q163 3 163 6l13 -31l-41 -158q-162 0 -473.5 -2t-388.5 -2zM35 479l51 187q174 -2 334 -2l45 356l186 22l25 -14q-38 -206 -58 -364l361 12l10 -27l-45 -188q-58 0 -175 -1t-175 -1l-39 -334l-186 -29l-21 15q25 182 45 348l-346 -2z " />
<glyph unicode="&#xb2;" horiz-adv-x="700" d="M12 782l185 179q184 193 184 286q0 66 -74 66q-92 0 -180 -111h-23l-12 129q61 72 141 116t154 44q99 0 160 -47t61 -125q0 -87 -68.5 -188.5t-248.5 -278.5l6 -12h106q55 0 82 25.5t47 95.5l127 10q-49 -158 -69 -271l-23 -18q-311 12 -440 12l-113 -10z" />
<glyph unicode="&#xb3;" horiz-adv-x="618" d="M20 834l27 24q52 -22 115 -22q73 0 120.5 31t47.5 81q0 43 -39 62.5t-121 19.5l-14 17v98l88 18q46 21 74 54t28 69q0 26 -16.5 41.5t-44.5 15.5q-66 0 -148 -57h-18l-21 113q53 33 131.5 62.5t135.5 29.5q87 0 139.5 -39t52.5 -104q0 -63 -46.5 -117t-121.5 -80l-2 -14 q84 -28 124 -70t40 -102q0 -70 -64 -137t-165 -108.5t-203 -41.5q-61 0 -82.5 35t-16.5 121z" />
<glyph unicode="&#xb4;" horiz-adv-x="786" d="M248 1159q76 73 162 160.5t134 138.5l48 51l26 -2l111 -143l-2 -29q-197 -123 -387 -264l-31 8z" />
<glyph unicode="&#xb6;" horiz-adv-x="1122" d="M92 836q0 206 145.5 346.5t362.5 140.5q53 0 154 -4t135 -4l287 6l-27 -127l-6 -8q-72 -6 -96 -23.5t-35 -70.5q-34 -123 -117 -742q-30 -247 -172 -401t-363 -154q-105 0 -179.5 50.5t-74.5 131.5q0 49 34 119t79 119h33q-9 -125 35 -194.5t125 -69.5q101 0 146.5 66 t64.5 231l112 903q2 21 -6.5 26t-44.5 5q-94 0 -145.5 -109t-51.5 -285q0 -178 84 -319l-6 -49q-213 8 -343 117t-130 299z" />
<glyph unicode="&#xb7;" horiz-adv-x="471" d="M80 463q0 83 51 136.5t133 53.5q63 0 98 -36t35 -97q0 -84 -51.5 -137t-134.5 -53q-65 0 -98 36t-33 97z" />
<glyph unicode="&#xb8;" horiz-adv-x="792" d="M68 -401q0 36 94 135h16q-4 -55 20 -85t68 -30q37 0 61.5 18.5t24.5 47.5q0 49 -153 139l92 235h106l-59 -149q172 -104 172 -189q0 -83 -92 -145.5t-203 -62.5q-54 0 -100.5 24.5t-46.5 61.5z" />
<glyph unicode="&#xb9;" horiz-adv-x="526" d="M6 680l23 96q63 5 93 26.5t36 69.5l49 404q6 46 -5.5 61t-47.5 15l-66 -4l-8 8l18 88q65 6 168 20l207 27l12 -47q-45 -36 -65 -101q-15 -67 -43.5 -256t-28.5 -231q0 -33 10 -47t35 -14l62 2l4 -6l-31 -101q-125 4 -195 4q-40 0 -97 -3.5t-94 -6.5z" />
<glyph unicode="&#xba;" horiz-adv-x="665" d="M49 928q0 175 98 289t250 114q105 0 161 -61t56 -176q0 -182 -97.5 -299t-250.5 -117q-102 0 -159.5 66t-57.5 184zM248 961q0 -160 69 -160q46 0 71.5 62t25.5 179q0 154 -70 154q-43 0 -69.5 -65.5t-26.5 -169.5z" />
<glyph unicode="&#xbb;" horiz-adv-x="892" d="M92 174q10 15 60.5 84t94 130t50.5 75q-4 13 -32.5 75t-62 132.5t-40.5 85.5l12 32l90 54q25 -37 96 -125.5t129 -158.5l58 -69l-6 -40q-291 -277 -367 -359l-80 51zM461 174q10 15 60.5 84t94 130t50.5 75q-4 13 -33 75t-62.5 132.5t-40.5 85.5l13 32l90 54 q25 -37 95.5 -125.5t128.5 -158.5l58 -69l-6 -40q-290 -277 -366 -359l-80 51z" />
<glyph unicode="&#xbc;" horiz-adv-x="1560" d="M6 520l23 94q62 5 92.5 27.5t36.5 69.5l49 403q6 46 -5.5 61t-47.5 15l-66 -4l-8 10l18 86q42 4 168 21l207 26l12 -47q-44 -33 -65 -100q-15 -64 -43.5 -254.5t-28.5 -231.5q0 -34 10 -48.5t35 -14.5l62 4l4 -8l-31 -101q-125 7 -195 7q-40 0 -97 -3.5t-94 -7.5z M137 -106q248 369 424 647l537 848l127 -52l14 -39q-361 -547 -545 -833l-413 -655l-134 55zM872 197l17 108l395 488l10 4l146 -17l-54 -452h99l10 -17l-29 -127l-96 2l-14 -172l-13 -14l-186 -14l-12 12q21 103 33 195zM1044 328h152l25 213h-15z" />
<glyph unicode="&#xbd;" horiz-adv-x="1622" d="M6 520l23 94q62 5 92.5 27.5t36.5 69.5l49 403q6 46 -5.5 61t-47.5 15l-66 -4l-8 10l18 86q42 4 168 21l207 26l12 -47q-44 -33 -65 -100q-15 -64 -43.5 -254.5t-28.5 -231.5q0 -34 10 -48.5t35 -14.5l62 4l4 -8l-31 -101q-125 7 -195 7q-40 0 -97 -3.5t-94 -7.5z M137 -106q248 369 424 647l537 848l127 -52l14 -39q-361 -547 -545 -833l-413 -655l-134 55zM913 86l185 178q89 94 136.5 168.5t47.5 118.5q0 65 -74 65q-92 0 -180 -108h-22l-13 127q61 73 141 117.5t154 44.5q98 0 159.5 -48t61.5 -126q0 -87 -68 -187.5t-249 -279.5 l6 -11h107q55 0 82 25t47 96l127 10q-50 -157 -70 -270l-23 -18q-311 12 -440 12l-113 -12z" />
<glyph unicode="&#xbe;" horiz-adv-x="1560" d="M20 672l27 24q52 -22 115 -22q73 0 120.5 32t47.5 82q0 80 -160 80l-14 17v98l88 18q46 21 74 54t28 69q0 26 -16.5 42t-44.5 16q-63 0 -148 -56h-18l-21 111q53 33 131.5 62.5t135.5 29.5q87 0 139.5 -39t52.5 -104q0 -62 -46 -115.5t-122 -81.5l-2 -14q84 -28 124 -70 t40 -102q0 -70 -64 -136.5t-164.5 -107.5t-203.5 -41q-61 0 -82.5 34t-16.5 120zM137 -106q248 369 424 647l537 848l127 -52l14 -39q-361 -547 -545 -833l-413 -655l-134 55zM872 197l17 108l395 488l10 4l146 -17l-54 -452h99l10 -17l-29 -127l-96 2l-14 -172l-13 -14 l-186 -14l-12 12q21 103 33 195zM1044 328h152l25 213h-15z" />
<glyph unicode="&#xbf;" horiz-adv-x="733" d="M-59 -166q0 55 18.5 104t38 80.5t78.5 78.5t89.5 68t122.5 80q19 13 29 19l7 15l-7 170l15 22l184 37l23 -12l16 -258l-10 -29l-228 -129q-122 -69 -122 -166q0 -88 87.5 -137t247.5 -58l13 -28l-94 -172l-33 -15q-205 6 -340 99.5t-135 230.5zM307 780q0 83 52 137 t135 54q64 0 98.5 -36.5t34.5 -96.5q0 -84 -52 -137.5t-135 -53.5q-63 0 -98 36t-35 97z" />
<glyph unicode="&#xc0;" horiz-adv-x="1243" d="M-80 -6l31 135q47 8 80 38.5t65 98.5l471 1037l322 34l22 -10q95 -708 158 -1059q12 -73 41 -103t94 -38l8 -14l-28 -119q-158 6 -244 6q-76 0 -160.5 -4t-131.5 -8l-46 -4l-8 16l24 121q99 7 130.5 24t31.5 62q0 13 -4 59l-18 158q-54 4 -178 4q-97 0 -191 -14l-65 -158 q-21 -52 -21 -76q0 -53 80 -53h86l6 -12l-29 -127q-161 12 -286 12zM459 1587l51 158l27 10q235 -117 456 -213l-26 -96l-29 -19q-104 33 -221 66.5t-183 50.5l-65 17zM461 584h137q55 0 145 8l-57 457h-29z" />
<glyph unicode="&#xc1;" horiz-adv-x="1243" d="M-80 -6l31 135q47 8 80 38.5t65 98.5l471 1037l322 34l22 -10q95 -708 158 -1059q12 -73 41 -103t94 -38l8 -14l-28 -119q-158 6 -244 6q-76 0 -160.5 -4t-131.5 -8l-46 -4l-8 16l24 121q99 7 130.5 24t31.5 62q0 13 -4 59l-18 158q-54 4 -178 4q-97 0 -191 -14l-65 -158 q-21 -52 -21 -76q0 -53 80 -53h86l6 -12l-29 -127q-161 12 -286 12zM461 584h137q55 0 145 8l-57 457h-29zM551 1542q98 43 212.5 96t179.5 85l65 32l26 -10l51 -158l-10 -26q-236 -60 -469 -134l-26 19z" />
<glyph unicode="&#xc2;" horiz-adv-x="1243" d="M-80 -6l31 135q47 8 80 38.5t65 98.5l471 1037l322 34l22 -10q95 -708 158 -1059q12 -73 41 -103t94 -38l8 -14l-28 -119q-158 6 -244 6q-76 0 -160.5 -4t-131.5 -8l-46 -4l-8 16l24 121q99 7 130.5 24t31.5 62q0 13 -4 59l-18 158q-54 4 -178 4q-97 0 -191 -14l-65 -158 q-21 -52 -21 -76q0 -53 80 -53h86l6 -12l-29 -127q-161 12 -286 12zM434 1540q39 26 125 89.5t153 114.5l66 50h41q0 3 53.5 -46.5t125.5 -116t102 -91.5l-60 -84l-34 -8q-15 7 -118 60t-118 59q-16 -5 -129.5 -57.5t-136.5 -61.5l-31 8zM461 584h137q55 0 145 8l-57 457 h-29z" />
<glyph unicode="&#xc3;" horiz-adv-x="1243" d="M-80 -6l31 135q47 8 80 38.5t65 98.5l471 1037l322 34l22 -10q95 -708 158 -1059q12 -73 41 -103t94 -38l8 -14l-28 -119q-158 6 -244 6q-76 0 -160.5 -4t-131.5 -8l-46 -4l-8 16l24 121q99 7 130.5 24t31.5 62q0 13 -4 59l-18 158q-54 4 -178 4q-97 0 -191 -14l-65 -158 q-21 -52 -21 -76q0 -53 80 -53h86l6 -12l-29 -127q-161 12 -286 12zM406 1483l2 22l180 197l33 8q35 0 148 -35t140 -35q21 0 56.5 27t60.5 53l25 27h22l72 -76l-2 -20l-180 -199l-35 -8q-34 0 -147 34.5t-140 34.5q-22 0 -57 -26.5t-60 -52.5l-24 -27h-23zM461 584h137 q55 0 145 8l-57 457h-29z" />
<glyph unicode="&#xc4;" horiz-adv-x="1243" d="M-80 -6l31 135q47 8 80 38.5t65 98.5l471 1037l322 34l22 -10q95 -708 158 -1059q12 -73 41 -103t94 -38l8 -14l-28 -119q-158 6 -244 6q-76 0 -160.5 -4t-131.5 -8l-46 -4l-8 16l24 121q99 7 130.5 24t31.5 62q0 13 -4 59l-18 158q-54 4 -178 4q-97 0 -191 -14l-65 -158 q-21 -52 -21 -76q0 -53 80 -53h86l6 -12l-29 -127q-161 12 -286 12zM461 584h137q55 0 145 8l-57 457h-29zM465 1563q0 68 43 111.5t110 43.5q51 0 79 -29t28 -77q0 -67 -43.5 -111.5t-110.5 -44.5q-52 0 -79 29t-27 78zM819 1563q0 67 44 111t110 44q51 0 78.5 -28.5 t27.5 -77.5q0 -67 -43 -111.5t-110 -44.5q-51 0 -79 29t-28 78z" />
<glyph unicode="&#xc5;" horiz-adv-x="1243" d="M-80 -6l31 135q47 8 80 38.5t65 98.5l471 1037l322 34l22 -10q95 -708 158 -1059q12 -73 41 -103t94 -38l8 -14l-28 -119q-158 6 -244 6q-76 0 -160.5 -4t-131.5 -8l-46 -4l-8 16l24 121q99 7 130.5 24t31.5 62q0 13 -4 59l-18 158q-54 4 -178 4q-97 0 -191 -14l-65 -158 q-21 -52 -21 -76q0 -53 80 -53h86l6 -12l-29 -127q-161 12 -286 12zM461 584h137q55 0 145 8l-57 457h-29zM586 1548q0 94 62 157.5t157 63.5q81 0 119.5 -43.5t38.5 -109.5q0 -91 -61.5 -159t-160.5 -68q-75 0 -115 43.5t-40 115.5zM690 1573q0 -38 24.5 -57t53.5 -19 q33 0 61.5 18.5t28.5 67.5q0 34 -21.5 54t-60.5 20q-40 0 -63 -23t-23 -61z" />
<glyph unicode="&#xc6;" horiz-adv-x="1728" d="M-57 -6l6 121q22 5 60.5 46t76.5 105l508 873q-3 25 -13 35t-32 10l-62 -4l-12 18l33 123q0 -6 487 -6q478 0 639 24l15 -22q-58 -181 -93 -371l-186 -14q16 72 16 117q0 60 -45.5 78t-193.5 18q-62 0 -84.5 -13t-22.5 -45l9 -372l192 24l195 39l18 -22l-45 -170 l-182 -13l-176 -22l8 -254q2 -72 30 -104.5t91 -32.5q58 0 94.5 2.5t69.5 12.5t51.5 24.5t36.5 42.5t29.5 62t25.5 89l174 15l14 -19q-59 -184 -102 -381l-23 -22q1 1 -98.5 4.5t-262 6.5t-296.5 3q-72 0 -151.5 -4t-123.5 -8l-43 -4l-8 16l23 123q90 7 132 38.5t44 90.5 q4 40 4 70v188l-174 -21l-170 -32l-109 -201q-30 -56 -30 -84q0 -26 21 -34.5t81 -8.5l62 -10l-29 -131q-1 1 -59.5 4t-140 5.5t-132.5 2.5zM526 649l123 8l125 17l2 370h-31z" />
<glyph unicode="&#xc7;" horiz-adv-x="1216" d="M66 524q0 372 205.5 592.5t551.5 220.5q74 0 175 -12.5t165 -24.5l64 -12l8 -26q-61 -170 -100 -385l-199 -13q18 96 18 135q0 146 -202 146q-174 0 -270.5 -150.5t-96.5 -431.5q0 -194 69 -296.5t199 -102.5q107 0 173 65t110 217l199 15q-59 -211 -86 -379l-21 -25 q-6 -3 -18 -8t-51.5 -17.5t-81 -23t-104 -20t-124.5 -11.5l-26 -67q172 -104 172 -189q0 -83 -92 -145.5t-203 -62.5q-54 0 -101 24.5t-47 61.5q0 36 94 135h17q-4 -55 20 -85t68 -30q37 0 61.5 18.5t24.5 47.5q0 49 -154 139l60 153q-224 17 -350.5 161.5t-126.5 385.5z " />
<glyph unicode="&#xc8;" horiz-adv-x="1181" d="M10 -20l33 137q83 12 117.5 48.5t44.5 125.5l98 782q8 67 -1.5 89t-47.5 22l-61 -4l-11 18l31 121q218 -6 365 -6q422 0 606 24l12 -20q-57 -181 -90 -371l-184 -12q16 72 16 117q0 61 -45.5 78.5t-190.5 17.5q-69 0 -86.5 -11t-25.5 -57l-53 -323q19 0 86 -1t98 -1 q28 0 85.5 4t101.5 8l44 4l13 -16l-50 -174q-158 6 -256 6q-37 0 -151 -13q-6 -42 -16.5 -107.5t-16 -101t-10 -73.5t-4.5 -58q0 -49 23 -62t94 -13q65 0 105.5 2.5t76.5 12.5t56 23.5t39 42t31 63t27 89.5l170 15l13 -21q-60 -182 -103 -379l-22 -20q-367 14 -613 14 q-78 0 -165 -5t-135 -10zM444 1587l52 158l26 10q236 -117 457 -213l-27 -96l-28 -19q-104 33 -221 66.5t-183 50.5l-65 17z" />
<glyph unicode="&#xc9;" horiz-adv-x="1181" d="M10 -20l33 137q83 12 117.5 48.5t44.5 125.5l98 782q8 67 -1.5 89t-47.5 22l-61 -4l-11 18l31 121q218 -6 365 -6q422 0 606 24l12 -20q-57 -181 -90 -371l-184 -12q16 72 16 117q0 61 -45.5 78.5t-190.5 17.5q-69 0 -86.5 -11t-25.5 -57l-53 -323q19 0 86 -1t98 -1 q28 0 85.5 4t101.5 8l44 4l13 -16l-50 -174q-158 6 -256 6q-37 0 -151 -13q-6 -42 -16.5 -107.5t-16 -101t-10 -73.5t-4.5 -58q0 -49 23 -62t94 -13q65 0 105.5 2.5t76.5 12.5t56 23.5t39 42t31 63t27 89.5l170 15l13 -21q-60 -182 -103 -379l-22 -20q-367 14 -613 14 q-78 0 -165 -5t-135 -10zM489 1542q98 43 212.5 96t179.5 85l65 32l27 -10l51 -158l-10 -26q-236 -60 -469 -134l-27 19z" />
<glyph unicode="&#xca;" horiz-adv-x="1181" d="M10 -20l33 137q83 12 117.5 48.5t44.5 125.5l98 782q8 67 -1.5 89t-47.5 22l-61 -4l-11 18l31 121q218 -6 365 -6q422 0 606 24l12 -20q-57 -181 -90 -371l-184 -12q16 72 16 117q0 61 -45.5 78.5t-190.5 17.5q-69 0 -86.5 -11t-25.5 -57l-53 -323q19 0 86 -1t98 -1 q28 0 85.5 4t101.5 8l44 4l13 -16l-50 -174q-158 6 -256 6q-37 0 -151 -13q-6 -42 -16.5 -107.5t-16 -101t-10 -73.5t-4.5 -58q0 -49 23 -62t94 -13q65 0 105.5 2.5t76.5 12.5t56 23.5t39 42t31 63t27 89.5l170 15l13 -21q-60 -182 -103 -379l-22 -20q-367 14 -613 14 q-78 0 -165 -5t-135 -10zM436 1540q39 26 125 89.5t153 114.5l66 50h41q0 3 53.5 -46.5t125.5 -116t102 -91.5l-60 -84l-34 -8q-15 7 -118 60t-118 59q-16 -5 -129.5 -57.5t-136.5 -61.5l-31 8z" />
<glyph unicode="&#xcb;" horiz-adv-x="1181" d="M10 -20l33 137q83 12 117.5 48.5t44.5 125.5l98 782q8 67 -1.5 89t-47.5 22l-61 -4l-11 18l31 121q218 -6 365 -6q422 0 606 24l12 -20q-57 -181 -90 -371l-184 -12q16 72 16 117q0 61 -45.5 78.5t-190.5 17.5q-69 0 -86.5 -11t-25.5 -57l-53 -323q19 0 86 -1t98 -1 q28 0 85.5 4t101.5 8l44 4l13 -16l-50 -174q-158 6 -256 6q-37 0 -151 -13q-6 -42 -16.5 -107.5t-16 -101t-10 -73.5t-4.5 -58q0 -49 23 -62t94 -13q65 0 105.5 2.5t76.5 12.5t56 23.5t39 42t31 63t27 89.5l170 15l13 -21q-60 -182 -103 -379l-22 -20q-367 14 -613 14 q-78 0 -165 -5t-135 -10zM465 1563q0 68 43 111.5t110 43.5q51 0 79 -29t28 -77q0 -67 -43.5 -111.5t-110.5 -44.5q-52 0 -79 29t-27 78zM819 1563q0 67 44 111t110 44q51 0 78.5 -28.5t27.5 -77.5q0 -67 -43 -111.5t-110 -44.5q-51 0 -79 29t-28 78z" />
<glyph unicode="&#xcc;" horiz-adv-x="722" d="M10 -18l31 131q89 19 122.5 53t43.5 119l96 792q8 64 -3.5 85.5t-53.5 21.5l-68 -2l-8 16l29 119q21 0 122.5 -2t153.5 -2q39 0 110.5 4t122.5 8l52 4l-29 -135q-76 -10 -103 -32t-38 -79q-45 -260 -87 -536.5t-42 -333.5q0 -46 14.5 -64t48.5 -18l86 6l6 -14l-32 -129 q-205 6 -293 6q-50 0 -120.5 -4.5t-115.5 -9.5zM180 1587l51 158l27 10q236 -117 457 -213l-27 -96l-29 -19q-104 33 -221 66.5t-182 50.5l-66 17z" />
<glyph unicode="&#xcd;" horiz-adv-x="722" d="M10 -18l31 131q89 19 122.5 53t43.5 119l96 792q8 64 -3.5 85.5t-53.5 21.5l-68 -2l-8 16l29 119q21 0 122.5 -2t153.5 -2q39 0 110.5 4t122.5 8l52 4l-29 -135q-76 -10 -103 -32t-38 -79q-45 -260 -87 -536.5t-42 -333.5q0 -46 14.5 -64t48.5 -18l86 6l6 -14l-32 -129 q-205 6 -293 6q-50 0 -120.5 -4.5t-115.5 -9.5zM272 1542q98 43 212.5 96t179.5 85l65 32l27 -10l51 -158l-10 -26q-236 -60 -469 -134l-27 19z" />
<glyph unicode="&#xce;" horiz-adv-x="722" d="M10 -18l31 131q89 19 122.5 53t43.5 119l96 792q8 64 -3.5 85.5t-53.5 21.5l-68 -2l-8 16l29 119q21 0 122.5 -2t153.5 -2q39 0 110.5 4t122.5 8l52 4l-29 -135q-76 -10 -103 -32t-38 -79q-45 -260 -87 -536.5t-42 -333.5q0 -46 14.5 -64t48.5 -18l86 6l6 -14l-32 -129 q-205 6 -293 6q-50 0 -120.5 -4.5t-115.5 -9.5zM164 1540q39 26 125 89.5t153 114.5l66 50h41q0 3 53.5 -46.5t125 -116t101.5 -91.5l-59 -84l-35 -8q-16 7 -118 60t-117 59q-16 -5 -130.5 -57.5t-136.5 -61.5l-30 8z" />
<glyph unicode="&#xcf;" horiz-adv-x="722" d="M10 -18l31 131q89 19 122.5 53t43.5 119l96 792q8 64 -3.5 85.5t-53.5 21.5l-68 -2l-8 16l29 119q21 0 122.5 -2t153.5 -2q39 0 110.5 4t122.5 8l52 4l-29 -135q-76 -10 -103 -32t-38 -79q-45 -260 -87 -536.5t-42 -333.5q0 -46 14.5 -64t48.5 -18l86 6l6 -14l-32 -129 q-205 6 -293 6q-50 0 -120.5 -4.5t-115.5 -9.5zM195 1563q0 68 43 111.5t110 43.5q51 0 79 -29t28 -77q0 -67 -43.5 -111.5t-110.5 -44.5q-52 0 -79 29t-27 78zM549 1563q0 67 43.5 111t109.5 44q51 0 79 -29t28 -77q0 -67 -43.5 -111.5t-110.5 -44.5q-51 0 -78.5 29 t-27.5 78z" />
<glyph unicode="&#xd0;" horiz-adv-x="1396" d="M33 600l35 123h225l43 348q7 66 -2.5 88.5t-44.5 22.5l-68 -4l-8 18l31 123q174 -6 252 -6l297 10q271 0 429 -140.5t158 -387.5q0 -173 -58.5 -325.5t-160 -261t-245 -171t-306.5 -62.5q-194 25 -307 25q-46 0 -110.5 -5t-106.5 -10l-41 -5l31 137q85 15 118.5 50.5 t45.5 121.5l36 297h-229zM496 256q0 -63 31.5 -86t115.5 -23q195 0 307.5 167t112.5 456q0 381 -377 381q-32 0 -44 -10t-17 -39q-29 -172 -62 -379l240 4l12 -18l-29 -123h-245q-45 -283 -45 -330z" />
<glyph unicode="&#xd1;" horiz-adv-x="1441" d="M25 -16l32 135q61 8 92.5 37.5t40.5 91.5l125 813q8 66 -21 91.5t-124 35.5l-12 20l26 115q132 -10 232 -10q38 0 85.5 2t76.5 4l28 2q90 -195 195 -407.5t165 -327.5l60 -115h21l71 625q4 47 -8.5 67.5t-44.5 20.5q-17 0 -42 -1t-26 -1l-6 16l29 123q168 -8 256 -8 q43 0 101.5 3t96.5 6l37 3l-26 -135q-66 -9 -98 -38.5t-41 -90.5l-160 -1092l-217 -26q-108 228 -222.5 459t-175.5 348l-61 116h-18l-82 -645q-6 -52 6.5 -72t50.5 -20l84 4l10 -12l-35 -129q-170 8 -256 8q-47 0 -108.5 -4t-99.5 -8zM508 1483l2 22l180 197l33 8 q35 0 148.5 -35t140.5 -35q21 0 56 27t60 53l25 27h23l71 -76l-2 -20l-180 -199l-35 -8q-34 0 -147 34.5t-140 34.5q-22 0 -57 -26.5t-60 -52.5l-24 -27h-22z" />
<glyph unicode="&#xd2;" horiz-adv-x="1329" d="M66 522q0 239 89.5 424.5t254 288t378.5 102.5q243 0 384 -143.5t141 -394.5q0 -240 -91.5 -427.5t-258 -292t-379.5 -104.5q-236 0 -377 147.5t-141 399.5zM379 535q0 -181 68 -283t190 -102q165 0 260.5 160.5t95.5 449.5q0 181 -70.5 283t-193.5 102 q-161 0 -255.5 -162t-94.5 -448zM494 1587l51 158l26 10q236 -117 457 -213l-27 -96l-28 -19q-104 33 -221 66.5t-182 50.5l-66 17z" />
<glyph unicode="&#xd3;" horiz-adv-x="1329" d="M66 522q0 239 89.5 424.5t254 288t378.5 102.5q243 0 384 -143.5t141 -394.5q0 -240 -91.5 -427.5t-258 -292t-379.5 -104.5q-236 0 -377 147.5t-141 399.5zM379 535q0 -181 68 -283t190 -102q165 0 260.5 160.5t95.5 449.5q0 181 -70.5 283t-193.5 102 q-161 0 -255.5 -162t-94.5 -448zM547 1542q98 43 212.5 96t179.5 85l65 32l26 -10l51 -158l-10 -26q-236 -60 -469 -134l-27 19z" />
<glyph unicode="&#xd4;" horiz-adv-x="1329" d="M66 522q0 239 89.5 424.5t254 288t378.5 102.5q243 0 384 -143.5t141 -394.5q0 -240 -91.5 -427.5t-258 -292t-379.5 -104.5q-236 0 -377 147.5t-141 399.5zM379 535q0 -181 68 -283t190 -102q165 0 260.5 160.5t95.5 449.5q0 181 -70.5 283t-193.5 102 q-161 0 -255.5 -162t-94.5 -448zM457 1540q39 26 125 89.5t152 114.5l67 50h41q0 3 53.5 -46.5t125 -116t101.5 -91.5l-59 -84l-35 -8q-16 7 -118 60t-117 59q-16 -5 -130.5 -57.5t-136.5 -61.5l-30 8z" />
<glyph unicode="&#xd5;" horiz-adv-x="1329" d="M66 522q0 239 89.5 424.5t254 288t378.5 102.5q243 0 384 -143.5t141 -394.5q0 -240 -91.5 -427.5t-258 -292t-379.5 -104.5q-236 0 -377 147.5t-141 399.5zM379 535q0 -181 68 -283t190 -102q165 0 260.5 160.5t95.5 449.5q0 181 -70.5 283t-193.5 102 q-161 0 -255.5 -162t-94.5 -448zM438 1483l2 22l181 197l32 8q35 0 148.5 -35t140.5 -35q21 0 56 27t60 53l25 27h23l72 -76l-2 -20l-181 -199l-34 -8q-34 0 -147 34.5t-140 34.5q-22 0 -57.5 -26.5t-60.5 -52.5l-24 -27h-22z" />
<glyph unicode="&#xd6;" horiz-adv-x="1329" d="M66 522q0 239 89.5 424.5t254 288t378.5 102.5q243 0 384 -143.5t141 -394.5q0 -240 -91.5 -427.5t-258 -292t-379.5 -104.5q-236 0 -377 147.5t-141 399.5zM379 535q0 -181 68 -283t190 -102q165 0 260.5 160.5t95.5 449.5q0 181 -70.5 283t-193.5 102 q-161 0 -255.5 -162t-94.5 -448zM487 1563q0 68 43.5 111.5t110.5 43.5q51 0 79 -29t28 -77q0 -67 -43.5 -111.5t-110.5 -44.5q-52 0 -79.5 29t-27.5 78zM842 1563q0 67 43.5 111t109.5 44q51 0 79 -29t28 -77q0 -67 -43.5 -111.5t-110.5 -44.5q-51 0 -78.5 29t-27.5 78z " />
<glyph unicode="&#xd7;" d="M98 264q137 127 262 242l-223 264l8 29l166 108q113 -139 211 -256q54 51 124 120t114 112l43 43l24 -11l99 -143l-281 -262q43 -50 99 -112.5t91 -99.5l35 -38l-14 -27l-160 -118l-213 252l-272 -256l-25 6z" />
<glyph unicode="&#xd8;" horiz-adv-x="1329" d="M66 522q0 239 89.5 424.5t254 288t378.5 102.5q102 0 191 -28l111 184l124 -59l7 -27l-103 -168q94 -69 144.5 -181t50.5 -259q0 -240 -91.5 -427.5t-258 -292t-379.5 -104.5q-104 0 -195 31l-137 -225l-123 59l-6 21l133 217q-92 70 -141 183t-49 261zM379 535 q0 -113 29 -205l450 776q-58 39 -129 39q-161 0 -255.5 -162t-94.5 -448zM502 193q55 -43 135 -43q165 0 260.5 160.5t95.5 449.5q0 125 -35 215z" />
<glyph unicode="&#xd9;" horiz-adv-x="1288" d="M123 1188l35 131q167 -6 282 -6q36 0 95.5 3.5t100.5 7.5l42 3l-31 -137q-63 -7 -89 -31t-34 -78l-88 -596q-4 -58 -4 -82q-1 -120 51.5 -182.5t155.5 -62.5q236 0 270 270l74 645q6 68 -3.5 89.5t-45.5 21.5l-66 -4l-4 8l33 131q155 -6 229 -6q45 0 105 3.5t97 7.5l38 3 l-29 -135q-76 -15 -98.5 -33t-28.5 -69l-80 -641q-29 -232 -171 -353t-386 -121q-419 0 -419 363q0 38 6 82l82 653q8 68 -2.5 89.5t-51.5 21.5l-61 -4zM489 1587l52 158l26 10q236 -117 457 -213l-27 -96l-28 -19q-104 33 -221 66.5t-182 50.5l-66 17z" />
<glyph unicode="&#xda;" horiz-adv-x="1288" d="M123 1188l35 131q167 -6 282 -6q36 0 95.5 3.5t100.5 7.5l42 3l-31 -137q-63 -7 -89 -31t-34 -78l-88 -596q-4 -58 -4 -82q-1 -120 51.5 -182.5t155.5 -62.5q236 0 270 270l74 645q6 68 -3.5 89.5t-45.5 21.5l-66 -4l-4 8l33 131q155 -6 229 -6q45 0 105 3.5t97 7.5l38 3 l-29 -135q-76 -15 -98.5 -33t-28.5 -69l-80 -641q-29 -232 -171 -353t-386 -121q-419 0 -419 363q0 38 6 82l82 653q8 68 -2.5 89.5t-51.5 21.5l-61 -4zM580 1542q98 43 212 96t179 85l65 32l27 -10l51 -158l-10 -26q-236 -60 -469 -134l-27 19z" />
<glyph unicode="&#xdb;" horiz-adv-x="1288" d="M123 1188l35 131q167 -6 282 -6q36 0 95.5 3.5t100.5 7.5l42 3l-31 -137q-63 -7 -89 -31t-34 -78l-88 -596q-4 -58 -4 -82q-1 -120 51.5 -182.5t155.5 -62.5q236 0 270 270l74 645q6 68 -3.5 89.5t-45.5 21.5l-66 -4l-4 8l33 131q155 -6 229 -6q45 0 105 3.5t97 7.5l38 3 l-29 -135q-76 -15 -98.5 -33t-28.5 -69l-80 -641q-29 -232 -171 -353t-386 -121q-419 0 -419 363q0 38 6 82l82 653q8 68 -2.5 89.5t-51.5 21.5l-61 -4zM481 1540q39 26 125 89.5t152 114.5l67 50h41q0 3 53.5 -46.5t125.5 -116t102 -91.5l-60 -84l-34 -8q-15 7 -118 60 t-118 59q-16 -5 -129.5 -57.5t-136.5 -61.5l-31 8z" />
<glyph unicode="&#xdc;" horiz-adv-x="1288" d="M123 1188l35 131q167 -6 282 -6q36 0 95.5 3.5t100.5 7.5l42 3l-31 -137q-63 -7 -89 -31t-34 -78l-88 -596q-4 -58 -4 -82q-1 -120 51.5 -182.5t155.5 -62.5q236 0 270 270l74 645q6 68 -3.5 89.5t-45.5 21.5l-66 -4l-4 8l33 131q155 -6 229 -6q45 0 105 3.5t97 7.5l38 3 l-29 -135q-76 -15 -98.5 -33t-28.5 -69l-80 -641q-29 -232 -171 -353t-386 -121q-419 0 -419 363q0 38 6 82l82 653q8 68 -2.5 89.5t-51.5 21.5l-61 -4zM510 1563q0 68 43.5 111.5t110.5 43.5q51 0 78.5 -28.5t27.5 -77.5q0 -67 -43.5 -111.5t-110.5 -44.5q-52 0 -79 29 t-27 78zM864 1563q0 67 44 111t110 44q51 0 78.5 -28.5t27.5 -77.5q0 -67 -43 -111.5t-110 -44.5q-51 0 -79 29t-28 78z" />
<glyph unicode="&#xdd;" horiz-adv-x="1191" d="M70 1190l32 129q176 -6 254 -6q45 0 125 4t137 8l58 4l8 -18l-27 -117q-72 -4 -97 -18.5t-25 -47.5q0 -57 114 -423h17l198 344q39 64 39 102q0 20 -21.5 30t-72.5 13l-4 10l31 117q21 0 117 -4t145 -4q40 0 91.5 2t82.5 4l31 2l6 -14l-31 -123q-82 -26 -136 -81 t-134 -181l-234 -367q-23 -36 -36 -79.5t-18 -74.5t-18 -133q-11 -76 5 -105.5t71 -29.5l99 6l6 -10l-35 -137q-228 8 -326 8q-51 0 -130 -6t-132 -12l-53 -5l31 138q81 12 120.5 31.5t57 55t24.5 107.5l9 64q7 51 0.5 98.5t-31.5 112.5l-146 389q-36 103 -74 146t-122 61z M545 1542q98 43 212 96t179 85l65 32l27 -10l51 -158l-10 -26q-236 -60 -469 -134l-27 19z" />
<glyph unicode="&#xde;" horiz-adv-x="1136" d="M8 -18l31 133q88 19 121 52.5t43 119.5l98 788q8 63 -4 85t-55 22l-66 -2l-10 16l31 121q23 0 124.5 -1t153.5 -1q39 0 111 3.5t124 7.5l52 3l-27 -137q-79 -12 -105 -30t-34 -64l-8 -49h147q205 0 308.5 -79t103.5 -233q0 -124 -72.5 -226t-194.5 -159t-266 -57h-139 l-8 -62q-7 -61 5 -80.5t56 -19.5l95 6l8 -14l-33 -131q-215 6 -307 6q-49 0 -120 -4.5t-117 -9.5zM498 475q101 -29 159 -29q97 17 146 82.5t49 171.5q0 95 -60 139t-188 44q-26 0 -36 -6t-13 -23z" />
<glyph unicode="&#xdf;" horiz-adv-x="1249" d="M-281 -385q13 45 46.5 113.5t60.5 105.5h33q6 -166 145 -166q58 0 97.5 44.5t43.5 119.5q-2 -5 -5 -32l-3 -15l21 283l55 718l-18 15l-146 4l-6 10l10 94l172 27l15 131q22 184 176 318.5t342 134.5q159 0 262.5 -73.5t103.5 -189.5q0 -55 -19.5 -104t-49 -83 t-63.5 -68.5t-63.5 -62.5t-49 -63t-19.5 -71q0 -31 20 -59t52.5 -51.5t71.5 -47.5t78.5 -52.5t72 -61.5t52.5 -80.5t20 -102.5q0 -156 -127 -265.5t-307 -109.5q-102 0 -179.5 35t-83.5 86q7 44 44 115.5t71 110.5l41 -3q-6 -82 32.5 -131t110.5 -49q52 0 92 41.5t40 95.5 q0 33 -20 63t-51.5 54t-69.5 48.5t-76.5 52t-70 59t-51.5 76t-20 96.5q0 60 27.5 113.5t67 93.5t79 78t67 82t27.5 90q0 70 -49.5 114.5t-140.5 44.5q-83 0 -131.5 -49t-63.5 -153l-135 -1225q-19 -167 -138.5 -288.5t-264.5 -121.5q-80 0 -145.5 32t-82.5 79z" />
<glyph unicode="&#xe0;" horiz-adv-x="1009" d="M43 274q0 161 73 320t188.5 259.5t232.5 100.5l178 -36l14 45l23 14l166 -29l16 -35q-99 -367 -148 -690l9 -8q12 0 36.5 18.5t98.5 83.5l35 -4l32 -71q-145 -152 -221.5 -209.5t-134.5 -57.5q-88 0 -88 78q0 55 70 342l-17 2q-92 -166 -170 -265.5t-160 -156.5 q-110 0 -171.5 79t-61.5 220zM297 389q0 -74 13 -124t32 -50q46 0 140.5 157t170.5 361q-99 60 -180 60q-42 0 -83 -59t-67 -153.5t-26 -191.5zM324 1364l112 143l27 2q174 -184 344 -348l-62 -80l-32 -8q-84 63 -180.5 128.5t-150.5 99.5l-54 34z" />
<glyph unicode="&#xe1;" horiz-adv-x="1009" d="M43 274q0 161 73 320t188.5 259.5t232.5 100.5l178 -36l14 45l23 14l166 -29l16 -35q-99 -367 -148 -690l9 -8q12 0 36.5 18.5t98.5 83.5l35 -4l32 -71q-145 -152 -221.5 -209.5t-134.5 -57.5q-88 0 -88 78q0 55 70 342l-17 2q-92 -166 -170 -265.5t-160 -156.5 q-110 0 -171.5 79t-61.5 220zM297 389q0 -74 13 -124t32 -50q46 0 140.5 157t170.5 361q-99 60 -180 60q-42 0 -83 -59t-67 -153.5t-26 -191.5zM403 1159q76 73 162 160.5t135 138.5l48 51l26 -2l111 -143l-2 -29q-197 -123 -387 -264l-31 8z" />
<glyph unicode="&#xe2;" horiz-adv-x="1009" d="M43 274q0 161 73 320t188.5 259.5t232.5 100.5l178 -36l14 45l23 14l166 -29l16 -35q-99 -367 -148 -690l9 -8q12 0 36.5 18.5t98.5 83.5l35 -4l32 -71q-145 -152 -221.5 -209.5t-134.5 -57.5q-88 0 -88 78q0 55 70 342l-17 2q-92 -166 -170 -265.5t-160 -156.5 q-110 0 -171.5 79t-61.5 220zM281 1180q37 30 122 109t151 143l67 63h41q198 -247 264 -315l-70 -84l-33 -9q-13 10 -62.5 51t-94 77t-54.5 42q-18 -9 -250 -170l-32 9zM297 389q0 -74 13 -124t32 -50q46 0 140.5 157t170.5 361q-99 60 -180 60q-42 0 -83 -59t-67 -153.5 t-26 -191.5z" />
<glyph unicode="&#xe3;" horiz-adv-x="1009" d="M43 274q0 161 73 320t188.5 259.5t232.5 100.5l178 -36l14 45l23 14l166 -29l16 -35q-99 -367 -148 -690l9 -8q12 0 36.5 18.5t98.5 83.5l35 -4l32 -71q-145 -152 -221.5 -209.5t-134.5 -57.5q-88 0 -88 78q0 55 70 342l-17 2q-92 -166 -170 -265.5t-160 -156.5 q-110 0 -171.5 79t-61.5 220zM238 1180l2 22l180 207l33 8q35 0 149 -33.5t141 -33.5q20 0 55.5 28.5t61.5 57.5l25 28h22l74 -75l-4 -21l-180 -209l-33 -8q-35 0 -148.5 35t-140.5 35q-22 0 -57.5 -28.5t-60.5 -57.5l-25 -29h-23zM297 389q0 -74 13 -124t32 -50 q46 0 140.5 157t170.5 361q-99 60 -180 60q-42 0 -83 -59t-67 -153.5t-26 -191.5z" />
<glyph unicode="&#xe4;" horiz-adv-x="1009" d="M43 274q0 161 73 320t188.5 259.5t232.5 100.5l178 -36l14 45l23 14l166 -29l16 -35q-99 -367 -148 -690l9 -8q12 0 36.5 18.5t98.5 83.5l35 -4l32 -71q-145 -152 -221.5 -209.5t-134.5 -57.5q-88 0 -88 78q0 55 70 342l-17 2q-92 -166 -170 -265.5t-160 -156.5 q-110 0 -171.5 79t-61.5 220zM297 389q0 -74 13 -124t32 -50q46 0 140.5 157t170.5 361q-99 60 -180 60q-42 0 -83 -59t-67 -153.5t-26 -191.5zM324 1262q0 66 44 110.5t111 44.5q51 0 78 -28.5t27 -77.5q0 -68 -43.5 -112t-110.5 -44q-51 0 -78.5 29t-27.5 78zM678 1262 q0 66 44.5 110.5t111.5 44.5q51 0 78.5 -28.5t27.5 -77.5q0 -68 -43.5 -112t-110.5 -44q-53 0 -80.5 29t-27.5 78z" />
<glyph unicode="&#xe5;" horiz-adv-x="1009" d="M43 274q0 161 73 320t188.5 259.5t232.5 100.5l178 -36l14 45l23 14l166 -29l16 -35q-99 -367 -148 -690l9 -8q12 0 36.5 18.5t98.5 83.5l35 -4l32 -71q-145 -152 -221.5 -209.5t-134.5 -57.5q-88 0 -88 78q0 55 70 342l-17 2q-92 -166 -170 -265.5t-160 -156.5 q-110 0 -171.5 79t-61.5 220zM297 389q0 -74 13 -124t32 -50q46 0 140.5 157t170.5 361q-99 60 -180 60q-42 0 -83 -59t-67 -153.5t-26 -191.5zM389 1272q0 94 62 157.5t157 63.5q81 0 119.5 -44t38.5 -110q0 -91 -62 -159t-159 -68q-75 0 -115.5 44t-40.5 116zM494 1296 q0 -38 24 -56.5t53 -18.5q33 0 60.5 18.5t27.5 67.5q0 73 -79 73q-42 0 -64 -23t-22 -61z" />
<glyph unicode="&#xe6;" horiz-adv-x="1300" d="M43 274q0 161 73 320t188.5 259.5t232.5 100.5l315 -49q103 64 213 64q103 0 161 -51t58 -142q0 -135 -113.5 -225t-384.5 -176q0 -93 34 -147t95 -54q57 0 110 42.5t95 119.5l37 -4l68 -82q-56 -119 -168.5 -197t-227.5 -78q-123 0 -198 85t-84 233q-139 -228 -271 -318 q-110 0 -171.5 79t-61.5 220zM297 389q0 -74 13 -124t32 -50q46 0 140.5 163.5t170.5 375.5q-95 39 -180 39q-42 0 -83 -59t-67 -153.5t-26 -191.5zM793 500q139 46 203.5 98.5t64.5 118.5q0 71 -68 71t-124 -80.5t-76 -207.5z" />
<glyph unicode="&#xe7;" horiz-adv-x="753" d="M49 328q0 124 42.5 242.5t113 205.5t165.5 140t195 53q126 0 199 -45l8 -31l-86 -197l-57 -4q-57 96 -135 96t-138.5 -117.5t-60.5 -273.5q0 -104 32.5 -162.5t88.5 -58.5q52 0 103.5 44.5t86.5 121.5l35 -4l68 -84q-44 -96 -125.5 -168.5t-171.5 -97.5l-31 -78 q172 -104 172 -189q0 -83 -92 -145.5t-203 -62.5q-54 0 -100.5 24.5t-46.5 61.5q0 36 94 135h16q-4 -55 20 -85t68 -30q37 0 61.5 18.5t24.5 47.5q0 49 -153 139l59 153q-117 11 -184.5 104.5t-67.5 246.5z" />
<glyph unicode="&#xe8;" horiz-adv-x="804" d="M49 334q0 121 43.5 238t114.5 203.5t167 140t195 53.5q103 0 161 -51t58 -142q0 -135 -113 -225t-384 -176q0 -93 34 -147t95 -54q57 0 110.5 42.5t96.5 119.5l35 -4l67 -82q-56 -119 -168 -197t-227 -78q-130 0 -207.5 97.5t-77.5 261.5zM266 1362l113 143l27 2 q174 -184 344 -348l-62 -80l-33 -8q-84 63 -180.5 128.5t-150.5 99.5l-54 34zM297 500q139 46 203.5 98.5t64.5 118.5q0 71 -67 71q-68 0 -124.5 -80.5t-76.5 -207.5z" />
<glyph unicode="&#xe9;" horiz-adv-x="804" d="M49 334q0 121 43.5 238t114.5 203.5t167 140t195 53.5q103 0 161 -51t58 -142q0 -135 -113 -225t-384 -176q0 -93 34 -147t95 -54q57 0 110.5 42.5t96.5 119.5l35 -4l67 -82q-56 -119 -168 -197t-227 -78q-130 0 -207.5 97.5t-77.5 261.5zM297 500q139 46 203.5 98.5 t64.5 118.5q0 71 -67 71q-68 0 -124.5 -80.5t-76.5 -207.5zM305 1161q76 73 162 160.5t134 138.5l48 51l27 -2l110 -143l-2 -29q-197 -123 -387 -264l-30 8z" />
<glyph unicode="&#xea;" horiz-adv-x="804" d="M49 334q0 121 43.5 238t114.5 203.5t167 140t195 53.5q103 0 161 -51t58 -142q0 -135 -113 -225t-384 -176q0 -93 34 -147t95 -54q57 0 110.5 42.5t96.5 119.5l35 -4l67 -82q-56 -119 -168 -197t-227 -78q-130 0 -207.5 97.5t-77.5 261.5zM233 1180q37 30 122 109 t151 143l67 63h41q199 -247 265 -315l-70 -84l-33 -9q-13 10 -62.5 51t-94 77t-54.5 42q-18 -9 -250 -170l-32 9zM297 500q139 46 203.5 98.5t64.5 118.5q0 71 -67 71q-68 0 -124.5 -80.5t-76.5 -207.5z" />
<glyph unicode="&#xeb;" horiz-adv-x="804" d="M49 334q0 121 43.5 238t114.5 203.5t167 140t195 53.5q103 0 161 -51t58 -142q0 -135 -113 -225t-384 -176q0 -93 34 -147t95 -54q57 0 110.5 42.5t96.5 119.5l35 -4l67 -82q-56 -119 -168 -197t-227 -78q-130 0 -207.5 97.5t-77.5 261.5zM252 1260q0 66 44.5 110.5 t111.5 44.5q51 0 77.5 -28.5t26.5 -77.5q0 -68 -43.5 -112t-110.5 -44q-51 0 -78.5 29t-27.5 78zM297 500q139 46 203.5 98.5t64.5 118.5q0 71 -67 71q-68 0 -124.5 -80.5t-76.5 -207.5zM606 1260q0 66 44.5 110.5t111.5 44.5q51 0 78.5 -28.5t27.5 -77.5q0 -68 -43 -112 t-110 -44q-53 0 -81 29t-28 78z" />
<glyph unicode="&#xec;" horiz-adv-x="600" d="M55 807l21 121q68 0 165.5 4.5t161.5 9.5l64 4l25 -33q-97 -345 -146 -690l8 -8q12 0 36 18t99 84l35 -4l35 -71q-133 -144 -215 -205.5t-141 -61.5q-97 0 -97 103q99 585 99 651q0 41 -18.5 59.5t-59.5 18.5h-72zM88 1362l113 143l26 2q174 -184 344 -348l-61 -80 l-33 -8q-84 63 -180.5 128.5t-150.5 99.5l-54 34z" />
<glyph unicode="&#xed;" horiz-adv-x="600" d="M55 807l21 121q68 0 165.5 4.5t161.5 9.5l64 4l25 -33q-97 -345 -146 -690l8 -8q12 0 36 18t99 84l35 -4l35 -71q-133 -144 -215 -205.5t-141 -61.5q-97 0 -97 103q99 585 99 651q0 41 -18.5 59.5t-59.5 18.5h-72zM150 1159q76 73 162 160.5t134 138.5l48 51l26 -2 l111 -143l-2 -29q-197 -123 -387 -264l-31 8z" />
<glyph unicode="&#xee;" horiz-adv-x="600" d="M55 807l21 121q68 0 165.5 4.5t161.5 9.5l64 4l25 -33q-97 -345 -146 -690l8 -8q12 0 36 18t99 84l35 -4l35 -71q-133 -144 -215 -205.5t-141 -61.5q-97 0 -97 103q99 585 99 651q0 41 -18.5 59.5t-59.5 18.5h-72zM55 1178q37 30 122 109t151 143l67 63h41 q198 -247 264 -315l-69 -84l-33 -9q-13 10 -62.5 51t-94 77t-54.5 42q-18 -9 -250 -170l-33 9z" />
<glyph unicode="&#xef;" horiz-adv-x="600" d="M55 807l21 121q68 0 165.5 4.5t161.5 9.5l64 4l25 -33q-97 -345 -146 -690l8 -8q12 0 36 18t99 84l35 -4l35 -71q-133 -144 -215 -205.5t-141 -61.5q-97 0 -97 103q99 585 99 651q0 41 -18.5 59.5t-59.5 18.5h-72zM76 1260q0 66 44 110.5t111 44.5q51 0 78 -28.5 t27 -77.5q0 -68 -43.5 -112t-110.5 -44q-51 0 -78.5 29t-27.5 78zM430 1260q0 66 44.5 110.5t111.5 44.5q51 0 78.5 -28.5t27.5 -77.5q0 -68 -43 -112t-110 -44q-53 0 -81 29t-28 78z" />
<glyph unicode="&#xf0;" horiz-adv-x="1003" d="M45 365q0 156 64.5 291t172.5 213.5t230 78.5q18 -4 40 -14t43 -22l21 -13l9 10q-40 117 -121 217l-273 -131l-16 6l-20 125l202 101q-87 90 -215 166l82 114l27 11q174 -80 307 -195l297 143l16 -10l21 -121l-221 -108q122 -130 187 -293t65 -336q0 -181 -70 -323.5 t-193.5 -221t-277.5 -78.5q-177 0 -277 105t-100 285zM319 381q0 -118 43 -183t121 -65q82 0 138.5 128t56.5 312q0 107 -4 142q-53 53 -139 53q-98 0 -157 -106.5t-59 -280.5z" />
<glyph unicode="&#xf1;" horiz-adv-x="1062" d="M57 807l21 121q68 0 165.5 4.5t161.5 9.5l64 4l23 -33q-66 -204 -97 -401l13 -2q177 369 331 461q102 0 165 -57.5t63 -149.5q0 -66 -69.5 -281.5t-78.5 -257.5l6 -6q12 0 36 18t100 85l36 -7l33 -71q-136 -145 -216.5 -206t-139.5 -61q-99 0 -99 91q0 52 71 282.5 t71 286.5q0 34 -14 53t-39 19q-51 0 -136.5 -139.5t-173.5 -364.5l-18 -146q-4 -26 -74 -50.5t-139 -24.5l-27 32q101 615 111 707q3 45 -15 64.5t-63 19.5h-72zM283 1178l2 22l180 207l33 8q35 0 149 -33.5t141 -33.5q20 0 55.5 28.5t60.5 57.5l26 28h22l74 -76l-4 -20 l-180 -209l-33 -8q-35 0 -148.5 35t-140.5 35q-22 0 -57.5 -28.5t-60.5 -57.5l-25 -29h-23z" />
<glyph unicode="&#xf2;" horiz-adv-x="909" d="M55 342q0 175 65.5 319t182 227t258.5 83q143 0 221 -90t78 -256q0 -182 -66 -331t-183 -234t-261 -85q-137 0 -216 98t-79 269zM254 1362l113 143l26 2q174 -184 344 -348l-61 -80l-33 -8q-84 63 -180.5 128.5t-150.5 99.5l-54 34zM307 408q0 -126 33 -197.5t90 -71.5 q80 0 126 106t46 294q0 249 -125 249q-75 0 -122.5 -106t-47.5 -274z" />
<glyph unicode="&#xf3;" horiz-adv-x="909" d="M55 342q0 175 65.5 319t182 227t258.5 83q143 0 221 -90t78 -256q0 -182 -66 -331t-183 -234t-261 -85q-137 0 -216 98t-79 269zM307 408q0 -126 33 -197.5t90 -71.5q80 0 126 106t46 294q0 249 -125 249q-75 0 -122.5 -106t-47.5 -274zM358 1159q76 73 162 160.5 t134 138.5l48 51l27 -2l111 -143l-2 -29q-197 -123 -387 -264l-31 8z" />
<glyph unicode="&#xf4;" horiz-adv-x="909" d="M55 342q0 175 65.5 319t182 227t258.5 83q143 0 221 -90t78 -256q0 -182 -66 -331t-183 -234t-261 -85q-137 0 -216 98t-79 269zM231 1180q37 30 122 109t151 143l67 63h41q199 -247 265 -315l-70 -84l-33 -9q-13 10 -62.5 51t-94 77t-54.5 42q-18 -9 -250 -170l-32 9z M307 408q0 -126 33 -197.5t90 -71.5q80 0 126 106t46 294q0 249 -125 249q-75 0 -122.5 -106t-47.5 -274z" />
<glyph unicode="&#xf5;" horiz-adv-x="909" d="M55 342q0 175 65.5 319t182 227t258.5 83q143 0 221 -90t78 -256q0 -182 -66 -331t-183 -234t-261 -85q-137 0 -216 98t-79 269zM199 1178l2 22l180 207l33 8q35 0 149.5 -33.5t141.5 -33.5q20 0 55.5 28.5t60.5 57.5l25 28h22l74 -76l-4 -20l-180 -209l-33 -8 q-35 0 -148.5 35t-140.5 35q-22 0 -57.5 -28.5t-60.5 -57.5l-25 -29h-23zM307 408q0 -126 33 -197.5t90 -71.5q80 0 126 106t46 294q0 249 -125 249q-75 0 -122.5 -106t-47.5 -274z" />
<glyph unicode="&#xf6;" horiz-adv-x="909" d="M55 342q0 175 65.5 319t182 227t258.5 83q143 0 221 -90t78 -256q0 -182 -66 -331t-183 -234t-261 -85q-137 0 -216 98t-79 269zM256 1260q0 66 44.5 110.5t111.5 44.5q51 0 77.5 -28.5t26.5 -77.5q0 -68 -43.5 -112t-110.5 -44q-51 0 -78.5 29t-27.5 78zM307 408 q0 -126 33 -197.5t90 -71.5q80 0 126 106t46 294q0 249 -125 249q-75 0 -122.5 -106t-47.5 -274zM610 1260q0 66 44.5 110.5t111.5 44.5q51 0 78.5 -28.5t27.5 -77.5q0 -68 -43 -112t-110 -44q-53 0 -81 29t-28 78z" />
<glyph unicode="&#xf7;" d="M31 444l51 185q285 -2 461 -2q71 0 179 3t180 6l73 3l10 -25l-45 -188l-448 -2l-449 -2zM309 135q0 76 47 125t121 49q59 0 90 -33t31 -88q0 -76 -47 -125t-121 -49q-59 0 -90 33t-31 88zM399 862q0 76 46 125t122 49q59 0 90 -33t31 -88q0 -76 -47 -125t-123 -49 q-59 0 -89 33t-30 88z" />
<glyph unicode="&#xf8;" horiz-adv-x="909" d="M-4 -160l139 230q-80 99 -80 272q0 175 65.5 319t182 227t258.5 83q46 0 96 -13l127 213l127 -61l7 -25l-130 -213q72 -87 72 -247q0 -182 -66 -331t-183 -234t-261 -85q-44 0 -88 13l-139 -228l-123 60zM307 358l236 406q-27 24 -66 24q-75 0 -122.5 -106t-47.5 -274 v-50zM371 164q25 -25 59 -25q80 0 126 106t46 294v20z" />
<glyph unicode="&#xf9;" horiz-adv-x="1040" d="M76 807l20 121q68 0 165.5 4.5t161.5 9.5l64 4l25 -33q-176 -532 -176 -628q0 -60 47 -60t138 146.5t186 376.5l28 188l31 16l168 -12l27 -31q-97 -363 -146 -686l8 -8q11 0 28.5 13t106.5 89l35 -4l33 -71q-150 -156 -224 -211.5t-132 -55.5q-88 0 -88 78q0 43 73 359 l-18 2q-154 -324 -307 -437q-113 0 -177.5 52.5t-64.5 142.5q0 59 67.5 289.5t67.5 275.5q0 37 -18.5 53.5t-59.5 16.5h-69zM330 1362l112 143l27 2q174 -184 344 -348l-61 -80l-33 -8q-84 63 -180.5 128.5t-150.5 99.5l-54 34z" />
<glyph unicode="&#xfa;" horiz-adv-x="1040" d="M76 807l20 121q68 0 165.5 4.5t161.5 9.5l64 4l25 -33q-176 -532 -176 -628q0 -60 47 -60t138 146.5t186 376.5l28 188l31 16l168 -12l27 -31q-97 -363 -146 -686l8 -8q11 0 28.5 13t106.5 89l35 -4l33 -71q-150 -156 -224 -211.5t-132 -55.5q-88 0 -88 78q0 43 73 359 l-18 2q-154 -324 -307 -437q-113 0 -177.5 52.5t-64.5 142.5q0 59 67.5 289.5t67.5 275.5q0 37 -18.5 53.5t-59.5 16.5h-69zM422 1159q76 73 162 160.5t134 138.5l48 51l27 -2l110 -143l-2 -29q-197 -123 -387 -264l-31 8z" />
<glyph unicode="&#xfb;" horiz-adv-x="1040" d="M76 807l20 121q68 0 165.5 4.5t161.5 9.5l64 4l25 -33q-176 -532 -176 -628q0 -60 47 -60t138 146.5t186 376.5l28 188l31 16l168 -12l27 -31q-97 -363 -146 -686l8 -8q11 0 28.5 13t106.5 89l35 -4l33 -71q-150 -156 -224 -211.5t-132 -55.5q-88 0 -88 78q0 43 73 359 l-18 2q-154 -324 -307 -437q-113 0 -177.5 52.5t-64.5 142.5q0 59 67.5 289.5t67.5 275.5q0 37 -18.5 53.5t-59.5 16.5h-69zM295 1180q37 30 122 109t151 143l67 63h41q198 -247 264 -315l-70 -84l-32 -9q-13 10 -62.5 51t-94 77t-54.5 42q-18 -9 -250 -170l-33 9z" />
<glyph unicode="&#xfc;" horiz-adv-x="1040" d="M76 807l20 121q68 0 165.5 4.5t161.5 9.5l64 4l25 -33q-176 -532 -176 -628q0 -60 47 -60t138 146.5t186 376.5l28 188l31 16l168 -12l27 -31q-97 -363 -146 -686l8 -8q11 0 28.5 13t106.5 89l35 -4l33 -71q-150 -156 -224 -211.5t-132 -55.5q-88 0 -88 78q0 43 73 359 l-18 2q-154 -324 -307 -437q-113 0 -177.5 52.5t-64.5 142.5q0 59 67.5 289.5t67.5 275.5q0 37 -18.5 53.5t-59.5 16.5h-69zM317 1260q0 66 44.5 110.5t111.5 44.5q51 0 78 -28.5t27 -77.5q0 -68 -43.5 -112t-110.5 -44q-51 0 -79 29t-28 78zM672 1260q0 66 44 110.5 t111 44.5q51 0 79 -29t28 -77q0 -68 -43.5 -112t-110.5 -44q-53 0 -80.5 29t-27.5 78z" />
<glyph unicode="&#xfd;" horiz-adv-x="946" d="M-262 -393q6 38 31 104t53 119l41 -2q12 -56 52.5 -90.5t92.5 -34.5q65 0 127 44.5t148 152.5q-45 488 -101 831q-8 40 -24 56t-49 16l-82 -6l8 118l362 41l23 -18q31 -308 31 -756h24q100 173 156.5 311.5t56.5 208.5q0 47 -27 87t-75 65l14 66l270 51 q31 -26 48.5 -73.5t17.5 -104.5q0 -213 -387 -770q-197 -279 -337 -400t-269 -121q-73 0 -133 31t-72 74zM371 1159q76 73 162 160.5t134 138.5l48 51l26 -2l111 -143l-2 -29q-197 -123 -387 -264l-31 8z" />
<glyph unicode="&#xfe;" d="M-115 -483l21 118q55 6 81 34t38 102q233 1468 233 1525q0 38 -18.5 56t-59.5 18h-69l16 121q69 0 168 4.5t163 8.5l64 5l25 -32q-115 -522 -187 -965l13 -2q92 182 163.5 284t149.5 164q123 0 194.5 -89t71.5 -240q0 -167 -71 -317.5t-189.5 -241t-249.5 -90.5 q-85 0 -170 18l-32 -242q-8 -59 10 -79.5t76 -20.5h88q0 -2 1 -6t1 -6l-21 -113q-110 0 -237.5 -3.5t-199.5 -7.5zM344 207q5 -2 33.5 -12.5t48 -17t47.5 -13t47 -6.5q71 0 125.5 114t54.5 265q0 79 -17.5 137.5t-43.5 58.5q-41 0 -125 -151t-170 -375z" />
<glyph unicode="&#xff;" horiz-adv-x="946" d="M-262 -393q6 38 31 104t53 119l41 -2q12 -56 52.5 -90.5t92.5 -34.5q65 0 127 44.5t148 152.5q-45 488 -101 831q-8 40 -24 56t-49 16l-82 -6l8 118l362 41l23 -18q31 -308 31 -756h24q100 173 156.5 311.5t56.5 208.5q0 47 -27 87t-75 65l14 66l270 51 q31 -26 48.5 -73.5t17.5 -104.5q0 -213 -387 -770q-197 -279 -337 -400t-269 -121q-73 0 -133 31t-72 74zM256 1260q0 66 44.5 110.5t111.5 44.5q51 0 77.5 -28.5t26.5 -77.5q0 -68 -43.5 -112t-110.5 -44q-51 0 -78.5 29t-27.5 78zM610 1260q0 66 44.5 110.5t111.5 44.5 q51 0 78.5 -28.5t27.5 -77.5q0 -68 -43 -112t-110 -44q-53 0 -81 29t-28 78z" />
<glyph unicode="&#x152;" horiz-adv-x="1853" d="M66 524q0 240 87 422.5t247.5 282.5t373.5 100q62 0 217 -13t246 -13q361 0 621 36l14 -22q-57 -183 -92 -373l-189 -12q17 72 17 115q0 60 -45 78t-189 18q-68 0 -85 -11t-23 -57l-54 -317l181 -2q30 0 88.5 4t101.5 8l43 4l14 -18l-51 -176q-158 6 -254 6l-153 -13 l-39 -286q-11 -82 7.5 -102.5t102.5 -20.5q76 0 121 5t81 17.5t57.5 40.5t37.5 66t33 104l174 15l12 -21q-57 -184 -100 -381l-22 -22q-371 18 -619 18q-94 0 -242 -13.5t-204 -13.5q-236 0 -376 147.5t-140 399.5zM385 528q0 -182 63 -280t181 -98q127 0 190 61.5t82 202.5 l66 516q14 122 -37.5 170.5t-196.5 48.5q-156 0 -252 -168t-96 -453z" />
<glyph unicode="&#x153;" horiz-adv-x="1398" d="M55 342q0 175 65.5 319t182 227t258.5 83q199 0 250 -201q69 93 161 146t191 53q103 0 161 -51t58 -142q0 -135 -113 -225t-384 -176q0 -93 34 -147t95 -54q57 0 110.5 42.5t96.5 119.5l36 -4l66 -82q-56 -119 -167.5 -197t-225.5 -78q-172 0 -234 185 q-135 -185 -346 -185q-137 0 -216 98t-79 269zM307 408q0 -126 33 -197.5t90 -71.5q80 0 126 106t46 294q0 249 -125 249q-75 0 -122.5 -106t-47.5 -274zM893 500q139 46 203.5 98.5t64.5 118.5q0 71 -67 71q-68 0 -124.5 -80.5t-76.5 -207.5z" />
<glyph unicode="&#x178;" horiz-adv-x="1191" d="M70 1190l32 129q176 -6 254 -6q45 0 125 4t137 8l58 4l8 -18l-27 -117q-72 -4 -97 -18.5t-25 -47.5q0 -57 114 -423h17l198 344q39 64 39 102q0 20 -21.5 30t-72.5 13l-4 10l31 117q21 0 117 -4t145 -4q40 0 91.5 2t82.5 4l31 2l6 -14l-31 -123q-82 -26 -136 -81 t-134 -181l-234 -367q-23 -36 -36 -79.5t-18 -74.5t-18 -133q-11 -76 5 -105.5t71 -29.5l99 6l6 -10l-35 -137q-228 8 -326 8q-51 0 -130 -6t-132 -12l-53 -5l31 138q81 12 120.5 31.5t57 55t24.5 107.5l9 64q7 51 0.5 98.5t-31.5 112.5l-146 389q-36 103 -74 146t-122 61z M467 1552q0 68 43.5 112t110.5 44q51 0 78.5 -28.5t27.5 -77.5q0 -67 -43.5 -111.5t-110.5 -44.5q-52 0 -79 28.5t-27 77.5zM821 1552q0 67 44 111.5t110 44.5q51 0 78.5 -28.5t27.5 -77.5q0 -67 -43 -111.5t-110 -44.5q-51 0 -79 29t-28 77z" />
<glyph unicode="&#x2c6;" horiz-adv-x="786" d="M158 1180q37 30 122 109t152 143l66 63h41q198 -247 264 -315l-70 -84l-33 -9q-13 10 -62.5 51t-94 77t-54.5 42q-14 -7 -249 -170l-33 9z" />
<glyph unicode="&#x2dc;" horiz-adv-x="786" d="M123 1178l2 22l180 207l33 8q35 0 149.5 -33.5t141.5 -33.5q20 0 55.5 28.5t60.5 57.5l25 28h23l73 -76l-4 -20l-180 -209l-33 -8q-35 0 -148.5 35t-140.5 35q-22 0 -57.5 -28.5t-60.5 -57.5l-25 -29h-22z" />
<glyph unicode="&#x2000;" horiz-adv-x="897" />
<glyph unicode="&#x2001;" horiz-adv-x="1794" />
<glyph unicode="&#x2002;" horiz-adv-x="897" />
<glyph unicode="&#x2003;" horiz-adv-x="1794" />
<glyph unicode="&#x2004;" horiz-adv-x="598" />
<glyph unicode="&#x2005;" horiz-adv-x="448" />
<glyph unicode="&#x2006;" horiz-adv-x="299" />
<glyph unicode="&#x2007;" horiz-adv-x="299" />
<glyph unicode="&#x2008;" horiz-adv-x="224" />
<glyph unicode="&#x2009;" horiz-adv-x="358" />
<glyph unicode="&#x200a;" horiz-adv-x="99" />
<glyph unicode="&#x2010;" horiz-adv-x="638" d="M63 422l35 160l326 39l149 20l17 -27l-37 -163l-473 -54z" />
<glyph unicode="&#x2011;" horiz-adv-x="638" d="M63 422l35 160l326 39l149 20l17 -27l-37 -163l-473 -54z" />
<glyph unicode="&#x2012;" horiz-adv-x="638" d="M63 422l35 160l326 39l149 20l17 -27l-37 -163l-473 -54z" />
<glyph unicode="&#x2013;" horiz-adv-x="894" d="M-18 461l41 155h475q297 0 420 9l10 -31l-39 -158q-167 0 -490.5 -1t-404.5 -1z" />
<glyph unicode="&#x2014;" horiz-adv-x="1724" d="M-18 461l41 155h862q223 0 525 3t335 6l12 -31l-41 -158q-323 0 -945.5 -1t-776.5 -1z" />
<glyph unicode="&#x2018;" horiz-adv-x="438" d="M125 967q0 102 85 200t216 172l76 -61v-35q-62 -42 -101 -100t-39 -111q0 -81 72 -139l-6 -29q-89 -71 -162 -71q-62 0 -101.5 47.5t-39.5 126.5z" />
<glyph unicode="&#x2019;" horiz-adv-x="438" d="M84 854v35q62 40 100.5 97.5t38.5 111.5q0 41 -19 78.5t-52 62.5l6 29q90 71 161 71q63 0 102.5 -48t39.5 -128q0 -103 -85.5 -200.5t-215.5 -169.5z" />
<glyph unicode="&#x201a;" horiz-adv-x="468" d="M-51 -190q66 44 106.5 108t40.5 125q0 40 -17 80.5t-44 69.5l4 28q93 70 162 70q61 0 100 -49t39 -133q0 -106 -90 -213t-223 -183l-78 62v35z" />
<glyph unicode="&#x201c;" horiz-adv-x="806" d="M248 967q0 102 85 200t216 172l76 -61v-35q-62 -42 -101 -100t-39 -111q0 -81 72 -139l-6 -29q-89 -71 -162 -71q-62 0 -101.5 47.5t-39.5 126.5zM614 967q0 102 85 200t216 172l76 -61v-35q-62 -42 -100.5 -99.5t-38.5 -111.5q0 -81 72 -139l-6 -29q-89 -71 -162 -71 q-62 0 -102 47.5t-40 126.5z" />
<glyph unicode="&#x201d;" horiz-adv-x="806" d="M215 854v35q62 40 100.5 97.5t38.5 111.5q0 41 -19 78.5t-52 62.5l6 29q90 71 162 71q62 0 101.5 -47.5t39.5 -128.5q0 -103 -85.5 -200.5t-215.5 -169.5zM582 854v35q62 40 100.5 97.5t38.5 111.5q0 41 -19.5 78.5t-52.5 62.5l6 29q90 71 162 71q62 0 101.5 -47.5 t39.5 -128.5q0 -103 -85.5 -200.5t-215.5 -169.5z" />
<glyph unicode="&#x201e;" horiz-adv-x="835" d="M-39 -160q62 42 100.5 99.5t38.5 111.5q0 40 -19.5 78t-49.5 64l4 28q93 70 162 70q62 0 101.5 -47.5t39.5 -126.5q0 -102 -85 -201t-216 -172l-76 61v35zM332 -160q62 42 100.5 99.5t38.5 111.5q0 40 -19.5 78t-50.5 64l5 28q93 70 161 70q62 0 102 -47.5t40 -126.5 q0 -102 -85 -201t-216 -172l-76 61v35z" />
<glyph unicode="&#x2022;" horiz-adv-x="671" d="M96 438q0 125 78.5 207t200.5 82q96 0 150.5 -57.5t54.5 -151.5q0 -124 -78.5 -205.5t-200.5 -81.5q-98 0 -151.5 56.5t-53.5 150.5z" />
<glyph unicode="&#x2026;" horiz-adv-x="1341" d="M39 111q0 84 51.5 137t134.5 53q63 0 98 -36t35 -97q0 -83 -52 -137t-134 -54q-65 0 -99 36.5t-34 97.5zM473 111q0 84 51.5 137t134.5 53q64 0 99 -36t35 -97q0 -83 -52 -137t-135 -54q-65 0 -99 36.5t-34 97.5zM911 111q0 84 52 137t135 53q63 0 98 -36t35 -97 q0 -83 -52 -137t-135 -54q-65 0 -99 36.5t-34 97.5z" />
<glyph unicode="&#x202f;" horiz-adv-x="358" />
<glyph unicode="&#x2039;" horiz-adv-x="524" d="M27 440l4 43q292 277 366 359l80 -51l4 -33q-13 -19 -106 -146t-103 -143q6 -17 68 -147t70 -148l-13 -33l-90 -51q-24 36 -94 123.5t-128 156.5z" />
<glyph unicode="&#x203a;" horiz-adv-x="524" d="M45 174q10 15 60.5 84t94 130t50.5 75q-4 13 -32.5 75t-62 132.5t-40.5 85.5l12 32l90 54q25 -37 96 -125.5t129 -158.5l58 -69l-6 -40q-291 -277 -367 -359l-80 51z" />
<glyph unicode="&#x205f;" horiz-adv-x="448" />
<glyph unicode="&#x20ac;" horiz-adv-x="1130" d="M-6 352l24 97h138q3 70 14 122h-137l-10 15l24 96h154q67 172 215 267t358 95q61 0 144.5 -10t136.5 -20l53 -10l8 -23q-49 -133 -82 -303l-168 -12q15 77 15 108q0 111 -164 111q-94 0 -161 -52t-101 -151h6l297 8l12 -18l-22 -99l-316 -2q-8 -49 -8 -122h8l297 8 l12 -19l-22 -98l-287 -2q38 -201 211 -201q86 0 138 49.5t87 167.5l168 13q-44 -169 -67 -304l-19 -18q-17 -7 -47 -17.5t-121.5 -28t-181.5 -17.5q-186 0 -301.5 93.5t-138.5 262.5h-156z" />
<glyph unicode="&#x2122;" horiz-adv-x="1126" d="M16 1128q17 105 29 187l10 6l86 -8h250l92 8l9 -6l-15 -180l-88 -7q2 72 -7 90t-50 19q-43 -265 -43 -311q0 -20 8 -28.5t27 -8.5l43 2l2 -6l-15 -64q-106 4 -151 4l-152 -6l15 62q51 6 66.5 18.5t21.5 52.5l34 285q-42 -1 -56.5 -18.5t-29.5 -83.5zM449 819l14 62 q23 3 35 15t18 38q1 7 18 81.5t31.5 140.5t14.5 75q0 11 -11 16t-41 8l-4 7l15 55q79 -4 110 -4l109 4q6 -59 16.5 -126t17.5 -105l7 -37h10q60 135 113 266q13 0 38.5 -0.5t47.5 -0.5t41 1l75 2q1 0 3 -1t3 -1l-12 -58q-35 -1 -45.5 -8.5t-13.5 -29.5q-6 -44 -12 -267 q-2 -39 3.5 -52t24.5 -13l23 2l6 -6l-17 -60q-48 2 -81 2q-131 0 -140 -6l13 64q25 2 36.5 10t12.5 27l16 204h-8q-78 -161 -137 -303l-84 -6q-41 220 -62 309h-8q-37 -207 -37 -217q0 -22 23 -22l24 2q4 -4 7 -4l-19 -60q-77 2 -104 2z" />
<glyph unicode="&#x25fc;" horiz-adv-x="972" d="M0 0v973h973v-973h-973z" />
<glyph unicode="&#xfb01;" horiz-adv-x="1173" d="M-281 -385q13 45 46.5 113.5t60.5 105.5h33q6 -166 145 -166q58 0 97.5 44.5t43.5 119.5q7 83 11 203l57 751l-18 15l-146 4l-6 10l10 94l172 27l11 102q12 108 65 201t129 153t165.5 94t176.5 34q71 0 150 -14.5t129 -37.5l8 -22l-92 -197l-39 -6q-144 98 -246 98 q-96 0 -141.5 -56t-59.5 -179l-20 -174h215q88 0 230 5t155 9l24 -33q-96 -345 -145 -690l8 -8q12 0 36 18t99 84l35 -4l35 -71q-123 -134 -200 -193.5t-138 -68.5q-35 -3 -55 2q-60 14 -60 96q99 585 99 651q0 42 -18.5 61t-59.5 19h-256l-19 -12l-88 -805 q-22 -209 -134.5 -348.5t-276.5 -139.5q-80 0 -145.5 32t-82.5 79z" />
<glyph unicode="&#xfb02;" horiz-adv-x="1146" d="M-281 -385q13 45 46.5 113.5t60.5 105.5h33q6 -166 145 -166q58 0 97.5 44.5t43.5 119.5q5 52 9 140.5t4 95.5l55 718l-18 15l-146 4l-6 10l10 94l172 27l15 131q13 119 89.5 224.5t190 167t232.5 61.5q97 0 194 -23l178 12l25 -32q-177 -833 -234 -1254l7 -8 q13 0 35 16.5t102 85.5l35 -4l32 -71q-134 -145 -215 -206t-139 -61q-98 0 -98 97q172 1063 184 1210q-118 59 -205 59q-74 0 -114.5 -48.5t-53.5 -153.5l-24 -207h254l10 -10l-20 -115l-240 2l-19 -12l-96 -883q-19 -167 -138.5 -288.5t-264.5 -121.5q-80 0 -145.5 32 t-82.5 79z" />
</font>
</defs>
</svg>
