<?xml version="1.0" encoding="UTF-8" standalone="no"?>
<svg width="800px" height="275px" viewBox="0 0 800 275" version="1.1" xmlns="http://www.w3.org/2000/svg" xmlns:xlink="http://www.w3.org/1999/xlink">
    <!-- Generator: Sketch 41 (35326) - http://www.bohemiancoding.com/sketch -->
    <title>vector_h-dark</title>
    <desc>Created with Sketch.</desc>
    <defs></defs>
    <g id="Page-1" stroke="none" stroke-width="1" fill="none" fill-rule="evenodd">
        <g id="vector_h-dark">
            <polygon id="Fill-1" fill="#232C2D" points="0.06 274.94 800 274.94 800 0 0.06 0"></polygon>
            <path d="M217.488,107.962 L242.967,107.962 L242.967,134.012 L255.855,134.012 C261.805,134.012 267.922,132.951 273.559,131.041 C276.328,130.104 279.432,128.798 282.166,127.156 C278.568,122.458 276.732,116.527 276.191,110.684 C275.459,102.733 277.059,92.383 282.441,86.161 L285.119,83.063 L288.311,85.629 C296.35,92.088 303.105,101.106 304.297,111.391 C313.975,108.546 325.332,109.219 333.865,114.141 L337.361,116.158 L335.52,119.754 C328.307,133.83 313.229,138.194 298.484,137.42 C276.422,192.369 228.393,218.384 170.156,218.384 C140.067,218.384 112.464,207.136 96.747,180.447 L96.487,180.007 L94.2,175.35 C88.888,163.598 87.12,150.724 88.319,137.863 L88.677,134.012 L110.468,134.012 L110.468,107.962 L135.948,107.962 L135.948,82.484 L186.908,82.484 L186.908,57 L217.488,57 L217.488,107.962" id="Fill-3" fill="#364548"></path>
            <path d="M300.045,117.602 C301.754,104.32 291.816,93.891 285.652,88.94 C278.549,97.149 277.445,118.667 288.586,127.728 C282.369,133.25 269.27,138.258 255.855,138.258 L92.546,138.258 C91.243,152.26 93.702,165.155 99.317,176.197 L101.175,179.594 C102.351,181.593 103.636,183.52 105.026,185.371 C111.739,185.803 117.929,185.95 123.591,185.829 L123.593,185.829 C134.722,185.58 143.804,184.269 150.688,181.88 C151.713,181.524 152.826,182.071 153.182,183.094 C153.537,184.115 152.994,185.235 151.973,185.588 C151.059,185.906 150.102,186.199 149.117,186.486 L149.111,186.486 C143.694,188.033 137.882,189.075 130.386,189.534 C130.827,189.543 129.925,189.604 129.919,189.604 C129.665,189.62 129.345,189.654 129.087,189.668 C126.136,189.837 122.952,189.872 119.696,189.872 C116.134,189.872 112.626,189.803 108.706,189.604 L108.604,189.668 C122.214,204.964 143.487,214.134 170.156,214.134 C226.596,214.134 274.471,189.117 295.668,132.943 C310.709,134.487 325.166,130.654 331.742,117.817 C321.268,111.775 307.799,113.702 300.045,117.602" id="Fill-4" fill="#22A0C8"></path>
            <path d="M300.045,117.602 C301.754,104.32 291.816,93.891 285.652,88.94 C278.549,97.149 277.445,118.667 288.586,127.728 C282.369,133.25 269.27,138.258 255.855,138.258 L102.218,138.258 C101.55,159.701 109.509,175.982 123.591,185.829 L123.593,185.829 C134.722,185.58 143.804,184.269 150.688,181.88 C151.713,181.524 152.826,182.071 153.182,183.094 C153.537,184.115 152.994,185.235 151.973,185.588 C151.059,185.906 150.102,186.199 149.117,186.486 L149.111,186.486 C143.694,188.033 137.384,189.206 129.888,189.668 C129.882,189.668 129.704,189.495 129.704,189.495 C148.91,199.347 176.762,199.313 208.697,187.049 C244.502,173.294 277.818,147.086 301.064,117.112 C300.717,117.274 300.373,117.433 300.045,117.602" id="Fill-5" fill="#37B0D9"></path>
            <path d="M92.855,155.271 C93.866,162.775 96.061,169.799 99.317,176.197 L101.175,179.594 C102.351,181.593 103.636,183.52 105.026,185.371 C111.739,185.803 117.929,185.95 123.593,185.829 C134.722,185.58 143.804,184.269 150.688,181.88 C151.713,181.524 152.826,182.071 153.182,183.094 C153.537,184.115 152.994,185.235 151.973,185.588 C151.059,185.906 150.102,186.199 149.117,186.486 L149.111,186.486 C143.694,188.033 137.415,189.141 129.919,189.604 C129.665,189.62 129.216,189.623 128.954,189.636 C126.007,189.803 122.853,189.904 119.599,189.904 C116.036,189.904 112.394,189.837 108.472,189.636 C122.081,204.932 143.487,214.134 170.156,214.134 C218.477,214.134 260.512,195.795 284.912,155.271 L92.855,155.271" id="Fill-6" fill="#1B81A5"></path>
            <path d="M103.688,155.271 C106.575,168.445 113.519,178.782 123.593,185.829 C134.722,185.58 143.804,184.269 150.688,181.88 C151.713,181.524 152.826,182.071 153.182,183.094 C153.537,184.115 152.994,185.235 151.973,185.588 C151.059,185.906 150.102,186.199 149.117,186.486 L149.111,186.486 C143.694,188.033 137.284,189.141 129.786,189.604 C148.992,199.456 176.766,199.313 208.697,187.049 C228.012,179.624 246.602,168.579 263.283,155.271 L103.688,155.271" id="Fill-7" fill="#1E91B4"></path>
            <path d="M114.714,134.294 L136.796,134.294 L136.796,112.209 L114.714,112.209 L114.714,134.294 Z M116.552,132.456 L118.296,132.456 L118.296,114.051 L116.552,114.051 L116.552,132.456 Z M119.827,132.456 L121.642,132.456 L121.642,114.051 L119.827,114.051 L119.827,132.456 Z M123.175,132.456 L124.987,132.456 L124.987,114.051 L123.175,114.051 L123.175,132.456 Z M126.521,132.456 L128.335,132.456 L128.335,114.051 L126.521,114.051 L126.521,132.456 Z M129.866,132.456 L131.679,132.456 L131.679,114.051 L129.866,114.051 L129.866,132.456 Z M133.212,132.456 L134.958,132.456 L134.958,114.051 L133.212,114.051 L133.212,132.456 Z" id="Fill-8" fill="#23A3C1"></path>
            <path d="M140.192,108.814 L162.277,108.814 L162.277,86.729 L140.192,86.729 L140.192,108.814 Z M142.034,106.972 L143.776,106.972 L143.776,88.568 L142.034,88.568 L142.034,106.972 Z M145.313,106.972 L147.124,106.972 L147.124,88.568 L145.313,88.568 L145.313,106.972 Z M148.652,106.972 L150.467,106.972 L150.467,88.568 L148.652,88.568 L148.652,106.972 Z M152.002,106.972 L153.813,106.972 L153.813,88.568 L152.002,88.568 L152.002,106.972 Z M155.35,106.972 L157.162,106.972 L157.162,88.568 L155.35,88.568 L155.35,106.972 Z M158.693,106.972 L160.439,106.972 L160.439,88.568 L158.693,88.568 L158.693,106.972 Z" id="Fill-9" fill="#23A3C1"></path>
            <path d="M140.192,134.294 L162.277,134.294 L162.277,112.209 L140.192,112.209 L140.192,134.294 Z M142.034,132.456 L143.776,132.456 L143.776,114.051 L142.034,114.051 L142.034,132.456 Z M145.313,132.456 L147.124,132.456 L147.124,114.051 L145.313,114.051 L145.313,132.456 Z M148.652,132.456 L150.467,132.456 L150.467,114.051 L148.652,114.051 L148.652,132.456 Z M152.002,132.456 L153.813,132.456 L153.813,114.051 L152.002,114.051 L152.002,132.456 Z M155.35,132.456 L157.162,132.456 L157.162,114.051 L155.35,114.051 L155.35,132.456 Z M158.693,132.456 L160.439,132.456 L160.439,114.051 L158.693,114.051 L158.693,132.456 Z" id="Fill-10" fill="#34BBDE"></path>
            <path d="M165.676,134.294 L187.762,134.294 L187.762,112.209 L165.676,112.209 L165.676,134.294 Z M167.514,132.456 L169.258,132.456 L169.258,114.051 L167.514,114.051 L167.514,132.456 Z M170.791,132.456 L172.604,132.456 L172.604,114.051 L170.791,114.051 L170.791,132.456 Z M174.141,132.456 L175.951,132.456 L175.951,114.051 L174.141,114.051 L174.141,132.456 Z M177.486,132.456 L179.297,132.456 L179.297,114.051 L177.486,114.051 L177.486,132.456 Z M180.828,132.456 L182.643,132.456 L182.643,114.051 L180.828,114.051 L180.828,132.456 Z M184.178,132.456 L185.92,132.456 L185.92,114.051 L184.178,114.051 L184.178,132.456 Z" id="Fill-11" fill="#23A3C1"></path>
            <path d="M165.676,108.814 L187.762,108.814 L187.762,86.729 L165.676,86.729 L165.676,108.814 Z M167.514,106.972 L169.258,106.972 L169.258,88.568 L167.514,88.568 L167.514,106.972 Z M170.791,106.972 L172.604,106.972 L172.604,88.568 L170.791,88.568 L170.791,106.972 Z M174.141,106.972 L175.951,106.972 L175.951,88.568 L174.141,88.568 L174.141,106.972 Z M177.486,106.972 L179.297,106.972 L179.297,88.568 L177.486,88.568 L177.486,106.972 Z M180.828,106.972 L182.643,106.972 L182.643,88.568 L180.828,88.568 L180.828,106.972 Z M184.178,106.972 L185.92,106.972 L185.92,88.568 L184.178,88.568 L184.178,106.972 Z" id="Fill-12" fill="#34BBDE"></path>
            <path d="M191.158,134.294 L213.242,134.294 L213.242,112.209 L191.158,112.209 L191.158,134.294 Z M192.996,132.456 L194.742,132.456 L194.742,114.051 L192.996,114.051 L192.996,132.456 Z M196.275,132.456 L198.088,132.456 L198.088,114.051 L196.275,114.051 L196.275,132.456 Z M199.621,132.456 L201.434,132.456 L201.434,114.051 L199.621,114.051 L199.621,132.456 Z M202.967,132.456 L204.779,132.456 L204.779,114.051 L202.967,114.051 L202.967,132.456 Z M206.313,132.456 L208.127,132.456 L208.127,114.051 L206.313,114.051 L206.313,132.456 Z M209.658,132.456 L211.404,132.456 L211.404,114.051 L209.658,114.051 L209.658,132.456 Z" id="Fill-13" fill="#34BBDE"></path>
            <path d="M191.158,108.814 L213.242,108.814 L213.242,86.729 L191.158,86.729 L191.158,108.814 Z M192.996,106.972 L194.742,106.972 L194.742,88.568 L192.996,88.568 L192.996,106.972 Z M196.275,106.972 L198.088,106.972 L198.088,88.568 L196.275,88.568 L196.275,106.972 Z M199.621,106.972 L201.434,106.972 L201.434,88.568 L199.621,88.568 L199.621,106.972 Z M202.967,106.972 L204.779,106.972 L204.779,88.568 L202.967,88.568 L202.967,106.972 Z M206.313,106.972 L208.127,106.972 L208.127,88.568 L206.313,88.568 L206.313,106.972 Z M209.658,106.972 L211.404,106.972 L211.404,88.568 L209.658,88.568 L209.658,106.972 Z" id="Fill-14" fill="#23A3C1"></path>
            <path d="M191.158,83.331 L213.242,83.331 L213.242,61.246 L191.158,61.246 L191.158,83.331 Z M192.996,81.49 L194.742,81.49 L194.742,63.084 L192.996,63.084 L192.996,81.49 Z M196.275,81.49 L198.088,81.49 L198.088,63.084 L196.275,63.084 L196.275,81.49 Z M199.621,81.49 L201.434,81.49 L201.434,63.084 L199.621,63.084 L199.621,81.49 Z M202.967,81.49 L204.779,81.49 L204.779,63.084 L202.967,63.084 L202.967,81.49 Z M206.313,81.49 L208.127,81.49 L208.127,63.084 L206.313,63.084 L206.313,81.49 Z M209.658,81.49 L211.404,81.49 L211.404,63.084 L209.658,63.084 L209.658,81.49 Z" id="Fill-15" fill="#34BBDE"></path>
            <path d="M216.639,134.294 L238.721,134.294 L238.721,112.209 L216.639,112.209 L216.639,134.294 Z M218.479,132.456 L220.221,132.456 L220.221,114.051 L218.479,114.051 L218.479,132.456 Z M221.756,132.456 L223.566,132.456 L223.566,114.051 L221.756,114.051 L221.756,132.456 Z M225.102,132.456 L226.914,132.456 L226.914,114.051 L225.102,114.051 L225.102,132.456 Z M228.445,132.456 L230.258,132.456 L230.258,114.051 L228.445,114.051 L228.445,132.456 Z M231.795,132.456 L233.605,132.456 L233.605,114.051 L231.795,114.051 L231.795,132.456 Z M235.141,132.456 L236.883,132.456 L236.883,114.051 L235.141,114.051 L235.141,132.456 Z" id="Fill-16" fill="#23A3C1"></path>
            <path d="M160.896,170.102 C164.262,170.102 166.99,172.829 166.99,176.191 C166.99,179.56 164.262,182.284 160.896,182.284 C157.529,182.284 154.805,179.56 154.805,176.191 C154.805,172.829 157.529,170.102 160.896,170.102" id="Fill-17" fill="#D3ECEC"></path>
            <path d="M160.896,171.825 C161.453,171.825 161.984,171.935 162.473,172.123 C161.943,172.43 161.586,173.008 161.586,173.665 C161.586,174.649 162.381,175.445 163.365,175.445 C164.039,175.445 164.625,175.074 164.926,174.518 C165.141,175.034 165.258,175.598 165.258,176.191 C165.258,178.602 163.305,180.558 160.896,180.558 C158.486,180.558 156.531,178.602 156.531,176.191 C156.531,173.784 158.486,171.825 160.896,171.825" id="Fill-18" fill="#364548"></path>
            <path d="M53.132,157.474 L336.549,157.474 C330.375,155.907 317.021,153.795 319.227,145.707 C308.004,158.692 280.941,154.816 274.113,148.414 C266.51,159.445 222.234,155.252 219.146,146.657 C209.613,157.848 180.068,157.848 170.531,146.657 C167.443,155.252 123.173,159.445 115.567,148.414 C108.735,154.816 81.677,158.692 70.456,145.707 C72.657,153.795 59.304,155.907 53.132,157.474" id="Fill-19" fill="#364548"></path>
            <path d="M177.094,214.005 C162.004,206.844 153.721,197.114 149.111,186.486 C143.509,188.086 136.772,189.107 128.944,189.548 C125.993,189.715 122.894,189.796 119.638,189.796 C115.884,189.796 111.931,189.684 107.782,189.465 C121.618,203.295 138.638,213.94 170.156,214.134 C172.48,214.134 174.795,214.092 177.094,214.005" id="Fill-20" fill="#BDD9D7"></path>
            <path d="M154.717,196.29 C152.629,193.457 150.605,189.896 149.117,186.486 C143.509,188.086 136.772,189.107 128.944,189.548 C134.319,192.467 142.013,195.169 154.717,196.29" id="Fill-21" fill="#D3ECEC"></path>
            <path d="M405.893,128.238 L405.893,103.434 C405.893,100.174 407.928,97.552 411.303,97.552 L412.236,97.552 C415.611,97.552 417.639,100.174 417.639,103.434 L417.639,155.656 C417.639,168.39 411.346,178.522 400.385,184.98 C395.299,187.967 389.68,189.504 383.787,189.504 L381.457,189.504 C368.723,189.504 358.602,183.207 352.139,172.25 C349.137,167.164 347.611,161.554 347.611,155.656 L347.611,153.325 C347.611,140.59 353.904,130.463 364.861,123.995 C369.949,120.992 375.559,119.467 381.457,119.467 L383.787,119.467 C392.406,119.467 399.725,122.808 405.893,128.238 Z M359.357,154.49 C359.357,163.691 363.816,170.602 371.879,175.017 C375.137,176.797 378.676,177.755 382.396,177.755 C391.424,177.755 398.123,173.497 402.742,165.844 C404.889,162.285 405.893,158.391 405.893,154.25 C405.893,146.276 402.115,140.054 395.688,135.435 C391.793,132.628 387.408,131.224 382.623,131.224 C372.781,131.224 365.699,136.194 361.447,145.029 C360.012,148.014 359.357,151.184 359.357,154.49 Z M458.393,119.467 L460.021,119.467 C473.633,119.467 483.982,126.07 490.543,137.953 C493.166,142.705 494.568,147.893 494.568,153.325 L494.568,155.656 C494.568,168.39 488.289,178.539 477.313,184.98 C472.227,187.961 466.609,189.504 460.719,189.504 L458.393,189.504 C445.656,189.504 435.535,183.207 429.07,172.25 C426.07,167.164 424.543,161.554 424.543,155.656 L424.543,153.325 C424.543,140.59 430.863,130.493 441.785,123.997 C446.869,120.979 452.488,119.467 458.393,119.467 Z M436.287,154.49 C436.287,163.418 440.672,169.986 448.217,174.604 C451.754,176.774 455.654,177.755 459.795,177.755 C468.615,177.755 475.135,173.283 479.678,165.834 C481.842,162.285 482.82,158.385 482.82,154.25 C482.82,145.943 478.822,139.606 471.984,135.008 C468.238,132.486 464.068,131.224 459.557,131.224 C449.713,131.224 442.631,136.194 438.383,145.029 C436.943,148.014 436.287,151.184 436.287,154.49 Z M543.4,132.161 C541.633,131.332 538.311,131.057 536.395,130.983 C526.58,130.613 519.479,136.141 515.311,144.798 C513.873,147.783 513.221,150.946 513.221,154.25 C513.221,164.313 518.5,171.357 527.484,175.652 C530.764,177.217 534.998,177.516 538.584,177.516 C541.738,177.516 546.195,175.585 548.994,174.255 L549.479,174.027 L551.648,174.027 L551.889,174.074 C554.564,174.632 556.578,176.324 556.578,179.197 L556.578,180.362 C556.578,187.512 543.506,189.153 538.518,189.497 C520.918,190.717 507.756,181.051 502.734,164.264 C501.861,161.346 501.471,158.451 501.471,155.415 L501.471,153.087 C501.471,140.351 507.789,130.259 518.717,123.77 C523.803,120.752 529.418,119.237 535.32,119.237 L537.648,119.237 C543.908,119.237 549.678,121.015 554.846,124.547 L555.273,124.84 L555.537,125.279 C556.096,126.206 556.578,127.277 556.578,128.379 L556.578,129.542 C556.578,132.541 554.334,134.151 551.625,134.674 L551.402,134.711 L550.709,134.711 C548.955,134.711 544.971,132.899 543.4,132.161 Z M581.51,140.117 C586.07,135.547 590.652,130.988 595.283,126.493 C596.572,125.24 601.459,119.934 603.381,119.934 L605.488,119.934 L605.725,119.984 C608.406,120.54 610.416,122.236 610.416,125.115 L610.416,126.281 C610.416,128.244 608.113,130.528 606.846,131.872 C604.145,134.732 601.305,137.499 598.541,140.303 L584.352,154.707 C590.459,160.833 596.564,166.963 602.627,173.135 C604.303,174.841 605.98,176.552 607.633,178.283 C608.213,178.894 609.078,179.66 609.566,180.51 C610.092,181.31 610.416,182.209 610.416,183.17 L610.416,184.379 L610.346,184.66 C609.686,187.34 607.984,189.504 605.014,189.504 L604.08,189.504 C602.137,189.504 599.941,187.302 598.611,186.048 C595.869,183.461 593.217,180.74 590.525,178.1 L581.51,169.246 L581.51,183.398 C581.51,186.652 579.469,189.272 576.098,189.272 L575.17,189.272 C571.799,189.272 569.764,186.652 569.764,183.398 L569.764,103.66 C569.764,100.399 571.799,97.79 575.17,97.79 L576.098,97.79 C579.469,97.79 581.51,100.399 581.51,103.66 L581.51,140.117 Z M727.922,119.934 L729.086,119.934 C732.609,119.934 734.963,122.31 734.963,125.813 C734.963,130.677 730.314,131.922 726.293,131.922 C721.014,131.922 715.98,135.113 712.34,138.693 C707.805,143.169 705.82,148.891 705.82,155.188 L705.82,183.625 C705.82,186.888 703.783,189.504 700.412,189.504 L699.486,189.504 C696.107,189.504 694.072,186.888 694.072,183.625 L694.072,153.555 C694.072,142.006 699.693,132.584 709.064,125.968 C714.664,122.018 721.068,119.934 727.922,119.934 Z M644.428,176.293 C648.701,177.787 653.576,177.574 657.963,176.81 C660.203,175.856 665.943,173.354 668.053,173.718 L668.385,173.775 L668.686,173.924 C669.973,174.55 671.203,175.434 671.861,176.743 C673.402,179.817 672.66,182.906 669.643,184.648 L668.637,185.233 C657.494,191.665 645.643,190.772 634.533,184.766 C629.223,181.896 625.162,177.631 622.164,172.435 L621.463,171.223 C614.309,158.836 615.275,145.803 623.344,134.021 C626.127,129.95 629.766,126.803 634.021,124.344 L635.633,123.414 C646.129,117.356 657.375,117.77 668.154,123.087 C673.947,125.946 678.641,130.209 681.875,135.812 L682.459,136.818 C684.809,140.896 681.764,144.443 678.621,146.87 C674.973,149.681 671.291,153.068 667.795,156.085 C660,162.814 652.221,169.56 644.428,176.293 Z M634.338,169.209 C643.061,161.732 651.777,154.252 660.471,146.744 C663.441,144.184 666.699,141.527 669.65,138.829 C667.283,135.853 663.332,133.701 659.975,132.421 C653.199,129.84 646.52,130.709 640.305,134.294 C632.172,138.988 628.703,146.47 629.008,155.776 C629.131,159.439 630.115,162.971 632.063,166.091 C632.746,167.19 633.514,168.224 634.338,169.209 L634.338,169.209 Z" id="Fill-22" fill="#E6E6E5"></path>
        </g>
    </g>
</svg>