<?xml version="1.0" encoding="utf-8"?>
<!-- Generator: Adobe Illustrator 15.1.0, SVG Export Plug-In . SVG Version: 6.00 Build 0)  -->
<!DOCTYPE svg PUBLIC "-//W3C//DTD SVG 1.1//EN" "http://www.w3.org/Graphics/SVG/1.1/DTD/svg11.dtd">
<svg version="1.1" id="Ebene_1" xmlns="http://www.w3.org/2000/svg" xmlns:xlink="http://www.w3.org/1999/xlink" x="0px" y="0px"
	 width="112.554px" height="54.376px" viewBox="0 0 112.554 54.376" enable-background="new 0 0 112.554 54.376"
	 xml:space="preserve">
<g>
	<path fill="#B31A30" d="M17.082,1.608c0.133-0.331,0.331-0.53,0.662-0.53c1.258,0,3.509,3.178,3.509,5.429
		c0,1.059-3.045,9.666-4.966,14.565C7.084,44.445,7.945,42.459,4.105,54.178c-0.066,0.132-0.199,0.198-0.397,0.198
		C1.788,54.376,0,51.198,0,49.477c0-0.396,0.066-0.729,0.199-1.125L17.082,1.608z"/>
	<path fill="#B31A30" d="M52.834,46.828c0,1.655-1.191,2.979-5.628,4.701c-0.53,0.198-1.06,0.331-1.523,0.331
		c-2.185,0-2.913-2.45-2.913-6.489c0-7.613,0.993-14.168,0.993-16.949c0-1.457-0.53-2.251-2.052-2.251
		c-2.781,0-7.481,8.673-7.481,12.977c0,3.575,1.39,5.826,1.39,7.68c0,1.655-1.192,2.979-5.627,4.701
		c-0.53,0.198-1.06,0.331-1.523,0.331c-2.185,0-2.913-2.45-2.913-6.489c0-11.188,0.066-17.875,5.23-25.754
		c0.86-1.324,1.721-1.854,2.582-1.854c2.119,0,4.105,3.244,4.833,5.296c1.854-2.251,4.37-3.972,7.481-3.972
		c3.708,0,7.349,2.714,7.349,6.621v0.729c2.185-2.715,5.429-5.032,9.865-5.032c4.767,0,7.282,2.648,7.282,6.886
		c0,5.959-2.582,12.05-2.582,14.235c0,0.529,0.133,0.86,0.53,0.86c2.582,0,8.475-8.011,9.732-8.011c0.662,0,0.927,0.794,0.927,2.316
		c0,5.76-7.415,13.309-14.632,13.309c-3.774,0-4.767-4.305-4.767-8.674c0-4.502,1.456-7.746,1.456-11.652
		c0-1.258-0.53-2.185-2.516-2.185c-2.648,0-5.761,6.025-6.886,10.527v0.133C51.444,42.724,52.834,44.975,52.834,46.828z"/>
	<path fill="#B31A30" d="M86.071,45.239c0,1.655,0,3.509-0.992,4.304c-1.656,1.324-3.311,2.251-5.496,2.251
		c-2.185,0-3.111-2.384-3.111-6.423c0-10.99,3.707-32.375,10.195-42.24c0.861-1.324,1.788-1.788,2.648-1.788
		c2.715,0,5.032,4.966,5.032,6.489c0,4.767-3.376,7.945-6.356,12.778l-0.662,5.562c1.788-3.642,4.967-7.084,10.527-7.084
		c5.628,0,8.74,2.913,8.74,7.614c0,6.157-7.15,9.6-11.785,9.6c0.729,2.781,2.118,7.085,6.024,7.085
		c5.562,0,8.673-8.011,10.792-8.011c0.662,0,0.927,0.794,0.927,2.316c0,5.76-6.753,13.309-13.97,13.309
		c-5.893,0-9.27-7.681-12.05-14.831C86.468,38.949,86.071,42.591,86.071,45.239z M87.13,34.514
		c5.893-0.397,10.196-2.781,10.196-5.959c0-1.39-0.596-2.383-2.582-2.383C92.096,26.171,88.985,30.21,87.13,34.514z"/>
</g>
</svg>
